<?xml version="1.0" encoding="UTF-8" standalone="no"?>
<!DOCTYPE svg PUBLIC "-//W3C//DTD SVG 1.1//EN"
 "http://www.w3.org/Graphics/SVG/1.1/DTD/svg11.dtd">
<!-- Generated by graphviz version 2.40.1 (20161225.0304)
 -->
<!-- Title: _timescaledb_catalog.tablespace Pages: 1 -->
<svg width="958pt" height="742pt"
 viewBox="0.00 0.00 957.50 742.00" xmlns="http://www.w3.org/2000/svg" xmlns:xlink="http://www.w3.org/1999/xlink">
<g id="graph0" class="graph" transform="scale(1 1) rotate(0) translate(4 738)">
<title>_timescaledb_catalog.tablespace</title>
<polygon fill="#ffffff" stroke="transparent" points="-4,4 -4,-738 953.5,-738 953.5,4 -4,4"/>
<!-- _timescaledb_catalog.tablespace -->
<g id="node1" class="node">
<title>_timescaledb_catalog.tablespace</title>
<polygon fill="#efefef" stroke="transparent" points="46.5,-652.5 46.5,-687.5 453.5,-687.5 453.5,-652.5 46.5,-652.5"/>
<polygon fill="none" stroke="#000000" points="46.5,-652.5 46.5,-687.5 453.5,-687.5 453.5,-652.5 46.5,-652.5"/>
<text text-anchor="start" x="53.1744" y="-665.3" font-family="Arial Bold" font-size="18.00" fill="#000000">_timescaledb_catalog.tablespace</text>
<text text-anchor="start" x="319.2576" y="-665.3" font-family="Arial" font-size="14.00" fill="#000000">    </text>
<text text-anchor="start" x="353.4624" y="-665.3" font-family="Arial" font-size="14.00" fill="#666666">[BASE TABLE]</text>
<polygon fill="none" stroke="#000000" points="46.5,-622.5 46.5,-652.5 453.5,-652.5 453.5,-622.5 46.5,-622.5"/>
<text text-anchor="start" x="53.5" y="-633.9" font-family="Arial" font-size="14.00" fill="#000000">id </text>
<text text-anchor="start" x="68.2798" y="-633.9" font-family="Arial" font-size="14.00" fill="#666666">[integer]</text>
<polygon fill="none" stroke="#000000" points="46.5,-592.5 46.5,-622.5 453.5,-622.5 453.5,-592.5 46.5,-592.5"/>
<text text-anchor="start" x="53.5" y="-603.9" font-family="Arial" font-size="14.00" fill="#000000">hypertable_id </text>
<text text-anchor="start" x="141.4158" y="-603.9" font-family="Arial" font-size="14.00" fill="#666666">[integer]</text>
<polygon fill="none" stroke="#000000" points="46.5,-562.5 46.5,-592.5 453.5,-592.5 453.5,-562.5 46.5,-562.5"/>
<text text-anchor="start" x="53.5" y="-573.9" font-family="Arial" font-size="14.00" fill="#000000">tablespace_name </text>
<text text-anchor="start" x="167.8744" y="-573.9" font-family="Arial" font-size="14.00" fill="#666666">[name]</text>
<polygon fill="none" stroke="#000000" stroke-width="3" points="44.5,-561.5 44.5,-689.5 454.5,-689.5 454.5,-561.5 44.5,-561.5"/>
</g>
<!-- _timescaledb_catalog.hypertable -->
<g id="node2" class="node">
<title>_timescaledb_catalog.hypertable</title>
<polygon fill="#efefef" stroke="transparent" points="48.5,-402.5 48.5,-437.5 452.5,-437.5 452.5,-402.5 48.5,-402.5"/>
<polygon fill="none" stroke="#000000" points="48.5,-402.5 48.5,-437.5 452.5,-437.5 452.5,-402.5 48.5,-402.5"/>
<text text-anchor="start" x="55.1783" y="-415.3" font-family="Arial Bold" font-size="18.00" fill="#000000">_timescaledb_catalog.hypertable</text>
<text text-anchor="start" x="318.2537" y="-415.3" font-family="Arial" font-size="14.00" fill="#000000">    </text>
<text text-anchor="start" x="352.4585" y="-415.3" font-family="Arial" font-size="14.00" fill="#666666">[BASE TABLE]</text>
<polygon fill="none" stroke="#000000" points="48.5,-372.5 48.5,-402.5 452.5,-402.5 452.5,-372.5 48.5,-372.5"/>
<text text-anchor="start" x="55.5" y="-383.9" font-family="Arial" font-size="14.00" fill="#000000">id    </text>
<text text-anchor="start" x="100.594" y="-383.9" font-family="Arial" font-size="14.00" fill="#666666">[integer]</text>
<polygon fill="none" stroke="#000000" points="48.5,-342.5 48.5,-372.5 452.5,-372.5 452.5,-342.5 48.5,-342.5"/>
<text text-anchor="start" x="55.5" y="-353.9" font-family="Arial" font-size="14.00" fill="#000000">schema_name    </text>
<text text-anchor="start" x="181.5042" y="-353.9" font-family="Arial" font-size="14.00" fill="#666666">[name]</text>
<polygon fill="none" stroke="#000000" points="48.5,-312.5 48.5,-342.5 452.5,-342.5 452.5,-312.5 48.5,-312.5"/>
<text text-anchor="start" x="55.5" y="-323.9" font-family="Arial" font-size="14.00" fill="#000000">table_name    </text>
<text text-anchor="start" x="162.8408" y="-323.9" font-family="Arial" font-size="14.00" fill="#666666">[name]</text>
<polygon fill="none" stroke="#000000" points="48.5,-282.5 48.5,-312.5 452.5,-312.5 452.5,-282.5 48.5,-282.5"/>
<text text-anchor="start" x="55.5" y="-293.9" font-family="Arial" font-size="14.00" fill="#000000">associated_schema_name    </text>
<text text-anchor="start" x="256.197" y="-293.9" font-family="Arial" font-size="14.00" fill="#666666">[name]</text>
<polygon fill="none" stroke="#000000" points="48.5,-252.5 48.5,-282.5 452.5,-282.5 452.5,-252.5 48.5,-252.5"/>
<text text-anchor="start" x="55.5" y="-263.9" font-family="Arial" font-size="14.00" fill="#000000">associated_table_prefix    </text>
<text text-anchor="start" x="236.7482" y="-263.9" font-family="Arial" font-size="14.00" fill="#666666">[name]</text>
<polygon fill="none" stroke="#000000" points="48.5,-222.5 48.5,-252.5 452.5,-252.5 452.5,-222.5 48.5,-222.5"/>
<text text-anchor="start" x="55.5" y="-233.9" font-family="Arial" font-size="14.00" fill="#000000">num_dimensions    </text>
<text text-anchor="start" x="195.5" y="-233.9" font-family="Arial" font-size="14.00" fill="#666666">[smallint]</text>
<polygon fill="none" stroke="#000000" points="48.5,-192.5 48.5,-222.5 452.5,-222.5 452.5,-192.5 48.5,-192.5"/>
<text text-anchor="start" x="55.5" y="-203.9" font-family="Arial" font-size="14.00" fill="#000000">chunk_sizing_func_schema    </text>
<text text-anchor="start" x="261.643" y="-203.9" font-family="Arial" font-size="14.00" fill="#666666">[name]</text>
<polygon fill="none" stroke="#000000" points="48.5,-162.5 48.5,-192.5 452.5,-192.5 452.5,-162.5 48.5,-162.5"/>
<text text-anchor="start" x="55.5" y="-173.9" font-family="Arial" font-size="14.00" fill="#000000">chunk_sizing_func_name    </text>
<text text-anchor="start" x="247.643" y="-173.9" font-family="Arial" font-size="14.00" fill="#666666">[name]</text>
<polygon fill="none" stroke="#000000" points="48.5,-132.5 48.5,-162.5 452.5,-162.5 452.5,-132.5 48.5,-132.5"/>
<text text-anchor="start" x="55.5" y="-143.9" font-family="Arial" font-size="14.00" fill="#000000">chunk_target_size    </text>
<text text-anchor="start" x="203.2966" y="-143.9" font-family="Arial" font-size="14.00" fill="#666666">[bigint]</text>
<polygon fill="none" stroke="#000000" points="48.5,-102.5 48.5,-132.5 452.5,-132.5 452.5,-102.5 48.5,-102.5"/>
<text text-anchor="start" x="55.5" y="-113.9" font-family="Arial" font-size="14.00" fill="#000000">compression_state    </text>
<text text-anchor="start" x="207.1746" y="-113.9" font-family="Arial" font-size="14.00" fill="#666666">[smallint]</text>
<polygon fill="none" stroke="#000000" points="48.5,-72.5 48.5,-102.5 452.5,-102.5 452.5,-72.5 48.5,-72.5"/>
<text text-anchor="start" x="55.5" y="-83.9" font-family="Arial" font-size="14.00" fill="#000000">compressed_hypertable_id    </text>
<text text-anchor="start" x="257.7468" y="-83.9" font-family="Arial" font-size="14.00" fill="#666666">[integer]</text>
<polygon fill="none" stroke="#000000" points="48.5,-42.5 48.5,-72.5 452.5,-72.5 452.5,-42.5 48.5,-42.5"/>
<text text-anchor="start" x="55.5" y="-53.9" font-family="Arial" font-size="14.00" fill="#000000">replication_factor    </text>
<text text-anchor="start" x="196.2784" y="-53.9" font-family="Arial" font-size="14.00" fill="#666666">[smallint]</text>
</g>
<!-- _timescaledb_catalog.tablespace&#45;&gt;_timescaledb_catalog.hypertable -->
<g id="edge1" class="edge">
<title>_timescaledb_catalog.tablespace:hypertable_id&#45;&gt;_timescaledb_catalog.hypertable:id</title>
<path fill="none" stroke="#000000" d="M463.4397,-605.972C491.148,-596.3689 478.1075,-543.8919 453.5,-517 392.5034,-450.341 109.4966,-547.659 48.5,-481 20.4468,-450.3425 6.9444,-387.5 48.5,-387.5"/>
<polygon fill="#000000" stroke="#000000" points="463.3839,-605.9805 452.8162,-603.0522 458.4419,-606.7402 453.5,-607.5 453.5,-607.5 453.5,-607.5 458.4419,-606.7402 454.1838,-611.9478 463.3839,-605.9805 463.3839,-605.9805"/>
<text text-anchor="start" x="460.0835" y="-617.5" font-family="Arial" font-size="10.00" fill="#000000">FOREIGN KEY (hypertable_id) REFERENCES _timescaledb_catalog.hypertable(id) ON DELETE CASCADE</text>
</g>
</g>
</svg>
