<?xml version="1.0" encoding="UTF-8" standalone="no"?>
<!DOCTYPE svg PUBLIC "-//W3C//DTD SVG 1.1//EN"
 "http://www.w3.org/Graphics/SVG/1.1/DTD/svg11.dtd">
<!-- Generated by graphviz version 2.40.1 (20161225.0304)
 -->
<!-- Title: _timescaledb_catalog.continuous_agg Pages: 1 -->
<svg width="1523pt" height="1259pt"
 viewBox="0.00 0.00 1523.00 1259.00" xmlns="http://www.w3.org/2000/svg" xmlns:xlink="http://www.w3.org/1999/xlink">
<g id="graph0" class="graph" transform="scale(1 1) rotate(0) translate(4 1255)">
<title>_timescaledb_catalog.continuous_agg</title>
<polygon fill="#ffffff" stroke="transparent" points="-4,4 -4,-1255 1519,-1255 1519,4 -4,4"/>
<!-- _timescaledb_catalog.continuous_agg -->
<g id="node1" class="node">
<title>_timescaledb_catalog.continuous_agg</title>
<polygon fill="#efefef" stroke="transparent" points="549,-922.5 549,-957.5 996,-957.5 996,-922.5 549,-922.5"/>
<polygon fill="none" stroke="#000000" points="549,-922.5 549,-957.5 996,-957.5 996,-922.5 549,-922.5"/>
<text text-anchor="start" x="555.662" y="-935.3" font-family="Arial Bold" font-size="18.00" fill="#000000">_timescaledb_catalog.continuous_agg</text>
<text text-anchor="start" x="861.77" y="-935.3" font-family="Arial" font-size="14.00" fill="#000000">    </text>
<text text-anchor="start" x="895.9748" y="-935.3" font-family="Arial" font-size="14.00" fill="#666666">[BASE TABLE]</text>
<polygon fill="none" stroke="#000000" points="549,-892.5 549,-922.5 996,-922.5 996,-892.5 549,-892.5"/>
<text text-anchor="start" x="556" y="-903.9" font-family="Arial" font-size="14.00" fill="#000000">mat_hypertable_id </text>
<text text-anchor="start" x="675.0322" y="-903.9" font-family="Arial" font-size="14.00" fill="#666666">[integer]</text>
<polygon fill="none" stroke="#000000" points="549,-862.5 549,-892.5 996,-892.5 996,-862.5 549,-862.5"/>
<text text-anchor="start" x="556" y="-873.9" font-family="Arial" font-size="14.00" fill="#000000">raw_hypertable_id </text>
<text text-anchor="start" x="674.2482" y="-873.9" font-family="Arial" font-size="14.00" fill="#666666">[integer]</text>
<polygon fill="none" stroke="#000000" points="549,-832.5 549,-862.5 996,-862.5 996,-832.5 549,-832.5"/>
<text text-anchor="start" x="556" y="-843.9" font-family="Arial" font-size="14.00" fill="#000000">parent_mat_hypertable_id </text>
<text text-anchor="start" x="722.4964" y="-843.9" font-family="Arial" font-size="14.00" fill="#666666">[integer]</text>
<polygon fill="none" stroke="#000000" points="549,-802.5 549,-832.5 996,-832.5 996,-802.5 549,-802.5"/>
<text text-anchor="start" x="556" y="-813.9" font-family="Arial" font-size="14.00" fill="#000000">user_view_schema </text>
<text text-anchor="start" x="679.6858" y="-813.9" font-family="Arial" font-size="14.00" fill="#666666">[name]</text>
<polygon fill="none" stroke="#000000" points="549,-772.5 549,-802.5 996,-802.5 996,-772.5 549,-772.5"/>
<text text-anchor="start" x="556" y="-783.9" font-family="Arial" font-size="14.00" fill="#000000">user_view_name </text>
<text text-anchor="start" x="665.6858" y="-783.9" font-family="Arial" font-size="14.00" fill="#666666">[name]</text>
<polygon fill="none" stroke="#000000" points="549,-742.5 549,-772.5 996,-772.5 996,-742.5 549,-742.5"/>
<text text-anchor="start" x="556" y="-753.9" font-family="Arial" font-size="14.00" fill="#000000">partial_view_schema </text>
<text text-anchor="start" x="690.5722" y="-753.9" font-family="Arial" font-size="14.00" fill="#666666">[name]</text>
<polygon fill="none" stroke="#000000" points="549,-712.5 549,-742.5 996,-742.5 996,-712.5 549,-712.5"/>
<text text-anchor="start" x="556" y="-723.9" font-family="Arial" font-size="14.00" fill="#000000">partial_view_name </text>
<text text-anchor="start" x="676.5722" y="-723.9" font-family="Arial" font-size="14.00" fill="#666666">[name]</text>
<polygon fill="none" stroke="#000000" points="549,-682.5 549,-712.5 996,-712.5 996,-682.5 549,-682.5"/>
<text text-anchor="start" x="556" y="-693.9" font-family="Arial" font-size="14.00" fill="#000000">bucket_width </text>
<text text-anchor="start" x="641.5806" y="-693.9" font-family="Arial" font-size="14.00" fill="#666666">[bigint]</text>
<polygon fill="none" stroke="#000000" points="549,-652.5 549,-682.5 996,-682.5 996,-652.5 549,-652.5"/>
<text text-anchor="start" x="556" y="-663.9" font-family="Arial" font-size="14.00" fill="#000000">direct_view_schema </text>
<text text-anchor="start" x="686.683" y="-663.9" font-family="Arial" font-size="14.00" fill="#666666">[name]</text>
<polygon fill="none" stroke="#000000" points="549,-622.5 549,-652.5 996,-652.5 996,-622.5 549,-622.5"/>
<text text-anchor="start" x="556" y="-633.9" font-family="Arial" font-size="14.00" fill="#000000">direct_view_name </text>
<text text-anchor="start" x="672.683" y="-633.9" font-family="Arial" font-size="14.00" fill="#666666">[name]</text>
<polygon fill="none" stroke="#000000" points="549,-592.5 549,-622.5 996,-622.5 996,-592.5 549,-592.5"/>
<text text-anchor="start" x="556" y="-603.9" font-family="Arial" font-size="14.00" fill="#000000">materialized_only </text>
<text text-anchor="start" x="668.7896" y="-603.9" font-family="Arial" font-size="14.00" fill="#666666">[boolean]</text>
<polygon fill="none" stroke="#000000" points="549,-562.5 549,-592.5 996,-592.5 996,-562.5 549,-562.5"/>
<text text-anchor="start" x="556" y="-573.9" font-family="Arial" font-size="14.00" fill="#000000">finalized </text>
<text text-anchor="start" x="611.2314" y="-573.9" font-family="Arial" font-size="14.00" fill="#666666">[boolean]</text>
<polygon fill="none" stroke="#000000" stroke-width="3" points="547,-561.5 547,-959.5 997,-959.5 997,-561.5 547,-561.5"/>
</g>
<!-- _timescaledb_catalog.continuous_agg&#45;&gt;_timescaledb_catalog.continuous_agg -->
<g id="edge2" class="edge">
<title>_timescaledb_catalog.continuous_agg:parent_mat_hypertable_id&#45;&gt;_timescaledb_catalog.continuous_agg:mat_hypertable_id</title>
<path fill="none" stroke="#000000" d="M774.4469,-872.7587C781.9709,-1015.1155 781.4887,-1196 773,-1196 764.3164,-1196 764.0111,-1062.5676 772.0842,-922.7976"/>
<polygon fill="#000000" stroke="#000000" points="774.4363,-872.5638 778.3846,-862.3334 774.1638,-867.5712 773.8913,-862.5787 773.8913,-862.5787 773.8913,-862.5787 774.1638,-867.5712 769.398,-862.8239 774.4363,-872.5638 774.4363,-872.5638"/>
<text text-anchor="start" x="781.2238" y="-872.5787" font-family="Arial" font-size="10.00" fill="#000000">FOREIGN KEY (parent_mat_hypertable_id) REFERENCES _timescaledb_catalog.continuous_agg(mat_hypertable_id) ON DELETE CASCADE</text>
</g>
<!-- _timescaledb_catalog.hypertable -->
<g id="node2" class="node">
<title>_timescaledb_catalog.hypertable</title>
<polygon fill="#efefef" stroke="transparent" points="571,-402.5 571,-437.5 975,-437.5 975,-402.5 571,-402.5"/>
<polygon fill="none" stroke="#000000" points="571,-402.5 571,-437.5 975,-437.5 975,-402.5 571,-402.5"/>
<text text-anchor="start" x="577.6783" y="-415.3" font-family="Arial Bold" font-size="18.00" fill="#000000">_timescaledb_catalog.hypertable</text>
<text text-anchor="start" x="840.7537" y="-415.3" font-family="Arial" font-size="14.00" fill="#000000">    </text>
<text text-anchor="start" x="874.9585" y="-415.3" font-family="Arial" font-size="14.00" fill="#666666">[BASE TABLE]</text>
<polygon fill="none" stroke="#000000" points="571,-372.5 571,-402.5 975,-402.5 975,-372.5 571,-372.5"/>
<text text-anchor="start" x="578" y="-383.9" font-family="Arial" font-size="14.00" fill="#000000">id    </text>
<text text-anchor="start" x="623.094" y="-383.9" font-family="Arial" font-size="14.00" fill="#666666">[integer]</text>
<polygon fill="none" stroke="#000000" points="571,-342.5 571,-372.5 975,-372.5 975,-342.5 571,-342.5"/>
<text text-anchor="start" x="578" y="-353.9" font-family="Arial" font-size="14.00" fill="#000000">schema_name    </text>
<text text-anchor="start" x="704.0042" y="-353.9" font-family="Arial" font-size="14.00" fill="#666666">[name]</text>
<polygon fill="none" stroke="#000000" points="571,-312.5 571,-342.5 975,-342.5 975,-312.5 571,-312.5"/>
<text text-anchor="start" x="578" y="-323.9" font-family="Arial" font-size="14.00" fill="#000000">table_name    </text>
<text text-anchor="start" x="685.3408" y="-323.9" font-family="Arial" font-size="14.00" fill="#666666">[name]</text>
<polygon fill="none" stroke="#000000" points="571,-282.5 571,-312.5 975,-312.5 975,-282.5 571,-282.5"/>
<text text-anchor="start" x="578" y="-293.9" font-family="Arial" font-size="14.00" fill="#000000">associated_schema_name    </text>
<text text-anchor="start" x="778.697" y="-293.9" font-family="Arial" font-size="14.00" fill="#666666">[name]</text>
<polygon fill="none" stroke="#000000" points="571,-252.5 571,-282.5 975,-282.5 975,-252.5 571,-252.5"/>
<text text-anchor="start" x="578" y="-263.9" font-family="Arial" font-size="14.00" fill="#000000">associated_table_prefix    </text>
<text text-anchor="start" x="759.2482" y="-263.9" font-family="Arial" font-size="14.00" fill="#666666">[name]</text>
<polygon fill="none" stroke="#000000" points="571,-222.5 571,-252.5 975,-252.5 975,-222.5 571,-222.5"/>
<text text-anchor="start" x="578" y="-233.9" font-family="Arial" font-size="14.00" fill="#000000">num_dimensions    </text>
<text text-anchor="start" x="718" y="-233.9" font-family="Arial" font-size="14.00" fill="#666666">[smallint]</text>
<polygon fill="none" stroke="#000000" points="571,-192.5 571,-222.5 975,-222.5 975,-192.5 571,-192.5"/>
<text text-anchor="start" x="578" y="-203.9" font-family="Arial" font-size="14.00" fill="#000000">chunk_sizing_func_schema    </text>
<text text-anchor="start" x="784.143" y="-203.9" font-family="Arial" font-size="14.00" fill="#666666">[name]</text>
<polygon fill="none" stroke="#000000" points="571,-162.5 571,-192.5 975,-192.5 975,-162.5 571,-162.5"/>
<text text-anchor="start" x="578" y="-173.9" font-family="Arial" font-size="14.00" fill="#000000">chunk_sizing_func_name    </text>
<text text-anchor="start" x="770.143" y="-173.9" font-family="Arial" font-size="14.00" fill="#666666">[name]</text>
<polygon fill="none" stroke="#000000" points="571,-132.5 571,-162.5 975,-162.5 975,-132.5 571,-132.5"/>
<text text-anchor="start" x="578" y="-143.9" font-family="Arial" font-size="14.00" fill="#000000">chunk_target_size    </text>
<text text-anchor="start" x="725.7966" y="-143.9" font-family="Arial" font-size="14.00" fill="#666666">[bigint]</text>
<polygon fill="none" stroke="#000000" points="571,-102.5 571,-132.5 975,-132.5 975,-102.5 571,-102.5"/>
<text text-anchor="start" x="578" y="-113.9" font-family="Arial" font-size="14.00" fill="#000000">compression_state    </text>
<text text-anchor="start" x="729.6746" y="-113.9" font-family="Arial" font-size="14.00" fill="#666666">[smallint]</text>
<polygon fill="none" stroke="#000000" points="571,-72.5 571,-102.5 975,-102.5 975,-72.5 571,-72.5"/>
<text text-anchor="start" x="578" y="-83.9" font-family="Arial" font-size="14.00" fill="#000000">compressed_hypertable_id    </text>
<text text-anchor="start" x="780.2468" y="-83.9" font-family="Arial" font-size="14.00" fill="#666666">[integer]</text>
<polygon fill="none" stroke="#000000" points="571,-42.5 571,-72.5 975,-72.5 975,-42.5 571,-42.5"/>
<text text-anchor="start" x="578" y="-53.9" font-family="Arial" font-size="14.00" fill="#000000">replication_factor    </text>
<text text-anchor="start" x="718.7784" y="-53.9" font-family="Arial" font-size="14.00" fill="#666666">[smallint]</text>
</g>
<!-- _timescaledb_catalog.continuous_agg&#45;&gt;_timescaledb_catalog.hypertable -->
<g id="edge1" class="edge">
<title>_timescaledb_catalog.continuous_agg:mat_hypertable_id&#45;&gt;_timescaledb_catalog.hypertable:id</title>
<path fill="none" stroke="#000000" d="M1006.3894,-907.172C1167.2277,-896.7818 1111.0208,-642.1757 996,-517 931.8693,-447.2074 635.1307,-550.7926 571,-481 542.8832,-450.4008 529.4444,-387.5 571,-387.5"/>
<polygon fill="#000000" stroke="#000000" points="1005.995,-907.1843 995.8579,-903.0022 1000.9975,-907.3422 996,-907.5 996,-907.5 996,-907.5 1000.9975,-907.3422 996.1421,-911.9978 1005.995,-907.1843 1005.995,-907.1843"/>
<text text-anchor="start" x="1003.4705" y="-917.5" font-family="Arial" font-size="10.00" fill="#000000">FOREIGN KEY (mat_hypertable_id) REFERENCES _timescaledb_catalog.hypertable(id) ON DELETE CASCADE</text>
</g>
<!-- _timescaledb_catalog.continuous_agg&#45;&gt;_timescaledb_catalog.hypertable -->
<g id="edge5" class="edge">
<title>_timescaledb_catalog.continuous_agg:raw_hypertable_id&#45;&gt;_timescaledb_catalog.hypertable:id</title>
<path fill="none" stroke="#000000" d="M1006.0347,-877.1678C1153.9697,-867.1366 1102.0785,-632.4439 996,-517 931.8693,-447.2074 635.1307,-550.7926 571,-481 542.8832,-450.4008 529.4444,-387.5 571,-387.5"/>
<polygon fill="#000000" stroke="#000000" points="1005.9945,-877.169 995.8511,-873.0025 1000.9973,-877.3345 996,-877.5 996,-877.5 996,-877.5 1000.9973,-877.3345 996.1489,-881.9975 1005.9945,-877.169 1005.9945,-877.169"/>
<text text-anchor="start" x="1002.7505" y="-887.5" font-family="Arial" font-size="10.00" fill="#000000">FOREIGN KEY (raw_hypertable_id) REFERENCES _timescaledb_catalog.hypertable(id) ON DELETE CASCADE</text>
</g>
<!-- _timescaledb_catalog.continuous_aggs_materialization_invalidation_log -->
<g id="node3" class="node">
<title>_timescaledb_catalog.continuous_aggs_materialization_invalidation_log</title>
<polygon fill="#efefef" stroke="transparent" points="43,-1172.5 43,-1207.5 759,-1207.5 759,-1172.5 43,-1172.5"/>
<polygon fill="none" stroke="#000000" points="43,-1172.5 43,-1207.5 759,-1207.5 759,-1172.5 43,-1172.5"/>
<text text-anchor="start" x="49.6399" y="-1185.3" font-family="Arial Bold" font-size="18.00" fill="#000000">_timescaledb_catalog.continuous_aggs_materialization_invalidation_log</text>
<text text-anchor="start" x="624.7921" y="-1185.3" font-family="Arial" font-size="14.00" fill="#000000">    </text>
<text text-anchor="start" x="658.9969" y="-1185.3" font-family="Arial" font-size="14.00" fill="#666666">[BASE TABLE]</text>
<polygon fill="none" stroke="#000000" points="43,-1142.5 43,-1172.5 759,-1172.5 759,-1142.5 43,-1142.5"/>
<text text-anchor="start" x="50" y="-1153.9" font-family="Arial" font-size="14.00" fill="#000000">materialization_id    </text>
<text text-anchor="start" x="193.101" y="-1153.9" font-family="Arial" font-size="14.00" fill="#666666">[integer]</text>
<polygon fill="none" stroke="#000000" points="43,-1112.5 43,-1142.5 759,-1142.5 759,-1112.5 43,-1112.5"/>
<text text-anchor="start" x="50" y="-1123.9" font-family="Arial" font-size="14.00" fill="#000000">lowest_modified_value    </text>
<text text-anchor="start" x="225.7882" y="-1123.9" font-family="Arial" font-size="14.00" fill="#666666">[bigint]</text>
<polygon fill="none" stroke="#000000" points="43,-1082.5 43,-1112.5 759,-1112.5 759,-1082.5 43,-1082.5"/>
<text text-anchor="start" x="50" y="-1093.9" font-family="Arial" font-size="14.00" fill="#000000">greatest_modified_value    </text>
<text text-anchor="start" x="236.6914" y="-1093.9" font-family="Arial" font-size="14.00" fill="#666666">[bigint]</text>
</g>
<!-- _timescaledb_catalog.continuous_aggs_materialization_invalidation_log&#45;&gt;_timescaledb_catalog.continuous_agg -->
<g id="edge3" class="edge">
<title>_timescaledb_catalog.continuous_aggs_materialization_invalidation_log:materialization_id&#45;&gt;_timescaledb_catalog.continuous_agg:mat_hypertable_id</title>
<path fill="none" stroke="#000000" d="M768.9852,-1156.3895C808.5376,-1146.7771 790.2959,-1077.1174 759,-1040 697.9591,-967.6045 610.0409,-1076.3955 549,-1004 521.3535,-971.2108 506.1111,-907.5 549,-907.5"/>
<polygon fill="#000000" stroke="#000000" points="768.9387,-1156.3946 758.5026,-1153.0276 763.9694,-1156.9473 759,-1157.5 759,-1157.5 759,-1157.5 763.9694,-1156.9473 759.4974,-1161.9724 768.9387,-1156.3946 768.9387,-1156.3946"/>
<text text-anchor="start" x="765.5145" y="-1167.5" font-family="Arial" font-size="10.00" fill="#000000">FOREIGN KEY (materialization_id) REFERENCES _timescaledb_catalog.continuous_agg(mat_hypertable_id) ON DELETE CASCADE</text>
</g>
<!-- _timescaledb_catalog.continuous_agg_migrate_plan -->
<g id="node4" class="node">
<title>_timescaledb_catalog.continuous_agg_migrate_plan</title>
<polygon fill="#efefef" stroke="transparent" points="864,-1172.5 864,-1207.5 1425,-1207.5 1425,-1172.5 864,-1172.5"/>
<polygon fill="none" stroke="#000000" points="864,-1172.5 864,-1207.5 1425,-1207.5 1425,-1172.5 864,-1172.5"/>
<text text-anchor="start" x="870.6497" y="-1185.3" font-family="Arial Bold" font-size="18.00" fill="#000000">_timescaledb_catalog.continuous_agg_migrate_plan</text>
<text text-anchor="start" x="1290.7823" y="-1185.3" font-family="Arial" font-size="14.00" fill="#000000">    </text>
<text text-anchor="start" x="1324.9871" y="-1185.3" font-family="Arial" font-size="14.00" fill="#666666">[BASE TABLE]</text>
<polygon fill="none" stroke="#000000" points="864,-1142.5 864,-1172.5 1425,-1172.5 1425,-1142.5 864,-1142.5"/>
<text text-anchor="start" x="871" y="-1153.9" font-family="Arial" font-size="14.00" fill="#000000">mat_hypertable_id    </text>
<text text-anchor="start" x="1020.3464" y="-1153.9" font-family="Arial" font-size="14.00" fill="#666666">[integer]</text>
<polygon fill="none" stroke="#000000" points="864,-1112.5 864,-1142.5 1425,-1142.5 1425,-1112.5 864,-1112.5"/>
<text text-anchor="start" x="871" y="-1123.9" font-family="Arial" font-size="14.00" fill="#000000">start_ts    </text>
<text text-anchor="start" x="951.1024" y="-1123.9" font-family="Arial" font-size="14.00" fill="#666666">[timestamp with time zone]</text>
<polygon fill="none" stroke="#000000" points="864,-1082.5 864,-1112.5 1425,-1112.5 1425,-1082.5 864,-1082.5"/>
<text text-anchor="start" x="871" y="-1093.9" font-family="Arial" font-size="14.00" fill="#000000">end_ts    </text>
<text text-anchor="start" x="947.2258" y="-1093.9" font-family="Arial" font-size="14.00" fill="#666666">[timestamp with time zone]</text>
</g>
<!-- _timescaledb_catalog.continuous_agg_migrate_plan&#45;&gt;_timescaledb_catalog.continuous_agg -->
<g id="edge4" class="edge">
<title>_timescaledb_catalog.continuous_agg_migrate_plan:mat_hypertable_id&#45;&gt;_timescaledb_catalog.continuous_agg:mat_hypertable_id</title>
<path fill="none" stroke="#000000" d="M854.0419,-1156.4112C814.7192,-1146.9832 834.5302,-1078.5833 864,-1040 900.9109,-991.6744 959.0891,-1052.3256 996,-1004 1022.0333,-969.9159 1038.8889,-907.5 996,-907.5"/>
<polygon fill="#000000" stroke="#000000" points="854.0592,-1156.413 863.5109,-1161.9733 859.0296,-1156.9565 864,-1157.5 864,-1157.5 864,-1157.5 859.0296,-1156.9565 864.4891,-1153.0267 854.0592,-1156.413 854.0592,-1156.413"/>
<text text-anchor="start" x="870.565" y="-1141.5" font-family="Arial" font-size="10.00" fill="#000000">FOREIGN KEY (mat_hypertable_id) REFERENCES _timescaledb_catalog.continuous_agg(mat_hypertable_id)</text>
</g>
</g>
</svg>
