<?xml version="1.0" encoding="UTF-8" standalone="no"?>
<!DOCTYPE svg PUBLIC "-//W3C//DTD SVG 1.1//EN"
 "http://www.w3.org/Graphics/SVG/1.1/DTD/svg11.dtd">
<!-- Generated by graphviz version 2.40.1 (20161225.0304)
 -->
<!-- Title: _timescaledb_internal.bgw_policy_chunk_stats Pages: 1 -->
<svg width="1428pt" height="922pt"
 viewBox="0.00 0.00 1428.00 922.00" xmlns="http://www.w3.org/2000/svg" xmlns:xlink="http://www.w3.org/1999/xlink">
<g id="graph0" class="graph" transform="scale(1 1) rotate(0) translate(4 918)">
<title>_timescaledb_internal.bgw_policy_chunk_stats</title>
<polygon fill="#ffffff" stroke="transparent" points="-4,4 -4,-918 1424,-918 1424,4 -4,4"/>
<!-- _timescaledb_internal.bgw_policy_chunk_stats -->
<g id="node1" class="node">
<title>_timescaledb_internal.bgw_policy_chunk_stats</title>
<polygon fill="#efefef" stroke="transparent" points="448,-832.5 448,-867.5 964,-867.5 964,-832.5 448,-832.5"/>
<polygon fill="none" stroke="#000000" points="448,-832.5 448,-867.5 964,-867.5 964,-832.5 448,-832.5"/>
<text text-anchor="start" x="454.6704" y="-845.3" font-family="Arial Bold" font-size="18.00" fill="#000000">_timescaledb_internal.bgw_policy_chunk_stats</text>
<text text-anchor="start" x="829.7616" y="-845.3" font-family="Arial" font-size="14.00" fill="#000000">    </text>
<text text-anchor="start" x="863.9664" y="-845.3" font-family="Arial" font-size="14.00" fill="#666666">[BASE TABLE]</text>
<polygon fill="none" stroke="#000000" points="448,-802.5 448,-832.5 964,-832.5 964,-802.5 448,-802.5"/>
<text text-anchor="start" x="455" y="-813.9" font-family="Arial" font-size="14.00" fill="#000000">job_id </text>
<text text-anchor="start" x="496.2342" y="-813.9" font-family="Arial" font-size="14.00" fill="#666666">[integer]</text>
<polygon fill="none" stroke="#000000" points="448,-772.5 448,-802.5 964,-802.5 964,-772.5 448,-772.5"/>
<text text-anchor="start" x="455" y="-783.9" font-family="Arial" font-size="14.00" fill="#000000">chunk_id </text>
<text text-anchor="start" x="514.9102" y="-783.9" font-family="Arial" font-size="14.00" fill="#666666">[integer]</text>
<polygon fill="none" stroke="#000000" points="448,-742.5 448,-772.5 964,-772.5 964,-742.5 448,-742.5"/>
<text text-anchor="start" x="455" y="-753.9" font-family="Arial" font-size="14.00" fill="#000000">num_times_job_run </text>
<text text-anchor="start" x="581.8022" y="-753.9" font-family="Arial" font-size="14.00" fill="#666666">[integer]</text>
<polygon fill="none" stroke="#000000" points="448,-712.5 448,-742.5 964,-742.5 964,-712.5 448,-712.5"/>
<text text-anchor="start" x="455" y="-723.9" font-family="Arial" font-size="14.00" fill="#000000">last_time_job_run </text>
<text text-anchor="start" x="569.3562" y="-723.9" font-family="Arial" font-size="14.00" fill="#666666">[timestamp with time zone]</text>
<polygon fill="none" stroke="#000000" stroke-width="3" points="446.5,-711.5 446.5,-869.5 965.5,-869.5 965.5,-711.5 446.5,-711.5"/>
</g>
<!-- _timescaledb_config.bgw_job -->
<g id="node2" class="node">
<title>_timescaledb_config.bgw_job</title>
<polygon fill="#efefef" stroke="transparent" points="279,-552.5 279,-587.5 656,-587.5 656,-552.5 279,-552.5"/>
<polygon fill="none" stroke="#000000" points="279,-552.5 279,-587.5 656,-587.5 656,-552.5 279,-552.5"/>
<text text-anchor="start" x="285.6846" y="-565.3" font-family="Arial Bold" font-size="18.00" fill="#000000">_timescaledb_config.bgw_job</text>
<text text-anchor="start" x="521.7474" y="-565.3" font-family="Arial" font-size="14.00" fill="#000000">    </text>
<text text-anchor="start" x="555.9522" y="-565.3" font-family="Arial" font-size="14.00" fill="#666666">[BASE TABLE]</text>
<polygon fill="none" stroke="#000000" points="279,-522.5 279,-552.5 656,-552.5 656,-522.5 279,-522.5"/>
<text text-anchor="start" x="286" y="-533.9" font-family="Arial" font-size="14.00" fill="#000000">id    </text>
<text text-anchor="start" x="331.094" y="-533.9" font-family="Arial" font-size="14.00" fill="#666666">[integer]</text>
<polygon fill="none" stroke="#000000" points="279,-492.5 279,-522.5 656,-522.5 656,-492.5 279,-492.5"/>
<text text-anchor="start" x="286" y="-503.9" font-family="Arial" font-size="14.00" fill="#000000">application_name    </text>
<text text-anchor="start" x="429.9018" y="-503.9" font-family="Arial" font-size="14.00" fill="#666666">[name]</text>
<polygon fill="none" stroke="#000000" points="279,-462.5 279,-492.5 656,-492.5 656,-462.5 279,-462.5"/>
<text text-anchor="start" x="286" y="-473.9" font-family="Arial" font-size="14.00" fill="#000000">schedule_interval    </text>
<text text-anchor="start" x="429.1192" y="-473.9" font-family="Arial" font-size="14.00" fill="#666666">[interval]</text>
<polygon fill="none" stroke="#000000" points="279,-432.5 279,-462.5 656,-462.5 656,-432.5 279,-432.5"/>
<text text-anchor="start" x="286" y="-443.9" font-family="Arial" font-size="14.00" fill="#000000">max_runtime    </text>
<text text-anchor="start" x="401.0968" y="-443.9" font-family="Arial" font-size="14.00" fill="#666666">[interval]</text>
<polygon fill="none" stroke="#000000" points="279,-402.5 279,-432.5 656,-432.5 656,-402.5 279,-402.5"/>
<text text-anchor="start" x="286" y="-413.9" font-family="Arial" font-size="14.00" fill="#000000">max_retries    </text>
<text text-anchor="start" x="393.3142" y="-413.9" font-family="Arial" font-size="14.00" fill="#666666">[integer]</text>
<polygon fill="none" stroke="#000000" points="279,-372.5 279,-402.5 656,-402.5 656,-372.5 279,-372.5"/>
<text text-anchor="start" x="286" y="-383.9" font-family="Arial" font-size="14.00" fill="#000000">retry_period    </text>
<text text-anchor="start" x="394.8794" y="-383.9" font-family="Arial" font-size="14.00" fill="#666666">[interval]</text>
<polygon fill="none" stroke="#000000" points="279,-342.5 279,-372.5 656,-372.5 656,-342.5 279,-342.5"/>
<text text-anchor="start" x="286" y="-353.9" font-family="Arial" font-size="14.00" fill="#000000">proc_schema    </text>
<text text-anchor="start" x="404.2216" y="-353.9" font-family="Arial" font-size="14.00" fill="#666666">[name]</text>
<polygon fill="none" stroke="#000000" points="279,-312.5 279,-342.5 656,-342.5 656,-312.5 279,-312.5"/>
<text text-anchor="start" x="286" y="-323.9" font-family="Arial" font-size="14.00" fill="#000000">proc_name    </text>
<text text-anchor="start" x="390.2216" y="-323.9" font-family="Arial" font-size="14.00" fill="#666666">[name]</text>
<polygon fill="none" stroke="#000000" points="279,-282.5 279,-312.5 656,-312.5 656,-282.5 279,-282.5"/>
<text text-anchor="start" x="286" y="-293.9" font-family="Arial" font-size="14.00" fill="#000000">owner    </text>
<text text-anchor="start" x="358.3198" y="-293.9" font-family="Arial" font-size="14.00" fill="#666666">[regrole]</text>
<polygon fill="none" stroke="#000000" points="279,-252.5 279,-282.5 656,-282.5 656,-252.5 279,-252.5"/>
<text text-anchor="start" x="286" y="-263.9" font-family="Arial" font-size="14.00" fill="#000000">scheduled    </text>
<text text-anchor="start" x="384.007" y="-263.9" font-family="Arial" font-size="14.00" fill="#666666">[boolean]</text>
<polygon fill="none" stroke="#000000" points="279,-222.5 279,-252.5 656,-252.5 656,-222.5 279,-222.5"/>
<text text-anchor="start" x="286" y="-233.9" font-family="Arial" font-size="14.00" fill="#000000">fixed_schedule    </text>
<text text-anchor="start" x="413.5694" y="-233.9" font-family="Arial" font-size="14.00" fill="#666666">[boolean]</text>
<polygon fill="none" stroke="#000000" points="279,-192.5 279,-222.5 656,-222.5 656,-192.5 279,-192.5"/>
<text text-anchor="start" x="286" y="-203.9" font-family="Arial" font-size="14.00" fill="#000000">initial_start    </text>
<text text-anchor="start" x="387.094" y="-203.9" font-family="Arial" font-size="14.00" fill="#666666">[timestamp with time zone]</text>
<polygon fill="none" stroke="#000000" points="279,-162.5 279,-192.5 656,-192.5 656,-162.5 279,-162.5"/>
<text text-anchor="start" x="286" y="-173.9" font-family="Arial" font-size="14.00" fill="#000000">hypertable_id    </text>
<text text-anchor="start" x="404.23" y="-173.9" font-family="Arial" font-size="14.00" fill="#666666">[integer]</text>
<polygon fill="none" stroke="#000000" points="279,-132.5 279,-162.5 656,-162.5 656,-132.5 279,-132.5"/>
<text text-anchor="start" x="286" y="-143.9" font-family="Arial" font-size="14.00" fill="#000000">config    </text>
<text text-anchor="start" x="357.5498" y="-143.9" font-family="Arial" font-size="14.00" fill="#666666">[jsonb]</text>
<polygon fill="none" stroke="#000000" points="279,-102.5 279,-132.5 656,-132.5 656,-102.5 279,-102.5"/>
<text text-anchor="start" x="286" y="-113.9" font-family="Arial" font-size="14.00" fill="#000000">check_schema    </text>
<text text-anchor="start" x="413.561" y="-113.9" font-family="Arial" font-size="14.00" fill="#666666">[name]</text>
<polygon fill="none" stroke="#000000" points="279,-72.5 279,-102.5 656,-102.5 656,-72.5 279,-72.5"/>
<text text-anchor="start" x="286" y="-83.9" font-family="Arial" font-size="14.00" fill="#000000">check_name    </text>
<text text-anchor="start" x="399.561" y="-83.9" font-family="Arial" font-size="14.00" fill="#666666">[name]</text>
<polygon fill="none" stroke="#000000" points="279,-42.5 279,-72.5 656,-72.5 656,-42.5 279,-42.5"/>
<text text-anchor="start" x="286" y="-53.9" font-family="Arial" font-size="14.00" fill="#000000">timezone    </text>
<text text-anchor="start" x="376.993" y="-53.9" font-family="Arial" font-size="14.00" fill="#666666">[text]</text>
</g>
<!-- _timescaledb_internal.bgw_policy_chunk_stats&#45;&gt;_timescaledb_config.bgw_job -->
<g id="edge1" class="edge">
<title>_timescaledb_internal.bgw_policy_chunk_stats:job_id&#45;&gt;_timescaledb_config.bgw_job:id</title>
<path fill="none" stroke="#000000" d="M437.8281,-816.6329C383.7732,-806.78 407.2796,-715.3735 448,-667 508.4188,-595.2258 595.5812,-702.7742 656,-631 682.7616,-599.2088 697.5556,-537.5 656,-537.5"/>
<polygon fill="#000000" stroke="#000000" points="438.0361,-816.6506 447.6178,-821.9837 443.0181,-817.0753 448,-817.5 448,-817.5 448,-817.5 443.0181,-817.0753 448.3822,-813.0163 438.0361,-816.6506 438.0361,-816.6506"/>
<text text-anchor="start" x="6.759" y="-827.5" font-family="Arial" font-size="10.00" fill="#000000">FOREIGN KEY (job_id) REFERENCES _timescaledb_config.bgw_job(id) ON DELETE CASCADE</text>
</g>
<!-- _timescaledb_catalog.chunk -->
<g id="node3" class="node">
<title>_timescaledb_catalog.chunk</title>
<polygon fill="#efefef" stroke="transparent" points="760,-417.5 760,-452.5 1128,-452.5 1128,-417.5 760,-417.5"/>
<polygon fill="none" stroke="#000000" points="760,-417.5 760,-452.5 1128,-452.5 1128,-417.5 760,-417.5"/>
<text text-anchor="start" x="766.6819" y="-430.3" font-family="Arial Bold" font-size="18.00" fill="#000000">_timescaledb_catalog.chunk</text>
<text text-anchor="start" x="993.7501" y="-430.3" font-family="Arial" font-size="14.00" fill="#000000">    </text>
<text text-anchor="start" x="1027.9549" y="-430.3" font-family="Arial" font-size="14.00" fill="#666666">[BASE TABLE]</text>
<polygon fill="none" stroke="#000000" points="760,-387.5 760,-417.5 1128,-417.5 1128,-387.5 760,-387.5"/>
<text text-anchor="start" x="767" y="-398.9" font-family="Arial" font-size="14.00" fill="#000000">id    </text>
<text text-anchor="start" x="812.094" y="-398.9" font-family="Arial" font-size="14.00" fill="#666666">[integer]</text>
<polygon fill="none" stroke="#000000" points="760,-357.5 760,-387.5 1128,-387.5 1128,-357.5 760,-357.5"/>
<text text-anchor="start" x="767" y="-368.9" font-family="Arial" font-size="14.00" fill="#000000">hypertable_id    </text>
<text text-anchor="start" x="885.23" y="-368.9" font-family="Arial" font-size="14.00" fill="#666666">[integer]</text>
<polygon fill="none" stroke="#000000" points="760,-327.5 760,-357.5 1128,-357.5 1128,-327.5 760,-327.5"/>
<text text-anchor="start" x="767" y="-338.9" font-family="Arial" font-size="14.00" fill="#000000">schema_name    </text>
<text text-anchor="start" x="893.0042" y="-338.9" font-family="Arial" font-size="14.00" fill="#666666">[name]</text>
<polygon fill="none" stroke="#000000" points="760,-297.5 760,-327.5 1128,-327.5 1128,-297.5 760,-297.5"/>
<text text-anchor="start" x="767" y="-308.9" font-family="Arial" font-size="14.00" fill="#000000">table_name    </text>
<text text-anchor="start" x="874.3408" y="-308.9" font-family="Arial" font-size="14.00" fill="#666666">[name]</text>
<polygon fill="none" stroke="#000000" points="760,-267.5 760,-297.5 1128,-297.5 1128,-267.5 760,-267.5"/>
<text text-anchor="start" x="767" y="-278.9" font-family="Arial" font-size="14.00" fill="#000000">compressed_chunk_id    </text>
<text text-anchor="start" x="941.2412" y="-278.9" font-family="Arial" font-size="14.00" fill="#666666">[integer]</text>
<polygon fill="none" stroke="#000000" points="760,-237.5 760,-267.5 1128,-267.5 1128,-237.5 760,-237.5"/>
<text text-anchor="start" x="767" y="-248.9" font-family="Arial" font-size="14.00" fill="#000000">dropped    </text>
<text text-anchor="start" x="852.561" y="-248.9" font-family="Arial" font-size="14.00" fill="#666666">[boolean]</text>
<polygon fill="none" stroke="#000000" points="760,-207.5 760,-237.5 1128,-237.5 1128,-207.5 760,-207.5"/>
<text text-anchor="start" x="767" y="-218.9" font-family="Arial" font-size="14.00" fill="#000000">status    </text>
<text text-anchor="start" x="838.5512" y="-218.9" font-family="Arial" font-size="14.00" fill="#666666">[integer]</text>
<polygon fill="none" stroke="#000000" points="760,-177.5 760,-207.5 1128,-207.5 1128,-177.5 760,-177.5"/>
<text text-anchor="start" x="767" y="-188.9" font-family="Arial" font-size="14.00" fill="#000000">osm_chunk    </text>
<text text-anchor="start" x="872.7784" y="-188.9" font-family="Arial" font-size="14.00" fill="#666666">[boolean]</text>
</g>
<!-- _timescaledb_internal.bgw_policy_chunk_stats&#45;&gt;_timescaledb_catalog.chunk -->
<g id="edge2" class="edge">
<title>_timescaledb_internal.bgw_policy_chunk_stats:chunk_id&#45;&gt;_timescaledb_catalog.chunk:id</title>
<path fill="none" stroke="#000000" d="M974.0764,-786.4658C1013.2497,-777.4954 985.0536,-712.1197 964,-667 913.9743,-559.7905 810.0257,-603.2095 760,-496 742.4283,-458.3423 718.4444,-402.5 760,-402.5"/>
<polygon fill="#000000" stroke="#000000" points="973.9477,-786.4789 963.5405,-783.0235 968.9739,-786.9894 964,-787.5 964,-787.5 964,-787.5 968.9739,-786.9894 964.4595,-791.9765 973.9477,-786.4789 973.9477,-786.4789"/>
<text text-anchor="start" x="970.5875" y="-797.5" font-family="Arial" font-size="10.00" fill="#000000">FOREIGN KEY (chunk_id) REFERENCES _timescaledb_catalog.chunk(id) ON DELETE CASCADE</text>
</g>
</g>
</svg>
