<?xml version="1.0" encoding="UTF-8" standalone="no"?>
<!DOCTYPE svg PUBLIC "-//W3C//DTD SVG 1.1//EN"
 "http://www.w3.org/Graphics/SVG/1.1/DTD/svg11.dtd">
<!-- Generated by graphviz version 2.40.1 (20161225.0304)
 -->
<!-- Title: _timescaledb_catalog.hypertable_compression Pages: 1 -->
<svg width="1519pt" height="862pt"
 viewBox="0.00 0.00 1519.00 862.00" xmlns="http://www.w3.org/2000/svg" xmlns:xlink="http://www.w3.org/1999/xlink">
<g id="graph0" class="graph" transform="scale(1 1) rotate(0) translate(4 858)">
<title>_timescaledb_catalog.hypertable_compression</title>
<polygon fill="#ffffff" stroke="transparent" points="-4,4 -4,-858 1515,-858 1515,4 -4,4"/>
<!-- _timescaledb_catalog.hypertable_compression -->
<g id="node1" class="node">
<title>_timescaledb_catalog.hypertable_compression</title>
<polygon fill="#efefef" stroke="transparent" points="496,-772.5 496,-807.5 1012,-807.5 1012,-772.5 496,-772.5"/>
<polygon fill="none" stroke="#000000" points="496,-772.5 496,-807.5 1012,-807.5 1012,-772.5 496,-772.5"/>
<text text-anchor="start" x="502.6704" y="-785.3" font-family="Arial Bold" font-size="18.00" fill="#000000">_timescaledb_catalog.hypertable_compression</text>
<text text-anchor="start" x="877.7616" y="-785.3" font-family="Arial" font-size="14.00" fill="#000000">    </text>
<text text-anchor="start" x="911.9664" y="-785.3" font-family="Arial" font-size="14.00" fill="#666666">[BASE TABLE]</text>
<polygon fill="none" stroke="#000000" points="496,-742.5 496,-772.5 1012,-772.5 1012,-742.5 496,-742.5"/>
<text text-anchor="start" x="503" y="-753.9" font-family="Arial" font-size="14.00" fill="#000000">hypertable_id </text>
<text text-anchor="start" x="590.9158" y="-753.9" font-family="Arial" font-size="14.00" fill="#666666">[integer]</text>
<polygon fill="none" stroke="#000000" points="496,-712.5 496,-742.5 1012,-742.5 1012,-712.5 496,-712.5"/>
<text text-anchor="start" x="503" y="-723.9" font-family="Arial" font-size="14.00" fill="#000000">attname </text>
<text text-anchor="start" x="557.4628" y="-723.9" font-family="Arial" font-size="14.00" fill="#666666">[name]</text>
<polygon fill="none" stroke="#000000" points="496,-682.5 496,-712.5 1012,-712.5 1012,-682.5 496,-682.5"/>
<text text-anchor="start" x="503" y="-693.9" font-family="Arial" font-size="14.00" fill="#000000">compression_algorithm_id </text>
<text text-anchor="start" x="670.2412" y="-693.9" font-family="Arial" font-size="14.00" fill="#666666">[smallint]</text>
<polygon fill="none" stroke="#000000" points="496,-652.5 496,-682.5 1012,-682.5 1012,-652.5 496,-652.5"/>
<text text-anchor="start" x="503" y="-663.9" font-family="Arial" font-size="14.00" fill="#000000">segmentby_column_index </text>
<text text-anchor="start" x="669.4894" y="-663.9" font-family="Arial" font-size="14.00" fill="#666666">[smallint]</text>
<polygon fill="none" stroke="#000000" points="496,-622.5 496,-652.5 1012,-652.5 1012,-622.5 496,-622.5"/>
<text text-anchor="start" x="503" y="-633.9" font-family="Arial" font-size="14.00" fill="#000000">orderby_column_index </text>
<text text-anchor="start" x="648.4768" y="-633.9" font-family="Arial" font-size="14.00" fill="#666666">[smallint]</text>
<polygon fill="none" stroke="#000000" points="496,-592.5 496,-622.5 1012,-622.5 1012,-592.5 496,-592.5"/>
<text text-anchor="start" x="503" y="-603.9" font-family="Arial" font-size="14.00" fill="#000000">orderby_asc </text>
<text text-anchor="start" x="583.9074" y="-603.9" font-family="Arial" font-size="14.00" fill="#666666">[boolean]</text>
<polygon fill="none" stroke="#000000" points="496,-562.5 496,-592.5 1012,-592.5 1012,-562.5 496,-562.5"/>
<text text-anchor="start" x="503" y="-573.9" font-family="Arial" font-size="14.00" fill="#000000">orderby_nullsfirst </text>
<text text-anchor="start" x="613.4516" y="-573.9" font-family="Arial" font-size="14.00" fill="#666666">[boolean]</text>
<polygon fill="none" stroke="#000000" stroke-width="3" points="494.5,-561.5 494.5,-809.5 1013.5,-809.5 1013.5,-561.5 494.5,-561.5"/>
</g>
<!-- _timescaledb_catalog.hypertable -->
<g id="node2" class="node">
<title>_timescaledb_catalog.hypertable</title>
<polygon fill="#efefef" stroke="transparent" points="273,-402.5 273,-437.5 677,-437.5 677,-402.5 273,-402.5"/>
<polygon fill="none" stroke="#000000" points="273,-402.5 273,-437.5 677,-437.5 677,-402.5 273,-402.5"/>
<text text-anchor="start" x="279.6783" y="-415.3" font-family="Arial Bold" font-size="18.00" fill="#000000">_timescaledb_catalog.hypertable</text>
<text text-anchor="start" x="542.7537" y="-415.3" font-family="Arial" font-size="14.00" fill="#000000">    </text>
<text text-anchor="start" x="576.9585" y="-415.3" font-family="Arial" font-size="14.00" fill="#666666">[BASE TABLE]</text>
<polygon fill="none" stroke="#000000" points="273,-372.5 273,-402.5 677,-402.5 677,-372.5 273,-372.5"/>
<text text-anchor="start" x="280" y="-383.9" font-family="Arial" font-size="14.00" fill="#000000">id    </text>
<text text-anchor="start" x="325.094" y="-383.9" font-family="Arial" font-size="14.00" fill="#666666">[integer]</text>
<polygon fill="none" stroke="#000000" points="273,-342.5 273,-372.5 677,-372.5 677,-342.5 273,-342.5"/>
<text text-anchor="start" x="280" y="-353.9" font-family="Arial" font-size="14.00" fill="#000000">schema_name    </text>
<text text-anchor="start" x="406.0042" y="-353.9" font-family="Arial" font-size="14.00" fill="#666666">[name]</text>
<polygon fill="none" stroke="#000000" points="273,-312.5 273,-342.5 677,-342.5 677,-312.5 273,-312.5"/>
<text text-anchor="start" x="280" y="-323.9" font-family="Arial" font-size="14.00" fill="#000000">table_name    </text>
<text text-anchor="start" x="387.3408" y="-323.9" font-family="Arial" font-size="14.00" fill="#666666">[name]</text>
<polygon fill="none" stroke="#000000" points="273,-282.5 273,-312.5 677,-312.5 677,-282.5 273,-282.5"/>
<text text-anchor="start" x="280" y="-293.9" font-family="Arial" font-size="14.00" fill="#000000">associated_schema_name    </text>
<text text-anchor="start" x="480.697" y="-293.9" font-family="Arial" font-size="14.00" fill="#666666">[name]</text>
<polygon fill="none" stroke="#000000" points="273,-252.5 273,-282.5 677,-282.5 677,-252.5 273,-252.5"/>
<text text-anchor="start" x="280" y="-263.9" font-family="Arial" font-size="14.00" fill="#000000">associated_table_prefix    </text>
<text text-anchor="start" x="461.2482" y="-263.9" font-family="Arial" font-size="14.00" fill="#666666">[name]</text>
<polygon fill="none" stroke="#000000" points="273,-222.5 273,-252.5 677,-252.5 677,-222.5 273,-222.5"/>
<text text-anchor="start" x="280" y="-233.9" font-family="Arial" font-size="14.00" fill="#000000">num_dimensions    </text>
<text text-anchor="start" x="420" y="-233.9" font-family="Arial" font-size="14.00" fill="#666666">[smallint]</text>
<polygon fill="none" stroke="#000000" points="273,-192.5 273,-222.5 677,-222.5 677,-192.5 273,-192.5"/>
<text text-anchor="start" x="280" y="-203.9" font-family="Arial" font-size="14.00" fill="#000000">chunk_sizing_func_schema    </text>
<text text-anchor="start" x="486.143" y="-203.9" font-family="Arial" font-size="14.00" fill="#666666">[name]</text>
<polygon fill="none" stroke="#000000" points="273,-162.5 273,-192.5 677,-192.5 677,-162.5 273,-162.5"/>
<text text-anchor="start" x="280" y="-173.9" font-family="Arial" font-size="14.00" fill="#000000">chunk_sizing_func_name    </text>
<text text-anchor="start" x="472.143" y="-173.9" font-family="Arial" font-size="14.00" fill="#666666">[name]</text>
<polygon fill="none" stroke="#000000" points="273,-132.5 273,-162.5 677,-162.5 677,-132.5 273,-132.5"/>
<text text-anchor="start" x="280" y="-143.9" font-family="Arial" font-size="14.00" fill="#000000">chunk_target_size    </text>
<text text-anchor="start" x="427.7966" y="-143.9" font-family="Arial" font-size="14.00" fill="#666666">[bigint]</text>
<polygon fill="none" stroke="#000000" points="273,-102.5 273,-132.5 677,-132.5 677,-102.5 273,-102.5"/>
<text text-anchor="start" x="280" y="-113.9" font-family="Arial" font-size="14.00" fill="#000000">compression_state    </text>
<text text-anchor="start" x="431.6746" y="-113.9" font-family="Arial" font-size="14.00" fill="#666666">[smallint]</text>
<polygon fill="none" stroke="#000000" points="273,-72.5 273,-102.5 677,-102.5 677,-72.5 273,-72.5"/>
<text text-anchor="start" x="280" y="-83.9" font-family="Arial" font-size="14.00" fill="#000000">compressed_hypertable_id    </text>
<text text-anchor="start" x="482.2468" y="-83.9" font-family="Arial" font-size="14.00" fill="#666666">[integer]</text>
<polygon fill="none" stroke="#000000" points="273,-42.5 273,-72.5 677,-72.5 677,-42.5 273,-42.5"/>
<text text-anchor="start" x="280" y="-53.9" font-family="Arial" font-size="14.00" fill="#000000">replication_factor    </text>
<text text-anchor="start" x="420.7784" y="-53.9" font-family="Arial" font-size="14.00" fill="#666666">[smallint]</text>
</g>
<!-- _timescaledb_catalog.hypertable_compression&#45;&gt;_timescaledb_catalog.hypertable -->
<g id="edge1" class="edge">
<title>_timescaledb_catalog.hypertable_compression:hypertable_id&#45;&gt;_timescaledb_catalog.hypertable:id</title>
<path fill="none" stroke="#000000" d="M485.8313,-756.9864C391.7378,-747.0991 430.4412,-596.8822 496,-517 548.0336,-453.598 624.9664,-544.402 677,-481 703.3628,-448.8773 718.5556,-387.5 677,-387.5"/>
<polygon fill="#000000" stroke="#000000" points="486.0127,-756.9955 495.773,-761.9943 491.0064,-757.2477 496,-757.5 496,-757.5 496,-757.5 491.0064,-757.2477 496.227,-753.0057 486.0127,-756.9955 486.0127,-756.9955"/>
<text text-anchor="start" x="6.5835" y="-767.5" font-family="Arial" font-size="10.00" fill="#000000">FOREIGN KEY (hypertable_id) REFERENCES _timescaledb_catalog.hypertable(id) ON DELETE CASCADE</text>
</g>
<!-- _timescaledb_catalog.compression_algorithm -->
<g id="node3" class="node">
<title>_timescaledb_catalog.compression_algorithm</title>
<polygon fill="#efefef" stroke="transparent" points="781,-282.5 781,-317.5 1287,-317.5 1287,-282.5 781,-282.5"/>
<polygon fill="none" stroke="#000000" points="781,-282.5 781,-317.5 1287,-317.5 1287,-282.5 781,-282.5"/>
<text text-anchor="start" x="787.6834" y="-295.3" font-family="Arial Bold" font-size="18.00" fill="#000000">_timescaledb_catalog.compression_algorithm</text>
<text text-anchor="start" x="1152.7486" y="-295.3" font-family="Arial" font-size="14.00" fill="#000000">    </text>
<text text-anchor="start" x="1186.9534" y="-295.3" font-family="Arial" font-size="14.00" fill="#666666">[BASE TABLE]</text>
<polygon fill="none" stroke="#000000" points="781,-252.5 781,-282.5 1287,-282.5 1287,-252.5 781,-252.5"/>
<text text-anchor="start" x="788" y="-263.9" font-family="Arial" font-size="14.00" fill="#000000">id    </text>
<text text-anchor="start" x="833.094" y="-263.9" font-family="Arial" font-size="14.00" fill="#666666">[smallint]</text>
<polygon fill="none" stroke="#000000" points="781,-222.5 781,-252.5 1287,-252.5 1287,-222.5 781,-222.5"/>
<text text-anchor="start" x="788" y="-233.9" font-family="Arial" font-size="14.00" fill="#000000">version    </text>
<text text-anchor="start" x="867.3198" y="-233.9" font-family="Arial" font-size="14.00" fill="#666666">[smallint]</text>
<polygon fill="none" stroke="#000000" points="781,-192.5 781,-222.5 1287,-222.5 1287,-192.5 781,-192.5"/>
<text text-anchor="start" x="788" y="-203.9" font-family="Arial" font-size="14.00" fill="#000000">name    </text>
<text text-anchor="start" x="857.2132" y="-203.9" font-family="Arial" font-size="14.00" fill="#666666">[name]</text>
<polygon fill="none" stroke="#000000" points="781,-162.5 781,-192.5 1287,-192.5 1287,-162.5 781,-162.5"/>
<text text-anchor="start" x="788" y="-173.9" font-family="Arial" font-size="14.00" fill="#000000">description    </text>
<text text-anchor="start" x="889.8822" y="-173.9" font-family="Arial" font-size="14.00" fill="#666666">[text]</text>
</g>
<!-- _timescaledb_catalog.hypertable_compression&#45;&gt;_timescaledb_catalog.compression_algorithm -->
<g id="edge2" class="edge">
<title>_timescaledb_catalog.hypertable_compression:compression_algorithm_id&#45;&gt;_timescaledb_catalog.compression_algorithm:id</title>
<path fill="none" stroke="#000000" d="M1022.0793,-696.8496C1088.4066,-687.7263 1047.9512,-584.6602 1012,-517 953.8701,-407.5995 839.1299,-470.4005 781,-361 761.5011,-324.3032 739.4444,-267.5 781,-267.5"/>
<polygon fill="#000000" stroke="#000000" points="1021.9792,-696.856 1011.7102,-693.0093 1016.9896,-697.178 1012,-697.5 1012,-697.5 1012,-697.5 1016.9896,-697.178 1012.2898,-701.9907 1021.9792,-696.856 1021.9792,-696.856"/>
<text text-anchor="start" x="1019.2035" y="-707.5" font-family="Arial" font-size="10.00" fill="#000000">FOREIGN KEY (compression_algorithm_id) REFERENCES _timescaledb_catalog.compression_algorithm(id)</text>
</g>
</g>
</svg>
