<?xml version="1.0" encoding="UTF-8" standalone="no"?>
<!DOCTYPE svg PUBLIC "-//W3C//DTD SVG 1.1//EN"
 "http://www.w3.org/Graphics/SVG/1.1/DTD/svg11.dtd">
<!-- Generated by graphviz version 2.40.1 (20161225.0304)
 -->
<!-- Title: _timescaledb_catalog.chunk_index Pages: 1 -->
<svg width="1381pt" height="772pt"
 viewBox="0.00 0.00 1381.00 772.00" xmlns="http://www.w3.org/2000/svg" xmlns:xlink="http://www.w3.org/1999/xlink">
<g id="graph0" class="graph" transform="scale(1 1) rotate(0) translate(4 768)">
<title>_timescaledb_catalog.chunk_index</title>
<polygon fill="#ffffff" stroke="transparent" points="-4,4 -4,-768 1377,-768 1377,4 -4,4"/>
<!-- _timescaledb_catalog.chunk_index -->
<g id="node1" class="node">
<title>_timescaledb_catalog.chunk_index</title>
<polygon fill="#efefef" stroke="transparent" points="456,-682.5 456,-717.5 877,-717.5 877,-682.5 456,-682.5"/>
<polygon fill="none" stroke="#000000" points="456,-682.5 456,-717.5 877,-717.5 877,-682.5 456,-682.5"/>
<text text-anchor="start" x="462.6724" y="-695.3" font-family="Arial Bold" font-size="18.00" fill="#000000">_timescaledb_catalog.chunk_index</text>
<text text-anchor="start" x="742.7596" y="-695.3" font-family="Arial" font-size="14.00" fill="#000000">    </text>
<text text-anchor="start" x="776.9644" y="-695.3" font-family="Arial" font-size="14.00" fill="#666666">[BASE TABLE]</text>
<polygon fill="none" stroke="#000000" points="456,-652.5 456,-682.5 877,-682.5 877,-652.5 456,-652.5"/>
<text text-anchor="start" x="463" y="-663.9" font-family="Arial" font-size="14.00" fill="#000000">chunk_id </text>
<text text-anchor="start" x="522.9102" y="-663.9" font-family="Arial" font-size="14.00" fill="#666666">[integer]</text>
<polygon fill="none" stroke="#000000" points="456,-622.5 456,-652.5 877,-652.5 877,-622.5 456,-622.5"/>
<text text-anchor="start" x="463" y="-633.9" font-family="Arial" font-size="14.00" fill="#000000">index_name </text>
<text text-anchor="start" x="543.136" y="-633.9" font-family="Arial" font-size="14.00" fill="#666666">[name]</text>
<polygon fill="none" stroke="#000000" points="456,-592.5 456,-622.5 877,-622.5 877,-592.5 456,-592.5"/>
<text text-anchor="start" x="463" y="-603.9" font-family="Arial" font-size="14.00" fill="#000000">hypertable_id </text>
<text text-anchor="start" x="550.9158" y="-603.9" font-family="Arial" font-size="14.00" fill="#666666">[integer]</text>
<polygon fill="none" stroke="#000000" points="456,-562.5 456,-592.5 877,-592.5 877,-562.5 456,-562.5"/>
<text text-anchor="start" x="463" y="-573.9" font-family="Arial" font-size="14.00" fill="#000000">hypertable_index_name </text>
<text text-anchor="start" x="616.272" y="-573.9" font-family="Arial" font-size="14.00" fill="#666666">[name]</text>
<polygon fill="none" stroke="#000000" stroke-width="3" points="454,-561.5 454,-719.5 878,-719.5 878,-561.5 454,-561.5"/>
</g>
<!-- _timescaledb_catalog.chunk -->
<g id="node2" class="node">
<title>_timescaledb_catalog.chunk</title>
<polygon fill="#efefef" stroke="transparent" points="238,-342.5 238,-377.5 606,-377.5 606,-342.5 238,-342.5"/>
<polygon fill="none" stroke="#000000" points="238,-342.5 238,-377.5 606,-377.5 606,-342.5 238,-342.5"/>
<text text-anchor="start" x="244.6819" y="-355.3" font-family="Arial Bold" font-size="18.00" fill="#000000">_timescaledb_catalog.chunk</text>
<text text-anchor="start" x="471.7501" y="-355.3" font-family="Arial" font-size="14.00" fill="#000000">    </text>
<text text-anchor="start" x="505.9549" y="-355.3" font-family="Arial" font-size="14.00" fill="#666666">[BASE TABLE]</text>
<polygon fill="none" stroke="#000000" points="238,-312.5 238,-342.5 606,-342.5 606,-312.5 238,-312.5"/>
<text text-anchor="start" x="245" y="-323.9" font-family="Arial" font-size="14.00" fill="#000000">id    </text>
<text text-anchor="start" x="290.094" y="-323.9" font-family="Arial" font-size="14.00" fill="#666666">[integer]</text>
<polygon fill="none" stroke="#000000" points="238,-282.5 238,-312.5 606,-312.5 606,-282.5 238,-282.5"/>
<text text-anchor="start" x="245" y="-293.9" font-family="Arial" font-size="14.00" fill="#000000">hypertable_id    </text>
<text text-anchor="start" x="363.23" y="-293.9" font-family="Arial" font-size="14.00" fill="#666666">[integer]</text>
<polygon fill="none" stroke="#000000" points="238,-252.5 238,-282.5 606,-282.5 606,-252.5 238,-252.5"/>
<text text-anchor="start" x="245" y="-263.9" font-family="Arial" font-size="14.00" fill="#000000">schema_name    </text>
<text text-anchor="start" x="371.0042" y="-263.9" font-family="Arial" font-size="14.00" fill="#666666">[name]</text>
<polygon fill="none" stroke="#000000" points="238,-222.5 238,-252.5 606,-252.5 606,-222.5 238,-222.5"/>
<text text-anchor="start" x="245" y="-233.9" font-family="Arial" font-size="14.00" fill="#000000">table_name    </text>
<text text-anchor="start" x="352.3408" y="-233.9" font-family="Arial" font-size="14.00" fill="#666666">[name]</text>
<polygon fill="none" stroke="#000000" points="238,-192.5 238,-222.5 606,-222.5 606,-192.5 238,-192.5"/>
<text text-anchor="start" x="245" y="-203.9" font-family="Arial" font-size="14.00" fill="#000000">compressed_chunk_id    </text>
<text text-anchor="start" x="419.2412" y="-203.9" font-family="Arial" font-size="14.00" fill="#666666">[integer]</text>
<polygon fill="none" stroke="#000000" points="238,-162.5 238,-192.5 606,-192.5 606,-162.5 238,-162.5"/>
<text text-anchor="start" x="245" y="-173.9" font-family="Arial" font-size="14.00" fill="#000000">dropped    </text>
<text text-anchor="start" x="330.561" y="-173.9" font-family="Arial" font-size="14.00" fill="#666666">[boolean]</text>
<polygon fill="none" stroke="#000000" points="238,-132.5 238,-162.5 606,-162.5 606,-132.5 238,-132.5"/>
<text text-anchor="start" x="245" y="-143.9" font-family="Arial" font-size="14.00" fill="#000000">status    </text>
<text text-anchor="start" x="316.5512" y="-143.9" font-family="Arial" font-size="14.00" fill="#666666">[integer]</text>
<polygon fill="none" stroke="#000000" points="238,-102.5 238,-132.5 606,-132.5 606,-102.5 238,-102.5"/>
<text text-anchor="start" x="245" y="-113.9" font-family="Arial" font-size="14.00" fill="#000000">osm_chunk    </text>
<text text-anchor="start" x="350.7784" y="-113.9" font-family="Arial" font-size="14.00" fill="#666666">[boolean]</text>
</g>
<!-- _timescaledb_catalog.chunk_index&#45;&gt;_timescaledb_catalog.chunk -->
<g id="edge1" class="edge">
<title>_timescaledb_catalog.chunk_index:chunk_id&#45;&gt;_timescaledb_catalog.chunk:id</title>
<path fill="none" stroke="#000000" d="M445.9211,-666.6966C392.9069,-657.556 425.6443,-572.4678 456,-517 493.9985,-447.5666 568.0015,-490.4334 606,-421 625.9498,-384.5464 647.5556,-327.5 606,-327.5"/>
<polygon fill="#000000" stroke="#000000" points="446.0316,-666.7053 455.6424,-671.9858 451.0158,-667.1027 456,-667.5 456,-667.5 456,-667.5 451.0158,-667.1027 456.3576,-663.0142 446.0316,-666.7053 446.0316,-666.7053"/>
<text text-anchor="start" x="6.5875" y="-677.5" font-family="Arial" font-size="10.00" fill="#000000">FOREIGN KEY (chunk_id) REFERENCES _timescaledb_catalog.chunk(id) ON DELETE CASCADE</text>
</g>
<!-- _timescaledb_catalog.hypertable -->
<g id="node3" class="node">
<title>_timescaledb_catalog.hypertable</title>
<polygon fill="#efefef" stroke="transparent" points="710,-402.5 710,-437.5 1114,-437.5 1114,-402.5 710,-402.5"/>
<polygon fill="none" stroke="#000000" points="710,-402.5 710,-437.5 1114,-437.5 1114,-402.5 710,-402.5"/>
<text text-anchor="start" x="716.6783" y="-415.3" font-family="Arial Bold" font-size="18.00" fill="#000000">_timescaledb_catalog.hypertable</text>
<text text-anchor="start" x="979.7537" y="-415.3" font-family="Arial" font-size="14.00" fill="#000000">    </text>
<text text-anchor="start" x="1013.9585" y="-415.3" font-family="Arial" font-size="14.00" fill="#666666">[BASE TABLE]</text>
<polygon fill="none" stroke="#000000" points="710,-372.5 710,-402.5 1114,-402.5 1114,-372.5 710,-372.5"/>
<text text-anchor="start" x="717" y="-383.9" font-family="Arial" font-size="14.00" fill="#000000">id    </text>
<text text-anchor="start" x="762.094" y="-383.9" font-family="Arial" font-size="14.00" fill="#666666">[integer]</text>
<polygon fill="none" stroke="#000000" points="710,-342.5 710,-372.5 1114,-372.5 1114,-342.5 710,-342.5"/>
<text text-anchor="start" x="717" y="-353.9" font-family="Arial" font-size="14.00" fill="#000000">schema_name    </text>
<text text-anchor="start" x="843.0042" y="-353.9" font-family="Arial" font-size="14.00" fill="#666666">[name]</text>
<polygon fill="none" stroke="#000000" points="710,-312.5 710,-342.5 1114,-342.5 1114,-312.5 710,-312.5"/>
<text text-anchor="start" x="717" y="-323.9" font-family="Arial" font-size="14.00" fill="#000000">table_name    </text>
<text text-anchor="start" x="824.3408" y="-323.9" font-family="Arial" font-size="14.00" fill="#666666">[name]</text>
<polygon fill="none" stroke="#000000" points="710,-282.5 710,-312.5 1114,-312.5 1114,-282.5 710,-282.5"/>
<text text-anchor="start" x="717" y="-293.9" font-family="Arial" font-size="14.00" fill="#000000">associated_schema_name    </text>
<text text-anchor="start" x="917.697" y="-293.9" font-family="Arial" font-size="14.00" fill="#666666">[name]</text>
<polygon fill="none" stroke="#000000" points="710,-252.5 710,-282.5 1114,-282.5 1114,-252.5 710,-252.5"/>
<text text-anchor="start" x="717" y="-263.9" font-family="Arial" font-size="14.00" fill="#000000">associated_table_prefix    </text>
<text text-anchor="start" x="898.2482" y="-263.9" font-family="Arial" font-size="14.00" fill="#666666">[name]</text>
<polygon fill="none" stroke="#000000" points="710,-222.5 710,-252.5 1114,-252.5 1114,-222.5 710,-222.5"/>
<text text-anchor="start" x="717" y="-233.9" font-family="Arial" font-size="14.00" fill="#000000">num_dimensions    </text>
<text text-anchor="start" x="857" y="-233.9" font-family="Arial" font-size="14.00" fill="#666666">[smallint]</text>
<polygon fill="none" stroke="#000000" points="710,-192.5 710,-222.5 1114,-222.5 1114,-192.5 710,-192.5"/>
<text text-anchor="start" x="717" y="-203.9" font-family="Arial" font-size="14.00" fill="#000000">chunk_sizing_func_schema    </text>
<text text-anchor="start" x="923.143" y="-203.9" font-family="Arial" font-size="14.00" fill="#666666">[name]</text>
<polygon fill="none" stroke="#000000" points="710,-162.5 710,-192.5 1114,-192.5 1114,-162.5 710,-162.5"/>
<text text-anchor="start" x="717" y="-173.9" font-family="Arial" font-size="14.00" fill="#000000">chunk_sizing_func_name    </text>
<text text-anchor="start" x="909.143" y="-173.9" font-family="Arial" font-size="14.00" fill="#666666">[name]</text>
<polygon fill="none" stroke="#000000" points="710,-132.5 710,-162.5 1114,-162.5 1114,-132.5 710,-132.5"/>
<text text-anchor="start" x="717" y="-143.9" font-family="Arial" font-size="14.00" fill="#000000">chunk_target_size    </text>
<text text-anchor="start" x="864.7966" y="-143.9" font-family="Arial" font-size="14.00" fill="#666666">[bigint]</text>
<polygon fill="none" stroke="#000000" points="710,-102.5 710,-132.5 1114,-132.5 1114,-102.5 710,-102.5"/>
<text text-anchor="start" x="717" y="-113.9" font-family="Arial" font-size="14.00" fill="#000000">compression_state    </text>
<text text-anchor="start" x="868.6746" y="-113.9" font-family="Arial" font-size="14.00" fill="#666666">[smallint]</text>
<polygon fill="none" stroke="#000000" points="710,-72.5 710,-102.5 1114,-102.5 1114,-72.5 710,-72.5"/>
<text text-anchor="start" x="717" y="-83.9" font-family="Arial" font-size="14.00" fill="#000000">compressed_hypertable_id    </text>
<text text-anchor="start" x="919.2468" y="-83.9" font-family="Arial" font-size="14.00" fill="#666666">[integer]</text>
<polygon fill="none" stroke="#000000" points="710,-42.5 710,-72.5 1114,-72.5 1114,-42.5 710,-42.5"/>
<text text-anchor="start" x="717" y="-53.9" font-family="Arial" font-size="14.00" fill="#000000">replication_factor    </text>
<text text-anchor="start" x="857.7784" y="-53.9" font-family="Arial" font-size="14.00" fill="#666666">[smallint]</text>
</g>
<!-- _timescaledb_catalog.chunk_index&#45;&gt;_timescaledb_catalog.hypertable -->
<g id="edge2" class="edge">
<title>_timescaledb_catalog.chunk_index:hypertable_id&#45;&gt;_timescaledb_catalog.hypertable:id</title>
<path fill="none" stroke="#000000" d="M886.8946,-606.0107C914.3276,-596.6444 899.8988,-545.3611 877,-517 829.3025,-457.9247 757.6975,-540.0753 710,-481 683.8948,-448.6676 668.4444,-387.5 710,-387.5"/>
<polygon fill="#000000" stroke="#000000" points="886.8886,-606.0115 876.3302,-603.0501 881.9443,-606.7558 877,-607.5 877,-607.5 877,-607.5 881.9443,-606.7558 877.6698,-611.9499 886.8886,-606.0115 886.8886,-606.0115"/>
<text text-anchor="start" x="883.5835" y="-617.5" font-family="Arial" font-size="10.00" fill="#000000">FOREIGN KEY (hypertable_id) REFERENCES _timescaledb_catalog.hypertable(id) ON DELETE CASCADE</text>
</g>
</g>
</svg>
