<?xml version="1.0" encoding="UTF-8" standalone="no"?>
<!DOCTYPE svg PUBLIC "-//W3C//DTD SVG 1.1//EN"
 "http://www.w3.org/Graphics/SVG/1.1/DTD/svg11.dtd">
<!-- Generated by graphviz version 2.40.1 (20161225.0304)
 -->
<!-- Title: _timescaledb_internal.bgw_job_stat Pages: 1 -->
<svg width="929pt" height="1252pt"
 viewBox="0.00 0.00 928.50 1252.00" xmlns="http://www.w3.org/2000/svg" xmlns:xlink="http://www.w3.org/1999/xlink">
<g id="graph0" class="graph" transform="scale(1 1) rotate(0) translate(4 1248)">
<title>_timescaledb_internal.bgw_job_stat</title>
<polygon fill="#ffffff" stroke="transparent" points="-4,4 -4,-1248 924.5,-1248 924.5,4 -4,4"/>
<!-- _timescaledb_internal.bgw_job_stat -->
<g id="node1" class="node">
<title>_timescaledb_internal.bgw_job_stat</title>
<polygon fill="#efefef" stroke="transparent" points="448,-1162.5 448,-1197.5 875,-1197.5 875,-1162.5 448,-1162.5"/>
<polygon fill="none" stroke="#000000" points="448,-1162.5 448,-1197.5 875,-1197.5 875,-1162.5 448,-1162.5"/>
<text text-anchor="start" x="454.6799" y="-1175.3" font-family="Arial Bold" font-size="18.00" fill="#000000">_timescaledb_internal.bgw_job_stat</text>
<text text-anchor="start" x="740.7521" y="-1175.3" font-family="Arial" font-size="14.00" fill="#000000">    </text>
<text text-anchor="start" x="774.9569" y="-1175.3" font-family="Arial" font-size="14.00" fill="#666666">[BASE TABLE]</text>
<polygon fill="none" stroke="#000000" points="448,-1132.5 448,-1162.5 875,-1162.5 875,-1132.5 448,-1132.5"/>
<text text-anchor="start" x="455" y="-1143.9" font-family="Arial" font-size="14.00" fill="#000000">job_id </text>
<text text-anchor="start" x="496.2342" y="-1143.9" font-family="Arial" font-size="14.00" fill="#666666">[integer]</text>
<polygon fill="none" stroke="#000000" points="448,-1102.5 448,-1132.5 875,-1132.5 875,-1102.5 448,-1102.5"/>
<text text-anchor="start" x="455" y="-1113.9" font-family="Arial" font-size="14.00" fill="#000000">last_start </text>
<text text-anchor="start" x="515.6774" y="-1113.9" font-family="Arial" font-size="14.00" fill="#666666">[timestamp with time zone]</text>
<polygon fill="none" stroke="#000000" points="448,-1072.5 448,-1102.5 875,-1102.5 875,-1072.5 448,-1072.5"/>
<text text-anchor="start" x="455" y="-1083.9" font-family="Arial" font-size="14.00" fill="#000000">last_finish </text>
<text text-anchor="start" x="521.122" y="-1083.9" font-family="Arial" font-size="14.00" fill="#666666">[timestamp with time zone]</text>
<polygon fill="none" stroke="#000000" points="448,-1042.5 448,-1072.5 875,-1072.5 875,-1042.5 448,-1042.5"/>
<text text-anchor="start" x="455" y="-1053.9" font-family="Arial" font-size="14.00" fill="#000000">next_start </text>
<text text-anchor="start" x="520.3534" y="-1053.9" font-family="Arial" font-size="14.00" fill="#666666">[timestamp with time zone]</text>
<polygon fill="none" stroke="#000000" points="448,-1012.5 448,-1042.5 875,-1042.5 875,-1012.5 448,-1012.5"/>
<text text-anchor="start" x="455" y="-1023.9" font-family="Arial" font-size="14.00" fill="#000000">last_successful_finish </text>
<text text-anchor="start" x="594.2496" y="-1023.9" font-family="Arial" font-size="14.00" fill="#666666">[timestamp with time zone]</text>
<polygon fill="none" stroke="#000000" points="448,-982.5 448,-1012.5 875,-1012.5 875,-982.5 448,-982.5"/>
<text text-anchor="start" x="455" y="-993.9" font-family="Arial" font-size="14.00" fill="#000000">last_run_success </text>
<text text-anchor="start" x="567.0266" y="-993.9" font-family="Arial" font-size="14.00" fill="#666666">[boolean]</text>
<polygon fill="none" stroke="#000000" points="448,-952.5 448,-982.5 875,-982.5 875,-952.5 448,-952.5"/>
<text text-anchor="start" x="455" y="-963.9" font-family="Arial" font-size="14.00" fill="#000000">total_runs </text>
<text text-anchor="start" x="520.352" y="-963.9" font-family="Arial" font-size="14.00" fill="#666666">[bigint]</text>
<polygon fill="none" stroke="#000000" points="448,-922.5 448,-952.5 875,-952.5 875,-922.5 448,-922.5"/>
<text text-anchor="start" x="455" y="-933.9" font-family="Arial" font-size="14.00" fill="#000000">total_duration </text>
<text text-anchor="start" x="543.697" y="-933.9" font-family="Arial" font-size="14.00" fill="#666666">[interval]</text>
<polygon fill="none" stroke="#000000" points="448,-892.5 448,-922.5 875,-922.5 875,-892.5 448,-892.5"/>
<text text-anchor="start" x="455" y="-903.9" font-family="Arial" font-size="14.00" fill="#000000">total_duration_failures </text>
<text text-anchor="start" x="596.5918" y="-903.9" font-family="Arial" font-size="14.00" fill="#666666">[interval]</text>
<polygon fill="none" stroke="#000000" points="448,-862.5 448,-892.5 875,-892.5 875,-862.5 448,-862.5"/>
<text text-anchor="start" x="455" y="-873.9" font-family="Arial" font-size="14.00" fill="#000000">total_successes </text>
<text text-anchor="start" x="558.474" y="-873.9" font-family="Arial" font-size="14.00" fill="#666666">[bigint]</text>
<polygon fill="none" stroke="#000000" points="448,-832.5 448,-862.5 875,-862.5 875,-832.5 448,-832.5"/>
<text text-anchor="start" x="455" y="-843.9" font-family="Arial" font-size="14.00" fill="#000000">total_failures </text>
<text text-anchor="start" x="538.2384" y="-843.9" font-family="Arial" font-size="14.00" fill="#666666">[bigint]</text>
<polygon fill="none" stroke="#000000" points="448,-802.5 448,-832.5 875,-832.5 875,-802.5 448,-802.5"/>
<text text-anchor="start" x="455" y="-813.9" font-family="Arial" font-size="14.00" fill="#000000">total_crashes </text>
<text text-anchor="start" x="542.1346" y="-813.9" font-family="Arial" font-size="14.00" fill="#666666">[bigint]</text>
<polygon fill="none" stroke="#000000" points="448,-772.5 448,-802.5 875,-802.5 875,-772.5 448,-772.5"/>
<text text-anchor="start" x="455" y="-783.9" font-family="Arial" font-size="14.00" fill="#000000">consecutive_failures </text>
<text text-anchor="start" x="585.6956" y="-783.9" font-family="Arial" font-size="14.00" fill="#666666">[integer]</text>
<polygon fill="none" stroke="#000000" points="448,-742.5 448,-772.5 875,-772.5 875,-742.5 448,-742.5"/>
<text text-anchor="start" x="455" y="-753.9" font-family="Arial" font-size="14.00" fill="#000000">consecutive_crashes </text>
<text text-anchor="start" x="589.5918" y="-753.9" font-family="Arial" font-size="14.00" fill="#666666">[integer]</text>
<polygon fill="none" stroke="#000000" points="448,-712.5 448,-742.5 875,-742.5 875,-712.5 448,-712.5"/>
<text text-anchor="start" x="455" y="-723.9" font-family="Arial" font-size="14.00" fill="#000000">flags </text>
<text text-anchor="start" x="488.453" y="-723.9" font-family="Arial" font-size="14.00" fill="#666666">[integer]</text>
<polygon fill="none" stroke="#000000" stroke-width="3" points="446,-711.5 446,-1199.5 876,-1199.5 876,-711.5 446,-711.5"/>
</g>
<!-- _timescaledb_config.bgw_job -->
<g id="node2" class="node">
<title>_timescaledb_config.bgw_job</title>
<polygon fill="#efefef" stroke="transparent" points="473,-552.5 473,-587.5 850,-587.5 850,-552.5 473,-552.5"/>
<polygon fill="none" stroke="#000000" points="473,-552.5 473,-587.5 850,-587.5 850,-552.5 473,-552.5"/>
<text text-anchor="start" x="479.6846" y="-565.3" font-family="Arial Bold" font-size="18.00" fill="#000000">_timescaledb_config.bgw_job</text>
<text text-anchor="start" x="715.7474" y="-565.3" font-family="Arial" font-size="14.00" fill="#000000">    </text>
<text text-anchor="start" x="749.9522" y="-565.3" font-family="Arial" font-size="14.00" fill="#666666">[BASE TABLE]</text>
<polygon fill="none" stroke="#000000" points="473,-522.5 473,-552.5 850,-552.5 850,-522.5 473,-522.5"/>
<text text-anchor="start" x="480" y="-533.9" font-family="Arial" font-size="14.00" fill="#000000">id    </text>
<text text-anchor="start" x="525.094" y="-533.9" font-family="Arial" font-size="14.00" fill="#666666">[integer]</text>
<polygon fill="none" stroke="#000000" points="473,-492.5 473,-522.5 850,-522.5 850,-492.5 473,-492.5"/>
<text text-anchor="start" x="480" y="-503.9" font-family="Arial" font-size="14.00" fill="#000000">application_name    </text>
<text text-anchor="start" x="623.9018" y="-503.9" font-family="Arial" font-size="14.00" fill="#666666">[name]</text>
<polygon fill="none" stroke="#000000" points="473,-462.5 473,-492.5 850,-492.5 850,-462.5 473,-462.5"/>
<text text-anchor="start" x="480" y="-473.9" font-family="Arial" font-size="14.00" fill="#000000">schedule_interval    </text>
<text text-anchor="start" x="623.1192" y="-473.9" font-family="Arial" font-size="14.00" fill="#666666">[interval]</text>
<polygon fill="none" stroke="#000000" points="473,-432.5 473,-462.5 850,-462.5 850,-432.5 473,-432.5"/>
<text text-anchor="start" x="480" y="-443.9" font-family="Arial" font-size="14.00" fill="#000000">max_runtime    </text>
<text text-anchor="start" x="595.0968" y="-443.9" font-family="Arial" font-size="14.00" fill="#666666">[interval]</text>
<polygon fill="none" stroke="#000000" points="473,-402.5 473,-432.5 850,-432.5 850,-402.5 473,-402.5"/>
<text text-anchor="start" x="480" y="-413.9" font-family="Arial" font-size="14.00" fill="#000000">max_retries    </text>
<text text-anchor="start" x="587.3142" y="-413.9" font-family="Arial" font-size="14.00" fill="#666666">[integer]</text>
<polygon fill="none" stroke="#000000" points="473,-372.5 473,-402.5 850,-402.5 850,-372.5 473,-372.5"/>
<text text-anchor="start" x="480" y="-383.9" font-family="Arial" font-size="14.00" fill="#000000">retry_period    </text>
<text text-anchor="start" x="588.8794" y="-383.9" font-family="Arial" font-size="14.00" fill="#666666">[interval]</text>
<polygon fill="none" stroke="#000000" points="473,-342.5 473,-372.5 850,-372.5 850,-342.5 473,-342.5"/>
<text text-anchor="start" x="480" y="-353.9" font-family="Arial" font-size="14.00" fill="#000000">proc_schema    </text>
<text text-anchor="start" x="598.2216" y="-353.9" font-family="Arial" font-size="14.00" fill="#666666">[name]</text>
<polygon fill="none" stroke="#000000" points="473,-312.5 473,-342.5 850,-342.5 850,-312.5 473,-312.5"/>
<text text-anchor="start" x="480" y="-323.9" font-family="Arial" font-size="14.00" fill="#000000">proc_name    </text>
<text text-anchor="start" x="584.2216" y="-323.9" font-family="Arial" font-size="14.00" fill="#666666">[name]</text>
<polygon fill="none" stroke="#000000" points="473,-282.5 473,-312.5 850,-312.5 850,-282.5 473,-282.5"/>
<text text-anchor="start" x="480" y="-293.9" font-family="Arial" font-size="14.00" fill="#000000">owner    </text>
<text text-anchor="start" x="552.3198" y="-293.9" font-family="Arial" font-size="14.00" fill="#666666">[regrole]</text>
<polygon fill="none" stroke="#000000" points="473,-252.5 473,-282.5 850,-282.5 850,-252.5 473,-252.5"/>
<text text-anchor="start" x="480" y="-263.9" font-family="Arial" font-size="14.00" fill="#000000">scheduled    </text>
<text text-anchor="start" x="578.007" y="-263.9" font-family="Arial" font-size="14.00" fill="#666666">[boolean]</text>
<polygon fill="none" stroke="#000000" points="473,-222.5 473,-252.5 850,-252.5 850,-222.5 473,-222.5"/>
<text text-anchor="start" x="480" y="-233.9" font-family="Arial" font-size="14.00" fill="#000000">fixed_schedule    </text>
<text text-anchor="start" x="607.5694" y="-233.9" font-family="Arial" font-size="14.00" fill="#666666">[boolean]</text>
<polygon fill="none" stroke="#000000" points="473,-192.5 473,-222.5 850,-222.5 850,-192.5 473,-192.5"/>
<text text-anchor="start" x="480" y="-203.9" font-family="Arial" font-size="14.00" fill="#000000">initial_start    </text>
<text text-anchor="start" x="581.094" y="-203.9" font-family="Arial" font-size="14.00" fill="#666666">[timestamp with time zone]</text>
<polygon fill="none" stroke="#000000" points="473,-162.5 473,-192.5 850,-192.5 850,-162.5 473,-162.5"/>
<text text-anchor="start" x="480" y="-173.9" font-family="Arial" font-size="14.00" fill="#000000">hypertable_id    </text>
<text text-anchor="start" x="598.23" y="-173.9" font-family="Arial" font-size="14.00" fill="#666666">[integer]</text>
<polygon fill="none" stroke="#000000" points="473,-132.5 473,-162.5 850,-162.5 850,-132.5 473,-132.5"/>
<text text-anchor="start" x="480" y="-143.9" font-family="Arial" font-size="14.00" fill="#000000">config    </text>
<text text-anchor="start" x="551.5498" y="-143.9" font-family="Arial" font-size="14.00" fill="#666666">[jsonb]</text>
<polygon fill="none" stroke="#000000" points="473,-102.5 473,-132.5 850,-132.5 850,-102.5 473,-102.5"/>
<text text-anchor="start" x="480" y="-113.9" font-family="Arial" font-size="14.00" fill="#000000">check_schema    </text>
<text text-anchor="start" x="607.561" y="-113.9" font-family="Arial" font-size="14.00" fill="#666666">[name]</text>
<polygon fill="none" stroke="#000000" points="473,-72.5 473,-102.5 850,-102.5 850,-72.5 473,-72.5"/>
<text text-anchor="start" x="480" y="-83.9" font-family="Arial" font-size="14.00" fill="#000000">check_name    </text>
<text text-anchor="start" x="593.561" y="-83.9" font-family="Arial" font-size="14.00" fill="#666666">[name]</text>
<polygon fill="none" stroke="#000000" points="473,-42.5 473,-72.5 850,-72.5 850,-42.5 473,-42.5"/>
<text text-anchor="start" x="480" y="-53.9" font-family="Arial" font-size="14.00" fill="#000000">timezone    </text>
<text text-anchor="start" x="570.993" y="-53.9" font-family="Arial" font-size="14.00" fill="#666666">[text]</text>
</g>
<!-- _timescaledb_internal.bgw_job_stat&#45;&gt;_timescaledb_config.bgw_job -->
<g id="edge1" class="edge">
<title>_timescaledb_internal.bgw_job_stat:job_id&#45;&gt;_timescaledb_config.bgw_job:id</title>
<path fill="none" stroke="#000000" d="M438.7215,-1143.279C382.7089,-1089.384 408.4776,-537.5 473,-537.5"/>
<polygon fill="#000000" stroke="#000000" points="438.8976,-1143.3591 446.1366,-1151.5961 443.4488,-1145.4295 448,-1147.5 448,-1147.5 448,-1147.5 443.4488,-1145.4295 449.8634,-1143.4039 438.8976,-1143.3591 438.8976,-1143.3591"/>
<text text-anchor="start" x="6.759" y="-1157.5" font-family="Arial" font-size="10.00" fill="#000000">FOREIGN KEY (job_id) REFERENCES _timescaledb_config.bgw_job(id) ON DELETE CASCADE</text>
</g>
</g>
</svg>
