<?xml version="1.0" encoding="UTF-8" standalone="no"?>
<!DOCTYPE svg PUBLIC "-//W3C//DTD SVG 1.1//EN"
 "http://www.w3.org/Graphics/SVG/1.1/DTD/svg11.dtd">
<!-- Generated by graphviz version 2.40.1 (20161225.0304)
 -->
<!-- Title: _timescaledb_catalog.chunk_data_node Pages: 1 -->
<svg width="864pt" height="622pt"
 viewBox="0.00 0.00 863.50 622.00" xmlns="http://www.w3.org/2000/svg" xmlns:xlink="http://www.w3.org/1999/xlink">
<g id="graph0" class="graph" transform="scale(1 1) rotate(0) translate(4 618)">
<title>_timescaledb_catalog.chunk_data_node</title>
<polygon fill="#ffffff" stroke="transparent" points="-4,4 -4,-618 859.5,-618 859.5,4 -4,4"/>
<!-- _timescaledb_catalog.chunk_data_node -->
<g id="node1" class="node">
<title>_timescaledb_catalog.chunk_data_node</title>
<polygon fill="#efefef" stroke="transparent" points="46.5,-532.5 46.5,-567.5 509.5,-567.5 509.5,-532.5 46.5,-532.5"/>
<polygon fill="none" stroke="#000000" points="46.5,-532.5 46.5,-567.5 509.5,-567.5 509.5,-532.5 46.5,-532.5"/>
<text text-anchor="start" x="53.1529" y="-545.3" font-family="Arial Bold" font-size="18.00" fill="#000000">_timescaledb_catalog.chunk_data_node</text>
<text text-anchor="start" x="375.2791" y="-545.3" font-family="Arial" font-size="14.00" fill="#000000">    </text>
<text text-anchor="start" x="409.4839" y="-545.3" font-family="Arial" font-size="14.00" fill="#666666">[BASE TABLE]</text>
<polygon fill="none" stroke="#000000" points="46.5,-502.5 46.5,-532.5 509.5,-532.5 509.5,-502.5 46.5,-502.5"/>
<text text-anchor="start" x="53.5" y="-513.9" font-family="Arial" font-size="14.00" fill="#000000">chunk_id </text>
<text text-anchor="start" x="113.4102" y="-513.9" font-family="Arial" font-size="14.00" fill="#666666">[integer]</text>
<polygon fill="none" stroke="#000000" points="46.5,-472.5 46.5,-502.5 509.5,-502.5 509.5,-472.5 46.5,-472.5"/>
<text text-anchor="start" x="53.5" y="-483.9" font-family="Arial" font-size="14.00" fill="#000000">node_chunk_id </text>
<text text-anchor="start" x="152.3232" y="-483.9" font-family="Arial" font-size="14.00" fill="#666666">[integer]</text>
<polygon fill="none" stroke="#000000" points="46.5,-442.5 46.5,-472.5 509.5,-472.5 509.5,-442.5 46.5,-442.5"/>
<text text-anchor="start" x="53.5" y="-453.9" font-family="Arial" font-size="14.00" fill="#000000">node_name </text>
<text text-anchor="start" x="131.312" y="-453.9" font-family="Arial" font-size="14.00" fill="#666666">[name]</text>
<polygon fill="none" stroke="#000000" stroke-width="3" points="44.5,-441.5 44.5,-569.5 510.5,-569.5 510.5,-441.5 44.5,-441.5"/>
</g>
<!-- _timescaledb_catalog.chunk -->
<g id="node2" class="node">
<title>_timescaledb_catalog.chunk</title>
<polygon fill="#efefef" stroke="transparent" points="94.5,-282.5 94.5,-317.5 462.5,-317.5 462.5,-282.5 94.5,-282.5"/>
<polygon fill="none" stroke="#000000" points="94.5,-282.5 94.5,-317.5 462.5,-317.5 462.5,-282.5 94.5,-282.5"/>
<text text-anchor="start" x="101.1819" y="-295.3" font-family="Arial Bold" font-size="18.00" fill="#000000">_timescaledb_catalog.chunk</text>
<text text-anchor="start" x="328.2501" y="-295.3" font-family="Arial" font-size="14.00" fill="#000000">    </text>
<text text-anchor="start" x="362.4549" y="-295.3" font-family="Arial" font-size="14.00" fill="#666666">[BASE TABLE]</text>
<polygon fill="none" stroke="#000000" points="94.5,-252.5 94.5,-282.5 462.5,-282.5 462.5,-252.5 94.5,-252.5"/>
<text text-anchor="start" x="101.5" y="-263.9" font-family="Arial" font-size="14.00" fill="#000000">id    </text>
<text text-anchor="start" x="146.594" y="-263.9" font-family="Arial" font-size="14.00" fill="#666666">[integer]</text>
<polygon fill="none" stroke="#000000" points="94.5,-222.5 94.5,-252.5 462.5,-252.5 462.5,-222.5 94.5,-222.5"/>
<text text-anchor="start" x="101.5" y="-233.9" font-family="Arial" font-size="14.00" fill="#000000">hypertable_id    </text>
<text text-anchor="start" x="219.73" y="-233.9" font-family="Arial" font-size="14.00" fill="#666666">[integer]</text>
<polygon fill="none" stroke="#000000" points="94.5,-192.5 94.5,-222.5 462.5,-222.5 462.5,-192.5 94.5,-192.5"/>
<text text-anchor="start" x="101.5" y="-203.9" font-family="Arial" font-size="14.00" fill="#000000">schema_name    </text>
<text text-anchor="start" x="227.5042" y="-203.9" font-family="Arial" font-size="14.00" fill="#666666">[name]</text>
<polygon fill="none" stroke="#000000" points="94.5,-162.5 94.5,-192.5 462.5,-192.5 462.5,-162.5 94.5,-162.5"/>
<text text-anchor="start" x="101.5" y="-173.9" font-family="Arial" font-size="14.00" fill="#000000">table_name    </text>
<text text-anchor="start" x="208.8408" y="-173.9" font-family="Arial" font-size="14.00" fill="#666666">[name]</text>
<polygon fill="none" stroke="#000000" points="94.5,-132.5 94.5,-162.5 462.5,-162.5 462.5,-132.5 94.5,-132.5"/>
<text text-anchor="start" x="101.5" y="-143.9" font-family="Arial" font-size="14.00" fill="#000000">compressed_chunk_id    </text>
<text text-anchor="start" x="275.7412" y="-143.9" font-family="Arial" font-size="14.00" fill="#666666">[integer]</text>
<polygon fill="none" stroke="#000000" points="94.5,-102.5 94.5,-132.5 462.5,-132.5 462.5,-102.5 94.5,-102.5"/>
<text text-anchor="start" x="101.5" y="-113.9" font-family="Arial" font-size="14.00" fill="#000000">dropped    </text>
<text text-anchor="start" x="187.061" y="-113.9" font-family="Arial" font-size="14.00" fill="#666666">[boolean]</text>
<polygon fill="none" stroke="#000000" points="94.5,-72.5 94.5,-102.5 462.5,-102.5 462.5,-72.5 94.5,-72.5"/>
<text text-anchor="start" x="101.5" y="-83.9" font-family="Arial" font-size="14.00" fill="#000000">status    </text>
<text text-anchor="start" x="173.0512" y="-83.9" font-family="Arial" font-size="14.00" fill="#666666">[integer]</text>
<polygon fill="none" stroke="#000000" points="94.5,-42.5 94.5,-72.5 462.5,-72.5 462.5,-42.5 94.5,-42.5"/>
<text text-anchor="start" x="101.5" y="-53.9" font-family="Arial" font-size="14.00" fill="#000000">osm_chunk    </text>
<text text-anchor="start" x="207.2784" y="-53.9" font-family="Arial" font-size="14.00" fill="#666666">[boolean]</text>
</g>
<!-- _timescaledb_catalog.chunk_data_node&#45;&gt;_timescaledb_catalog.chunk -->
<g id="edge1" class="edge">
<title>_timescaledb_catalog.chunk_data_node:chunk_id&#45;&gt;_timescaledb_catalog.chunk:id</title>
<path fill="none" stroke="#000000" d="M519.5056,-516.4032C560.5942,-506.6161 543.2218,-433.7737 509.5,-397 446.9365,-328.7743 157.0635,-429.2257 94.5,-361 66.4142,-330.3724 52.9444,-267.5 94.5,-267.5"/>
<polygon fill="#000000" stroke="#000000" points="519.4405,-516.4103 509.0096,-513.0268 514.4702,-516.9551 509.5,-517.5 509.5,-517.5 509.5,-517.5 514.4702,-516.9551 509.9904,-521.9732 519.4405,-516.4103 519.4405,-516.4103"/>
<text text-anchor="start" x="516.3685" y="-527.5" font-family="Arial" font-size="10.00" fill="#000000">FOREIGN KEY (chunk_id) REFERENCES _timescaledb_catalog.chunk(id)</text>
</g>
</g>
</svg>
