<?xml version="1.0" encoding="UTF-8" standalone="no"?>
<!DOCTYPE svg PUBLIC "-//W3C//DTD SVG 1.1//EN"
 "http://www.w3.org/Graphics/SVG/1.1/DTD/svg11.dtd">
<!-- Generated by graphviz version 2.40.1 (20161225.0304)
 -->
<!-- Title: _timescaledb_catalog.continuous_agg_migrate_plan_step Pages: 1 -->
<svg width="1339pt" height="592pt"
 viewBox="0.00 0.00 1338.50 592.00" xmlns="http://www.w3.org/2000/svg" xmlns:xlink="http://www.w3.org/1999/xlink">
<g id="graph0" class="graph" transform="scale(1 1) rotate(0) translate(4 588)">
<title>_timescaledb_catalog.continuous_agg_migrate_plan_step</title>
<polygon fill="#ffffff" stroke="transparent" points="-4,4 -4,-588 1334.5,-588 1334.5,4 -4,4"/>
<!-- _timescaledb_catalog.continuous_agg_migrate_plan_step -->
<g id="node1" class="node">
<title>_timescaledb_catalog.continuous_agg_migrate_plan_step</title>
<polygon fill="#efefef" stroke="transparent" points="680,-502.5 680,-537.5 1285,-537.5 1285,-502.5 680,-502.5"/>
<polygon fill="none" stroke="#000000" points="680,-502.5 680,-537.5 1285,-537.5 1285,-502.5 680,-502.5"/>
<text text-anchor="start" x="686.6393" y="-515.3" font-family="Arial Bold" font-size="18.00" fill="#000000">_timescaledb_catalog.continuous_agg_migrate_plan_step</text>
<text text-anchor="start" x="1150.7927" y="-515.3" font-family="Arial" font-size="14.00" fill="#000000">    </text>
<text text-anchor="start" x="1184.9975" y="-515.3" font-family="Arial" font-size="14.00" fill="#666666">[BASE TABLE]</text>
<polygon fill="none" stroke="#000000" points="680,-472.5 680,-502.5 1285,-502.5 1285,-472.5 680,-472.5"/>
<text text-anchor="start" x="687" y="-483.9" font-family="Arial" font-size="14.00" fill="#000000">mat_hypertable_id </text>
<text text-anchor="start" x="806.0322" y="-483.9" font-family="Arial" font-size="14.00" fill="#666666">[integer]</text>
<polygon fill="none" stroke="#000000" points="680,-442.5 680,-472.5 1285,-472.5 1285,-442.5 680,-442.5"/>
<text text-anchor="start" x="687" y="-453.9" font-family="Arial" font-size="14.00" fill="#000000">step_id </text>
<text text-anchor="start" x="736.0182" y="-453.9" font-family="Arial" font-size="14.00" fill="#666666">[integer]</text>
<polygon fill="none" stroke="#000000" points="680,-412.5 680,-442.5 1285,-442.5 1285,-412.5 680,-412.5"/>
<text text-anchor="start" x="687" y="-423.9" font-family="Arial" font-size="14.00" fill="#000000">status </text>
<text text-anchor="start" x="728.237" y="-423.9" font-family="Arial" font-size="14.00" fill="#666666">[text]</text>
<polygon fill="none" stroke="#000000" points="680,-382.5 680,-412.5 1285,-412.5 1285,-382.5 680,-382.5"/>
<text text-anchor="start" x="687" y="-393.9" font-family="Arial" font-size="14.00" fill="#000000">start_ts </text>
<text text-anchor="start" x="736.7882" y="-393.9" font-family="Arial" font-size="14.00" fill="#666666">[timestamp with time zone]</text>
<polygon fill="none" stroke="#000000" points="680,-352.5 680,-382.5 1285,-382.5 1285,-352.5 680,-352.5"/>
<text text-anchor="start" x="687" y="-363.9" font-family="Arial" font-size="14.00" fill="#000000">end_ts </text>
<text text-anchor="start" x="732.9116" y="-363.9" font-family="Arial" font-size="14.00" fill="#666666">[timestamp with time zone]</text>
<polygon fill="none" stroke="#000000" points="680,-322.5 680,-352.5 1285,-352.5 1285,-322.5 680,-322.5"/>
<text text-anchor="start" x="687" y="-333.9" font-family="Arial" font-size="14.00" fill="#000000">type </text>
<text text-anchor="start" x="717.3464" y="-333.9" font-family="Arial" font-size="14.00" fill="#666666">[text]</text>
<polygon fill="none" stroke="#000000" points="680,-292.5 680,-322.5 1285,-322.5 1285,-292.5 680,-292.5"/>
<text text-anchor="start" x="687" y="-303.9" font-family="Arial" font-size="14.00" fill="#000000">config </text>
<text text-anchor="start" x="728.2356" y="-303.9" font-family="Arial" font-size="14.00" fill="#666666">[jsonb]</text>
<polygon fill="none" stroke="#000000" stroke-width="3" points="678,-291.5 678,-539.5 1286,-539.5 1286,-291.5 678,-291.5"/>
</g>
<!-- _timescaledb_catalog.continuous_agg_migrate_plan -->
<g id="node2" class="node">
<title>_timescaledb_catalog.continuous_agg_migrate_plan</title>
<polygon fill="#efefef" stroke="transparent" points="702,-132.5 702,-167.5 1263,-167.5 1263,-132.5 702,-132.5"/>
<polygon fill="none" stroke="#000000" points="702,-132.5 702,-167.5 1263,-167.5 1263,-132.5 702,-132.5"/>
<text text-anchor="start" x="708.6497" y="-145.3" font-family="Arial Bold" font-size="18.00" fill="#000000">_timescaledb_catalog.continuous_agg_migrate_plan</text>
<text text-anchor="start" x="1128.7823" y="-145.3" font-family="Arial" font-size="14.00" fill="#000000">    </text>
<text text-anchor="start" x="1162.9871" y="-145.3" font-family="Arial" font-size="14.00" fill="#666666">[BASE TABLE]</text>
<polygon fill="none" stroke="#000000" points="702,-102.5 702,-132.5 1263,-132.5 1263,-102.5 702,-102.5"/>
<text text-anchor="start" x="709" y="-113.9" font-family="Arial" font-size="14.00" fill="#000000">mat_hypertable_id    </text>
<text text-anchor="start" x="858.3464" y="-113.9" font-family="Arial" font-size="14.00" fill="#666666">[integer]</text>
<polygon fill="none" stroke="#000000" points="702,-72.5 702,-102.5 1263,-102.5 1263,-72.5 702,-72.5"/>
<text text-anchor="start" x="709" y="-83.9" font-family="Arial" font-size="14.00" fill="#000000">start_ts    </text>
<text text-anchor="start" x="789.1024" y="-83.9" font-family="Arial" font-size="14.00" fill="#666666">[timestamp with time zone]</text>
<polygon fill="none" stroke="#000000" points="702,-42.5 702,-72.5 1263,-72.5 1263,-42.5 702,-42.5"/>
<text text-anchor="start" x="709" y="-53.9" font-family="Arial" font-size="14.00" fill="#000000">end_ts    </text>
<text text-anchor="start" x="785.2258" y="-53.9" font-family="Arial" font-size="14.00" fill="#666666">[timestamp with time zone]</text>
</g>
<!-- _timescaledb_catalog.continuous_agg_migrate_plan_step&#45;&gt;_timescaledb_catalog.continuous_agg_migrate_plan -->
<g id="edge1" class="edge">
<title>_timescaledb_catalog.continuous_agg_migrate_plan_step:mat_hypertable_id&#45;&gt;_timescaledb_catalog.continuous_agg_migrate_plan:mat_hypertable_id</title>
<path fill="none" stroke="#000000" d="M669.9569,-485.5093C599.6346,-456.3863 623.1718,-117.5 702,-117.5"/>
<polygon fill="#000000" stroke="#000000" points="670.1908,-485.5556 679.125,-491.9141 675.0954,-486.5278 680,-487.5 680,-487.5 680,-487.5 675.0954,-486.5278 680.875,-483.0859 670.1908,-485.5556 670.1908,-485.5556"/>
<text text-anchor="start" x="6.6105" y="-497.5" font-family="Arial" font-size="10.00" fill="#000000">FOREIGN KEY (mat_hypertable_id) REFERENCES _timescaledb_catalog.continuous_agg_migrate_plan(mat_hypertable_id) ON DELETE CASCADE</text>
</g>
</g>
</svg>
