<?xml version="1.0" encoding="UTF-8" standalone="no"?>
<!DOCTYPE svg PUBLIC "-//W3C//DTD SVG 1.1//EN"
 "http://www.w3.org/Graphics/SVG/1.1/DTD/svg11.dtd">
<!-- Generated by graphviz version 2.40.1 (20161225.0304)
 -->
<!-- Title: _timescaledb_catalog.continuous_agg_migrate_plan Pages: 1 -->
<svg width="1336pt" height="1109pt"
 viewBox="0.00 0.00 1335.50 1109.00" xmlns="http://www.w3.org/2000/svg" xmlns:xlink="http://www.w3.org/1999/xlink">
<g id="graph0" class="graph" transform="scale(1 1) rotate(0) translate(4 1105)">
<title>_timescaledb_catalog.continuous_agg_migrate_plan</title>
<polygon fill="#ffffff" stroke="transparent" points="-4,4 -4,-1105 1331.5,-1105 1331.5,4 -4,4"/>
<!-- _timescaledb_catalog.continuous_agg_migrate_plan -->
<g id="node1" class="node">
<title>_timescaledb_catalog.continuous_agg_migrate_plan</title>
<polygon fill="#efefef" stroke="transparent" points="702,-652.5 702,-687.5 1263,-687.5 1263,-652.5 702,-652.5"/>
<polygon fill="none" stroke="#000000" points="702,-652.5 702,-687.5 1263,-687.5 1263,-652.5 702,-652.5"/>
<text text-anchor="start" x="708.6497" y="-665.3" font-family="Arial Bold" font-size="18.00" fill="#000000">_timescaledb_catalog.continuous_agg_migrate_plan</text>
<text text-anchor="start" x="1128.7823" y="-665.3" font-family="Arial" font-size="14.00" fill="#000000">    </text>
<text text-anchor="start" x="1162.9871" y="-665.3" font-family="Arial" font-size="14.00" fill="#666666">[BASE TABLE]</text>
<polygon fill="none" stroke="#000000" points="702,-622.5 702,-652.5 1263,-652.5 1263,-622.5 702,-622.5"/>
<text text-anchor="start" x="709" y="-633.9" font-family="Arial" font-size="14.00" fill="#000000">mat_hypertable_id </text>
<text text-anchor="start" x="828.0322" y="-633.9" font-family="Arial" font-size="14.00" fill="#666666">[integer]</text>
<polygon fill="none" stroke="#000000" points="702,-592.5 702,-622.5 1263,-622.5 1263,-592.5 702,-592.5"/>
<text text-anchor="start" x="709" y="-603.9" font-family="Arial" font-size="14.00" fill="#000000">start_ts </text>
<text text-anchor="start" x="758.7882" y="-603.9" font-family="Arial" font-size="14.00" fill="#666666">[timestamp with time zone]</text>
<polygon fill="none" stroke="#000000" points="702,-562.5 702,-592.5 1263,-592.5 1263,-562.5 702,-562.5"/>
<text text-anchor="start" x="709" y="-573.9" font-family="Arial" font-size="14.00" fill="#000000">end_ts </text>
<text text-anchor="start" x="754.9116" y="-573.9" font-family="Arial" font-size="14.00" fill="#666666">[timestamp with time zone]</text>
<polygon fill="none" stroke="#000000" stroke-width="3" points="700,-561.5 700,-689.5 1264,-689.5 1264,-561.5 700,-561.5"/>
</g>
<!-- _timescaledb_catalog.continuous_agg -->
<g id="node2" class="node">
<title>_timescaledb_catalog.continuous_agg</title>
<polygon fill="#efefef" stroke="transparent" points="759,-402.5 759,-437.5 1206,-437.5 1206,-402.5 759,-402.5"/>
<polygon fill="none" stroke="#000000" points="759,-402.5 759,-437.5 1206,-437.5 1206,-402.5 759,-402.5"/>
<text text-anchor="start" x="765.662" y="-415.3" font-family="Arial Bold" font-size="18.00" fill="#000000">_timescaledb_catalog.continuous_agg</text>
<text text-anchor="start" x="1071.77" y="-415.3" font-family="Arial" font-size="14.00" fill="#000000">    </text>
<text text-anchor="start" x="1105.9748" y="-415.3" font-family="Arial" font-size="14.00" fill="#666666">[BASE TABLE]</text>
<polygon fill="none" stroke="#000000" points="759,-372.5 759,-402.5 1206,-402.5 1206,-372.5 759,-372.5"/>
<text text-anchor="start" x="766" y="-383.9" font-family="Arial" font-size="14.00" fill="#000000">mat_hypertable_id    </text>
<text text-anchor="start" x="915.3464" y="-383.9" font-family="Arial" font-size="14.00" fill="#666666">[integer]</text>
<polygon fill="none" stroke="#000000" points="759,-342.5 759,-372.5 1206,-372.5 1206,-342.5 759,-342.5"/>
<text text-anchor="start" x="766" y="-353.9" font-family="Arial" font-size="14.00" fill="#000000">raw_hypertable_id    </text>
<text text-anchor="start" x="914.5624" y="-353.9" font-family="Arial" font-size="14.00" fill="#666666">[integer]</text>
<polygon fill="none" stroke="#000000" points="759,-312.5 759,-342.5 1206,-342.5 1206,-312.5 759,-312.5"/>
<text text-anchor="start" x="766" y="-323.9" font-family="Arial" font-size="14.00" fill="#000000">parent_mat_hypertable_id    </text>
<text text-anchor="start" x="962.8106" y="-323.9" font-family="Arial" font-size="14.00" fill="#666666">[integer]</text>
<polygon fill="none" stroke="#000000" points="759,-282.5 759,-312.5 1206,-312.5 1206,-282.5 759,-282.5"/>
<text text-anchor="start" x="766" y="-293.9" font-family="Arial" font-size="14.00" fill="#000000">user_view_schema    </text>
<text text-anchor="start" x="920" y="-293.9" font-family="Arial" font-size="14.00" fill="#666666">[name]</text>
<polygon fill="none" stroke="#000000" points="759,-252.5 759,-282.5 1206,-282.5 1206,-252.5 759,-252.5"/>
<text text-anchor="start" x="766" y="-263.9" font-family="Arial" font-size="14.00" fill="#000000">user_view_name    </text>
<text text-anchor="start" x="906" y="-263.9" font-family="Arial" font-size="14.00" fill="#666666">[name]</text>
<polygon fill="none" stroke="#000000" points="759,-222.5 759,-252.5 1206,-252.5 1206,-222.5 759,-222.5"/>
<text text-anchor="start" x="766" y="-233.9" font-family="Arial" font-size="14.00" fill="#000000">partial_view_schema    </text>
<text text-anchor="start" x="930.8864" y="-233.9" font-family="Arial" font-size="14.00" fill="#666666">[name]</text>
<polygon fill="none" stroke="#000000" points="759,-192.5 759,-222.5 1206,-222.5 1206,-192.5 759,-192.5"/>
<text text-anchor="start" x="766" y="-203.9" font-family="Arial" font-size="14.00" fill="#000000">partial_view_name    </text>
<text text-anchor="start" x="916.8864" y="-203.9" font-family="Arial" font-size="14.00" fill="#666666">[name]</text>
<polygon fill="none" stroke="#000000" points="759,-162.5 759,-192.5 1206,-192.5 1206,-162.5 759,-162.5"/>
<text text-anchor="start" x="766" y="-173.9" font-family="Arial" font-size="14.00" fill="#000000">bucket_width    </text>
<text text-anchor="start" x="881.8948" y="-173.9" font-family="Arial" font-size="14.00" fill="#666666">[bigint]</text>
<polygon fill="none" stroke="#000000" points="759,-132.5 759,-162.5 1206,-162.5 1206,-132.5 759,-132.5"/>
<text text-anchor="start" x="766" y="-143.9" font-family="Arial" font-size="14.00" fill="#000000">direct_view_schema    </text>
<text text-anchor="start" x="926.9972" y="-143.9" font-family="Arial" font-size="14.00" fill="#666666">[name]</text>
<polygon fill="none" stroke="#000000" points="759,-102.5 759,-132.5 1206,-132.5 1206,-102.5 759,-102.5"/>
<text text-anchor="start" x="766" y="-113.9" font-family="Arial" font-size="14.00" fill="#000000">direct_view_name    </text>
<text text-anchor="start" x="912.9972" y="-113.9" font-family="Arial" font-size="14.00" fill="#666666">[name]</text>
<polygon fill="none" stroke="#000000" points="759,-72.5 759,-102.5 1206,-102.5 1206,-72.5 759,-72.5"/>
<text text-anchor="start" x="766" y="-83.9" font-family="Arial" font-size="14.00" fill="#000000">materialized_only    </text>
<text text-anchor="start" x="909.1038" y="-83.9" font-family="Arial" font-size="14.00" fill="#666666">[boolean]</text>
<polygon fill="none" stroke="#000000" points="759,-42.5 759,-72.5 1206,-72.5 1206,-42.5 759,-42.5"/>
<text text-anchor="start" x="766" y="-53.9" font-family="Arial" font-size="14.00" fill="#000000">finalized    </text>
<text text-anchor="start" x="851.5456" y="-53.9" font-family="Arial" font-size="14.00" fill="#666666">[boolean]</text>
</g>
<!-- _timescaledb_catalog.continuous_agg_migrate_plan&#45;&gt;_timescaledb_catalog.continuous_agg -->
<g id="edge1" class="edge">
<title>_timescaledb_catalog.continuous_agg_migrate_plan:mat_hypertable_id&#45;&gt;_timescaledb_catalog.continuous_agg:mat_hypertable_id</title>
<path fill="none" stroke="#000000" d="M691.8134,-636.7828C591.6556,-622.1191 648.5988,-387.5 759,-387.5"/>
<polygon fill="#000000" stroke="#000000" points="692.0247,-636.7976 701.6839,-641.9889 697.0123,-637.1488 702,-637.5 702,-637.5 702,-637.5 697.0123,-637.1488 702.3161,-633.0111 692.0247,-636.7976 692.0247,-636.7976"/>
<text text-anchor="start" x="202.565" y="-647.5" font-family="Arial" font-size="10.00" fill="#000000">FOREIGN KEY (mat_hypertable_id) REFERENCES _timescaledb_catalog.continuous_agg(mat_hypertable_id)</text>
</g>
<!-- _timescaledb_catalog.continuous_agg_migrate_plan_step -->
<g id="node3" class="node">
<title>_timescaledb_catalog.continuous_agg_migrate_plan_step</title>
<polygon fill="#efefef" stroke="transparent" points="680,-1022.5 680,-1057.5 1285,-1057.5 1285,-1022.5 680,-1022.5"/>
<polygon fill="none" stroke="#000000" points="680,-1022.5 680,-1057.5 1285,-1057.5 1285,-1022.5 680,-1022.5"/>
<text text-anchor="start" x="686.6393" y="-1035.3" font-family="Arial Bold" font-size="18.00" fill="#000000">_timescaledb_catalog.continuous_agg_migrate_plan_step</text>
<text text-anchor="start" x="1150.7927" y="-1035.3" font-family="Arial" font-size="14.00" fill="#000000">    </text>
<text text-anchor="start" x="1184.9975" y="-1035.3" font-family="Arial" font-size="14.00" fill="#666666">[BASE TABLE]</text>
<polygon fill="none" stroke="#000000" points="680,-992.5 680,-1022.5 1285,-1022.5 1285,-992.5 680,-992.5"/>
<text text-anchor="start" x="687" y="-1003.9" font-family="Arial" font-size="14.00" fill="#000000">mat_hypertable_id    </text>
<text text-anchor="start" x="836.3464" y="-1003.9" font-family="Arial" font-size="14.00" fill="#666666">[integer]</text>
<polygon fill="none" stroke="#000000" points="680,-962.5 680,-992.5 1285,-992.5 1285,-962.5 680,-962.5"/>
<text text-anchor="start" x="687" y="-973.9" font-family="Arial" font-size="14.00" fill="#000000">step_id    </text>
<text text-anchor="start" x="766.3324" y="-973.9" font-family="Arial" font-size="14.00" fill="#666666">[integer]</text>
<polygon fill="none" stroke="#000000" points="680,-932.5 680,-962.5 1285,-962.5 1285,-932.5 680,-932.5"/>
<text text-anchor="start" x="687" y="-943.9" font-family="Arial" font-size="14.00" fill="#000000">status    </text>
<text text-anchor="start" x="758.5512" y="-943.9" font-family="Arial" font-size="14.00" fill="#666666">[text]</text>
<polygon fill="none" stroke="#000000" points="680,-902.5 680,-932.5 1285,-932.5 1285,-902.5 680,-902.5"/>
<text text-anchor="start" x="687" y="-913.9" font-family="Arial" font-size="14.00" fill="#000000">start_ts    </text>
<text text-anchor="start" x="767.1024" y="-913.9" font-family="Arial" font-size="14.00" fill="#666666">[timestamp with time zone]</text>
<polygon fill="none" stroke="#000000" points="680,-872.5 680,-902.5 1285,-902.5 1285,-872.5 680,-872.5"/>
<text text-anchor="start" x="687" y="-883.9" font-family="Arial" font-size="14.00" fill="#000000">end_ts    </text>
<text text-anchor="start" x="763.2258" y="-883.9" font-family="Arial" font-size="14.00" fill="#666666">[timestamp with time zone]</text>
<polygon fill="none" stroke="#000000" points="680,-842.5 680,-872.5 1285,-872.5 1285,-842.5 680,-842.5"/>
<text text-anchor="start" x="687" y="-853.9" font-family="Arial" font-size="14.00" fill="#000000">type    </text>
<text text-anchor="start" x="747.6606" y="-853.9" font-family="Arial" font-size="14.00" fill="#666666">[text]</text>
<polygon fill="none" stroke="#000000" points="680,-812.5 680,-842.5 1285,-842.5 1285,-812.5 680,-812.5"/>
<text text-anchor="start" x="687" y="-823.9" font-family="Arial" font-size="14.00" fill="#000000">config    </text>
<text text-anchor="start" x="758.5498" y="-823.9" font-family="Arial" font-size="14.00" fill="#666666">[jsonb]</text>
</g>
<!-- _timescaledb_catalog.continuous_agg_migrate_plan_step&#45;&gt;_timescaledb_catalog.continuous_agg_migrate_plan -->
<g id="edge2" class="edge">
<title>_timescaledb_catalog.continuous_agg_migrate_plan_step:mat_hypertable_id&#45;&gt;_timescaledb_catalog.continuous_agg_migrate_plan:mat_hypertable_id</title>
<path fill="none" stroke="#000000" d="M669.9569,-1005.5093C599.6346,-976.3863 623.1718,-637.5 702,-637.5"/>
<polygon fill="#000000" stroke="#000000" points="670.1908,-1005.5556 679.125,-1011.9141 675.0954,-1006.5278 680,-1007.5 680,-1007.5 680,-1007.5 675.0954,-1006.5278 680.875,-1003.0859 670.1908,-1005.5556 670.1908,-1005.5556"/>
<text text-anchor="start" x="6.6105" y="-1017.5" font-family="Arial" font-size="10.00" fill="#000000">FOREIGN KEY (mat_hypertable_id) REFERENCES _timescaledb_catalog.continuous_agg_migrate_plan(mat_hypertable_id) ON DELETE CASCADE</text>
</g>
</g>
</svg>
