<?xml version="1.0" encoding="UTF-8" standalone="no"?>
<!DOCTYPE svg PUBLIC "-//W3C//DTD SVG 1.1//EN"
 "http://www.w3.org/Graphics/SVG/1.1/DTD/svg11.dtd">
<!-- Generated by graphviz version 2.40.1 (20161225.0304)
 -->
<!-- Title: _timescaledb_catalog.dimension Pages: 1 -->
<svg width="1269pt" height="1289pt"
 viewBox="0.00 0.00 1269.00 1289.00" xmlns="http://www.w3.org/2000/svg" xmlns:xlink="http://www.w3.org/1999/xlink">
<g id="graph0" class="graph" transform="scale(1 1) rotate(0) translate(4 1285)">
<title>_timescaledb_catalog.dimension</title>
<polygon fill="#ffffff" stroke="transparent" points="-4,4 -4,-1285 1265,-1285 1265,4 -4,4"/>
<!-- _timescaledb_catalog.dimension -->
<g id="node1" class="node">
<title>_timescaledb_catalog.dimension</title>
<polygon fill="#efefef" stroke="transparent" points="363,-922.5 363,-957.5 765,-957.5 765,-922.5 363,-922.5"/>
<polygon fill="none" stroke="#000000" points="363,-922.5 363,-957.5 765,-957.5 765,-922.5 363,-922.5"/>
<text text-anchor="start" x="369.6854" y="-935.3" font-family="Arial Bold" font-size="18.00" fill="#000000">_timescaledb_catalog.dimension</text>
<text text-anchor="start" x="630.7466" y="-935.3" font-family="Arial" font-size="14.00" fill="#000000">    </text>
<text text-anchor="start" x="664.9514" y="-935.3" font-family="Arial" font-size="14.00" fill="#666666">[BASE TABLE]</text>
<polygon fill="none" stroke="#000000" points="363,-892.5 363,-922.5 765,-922.5 765,-892.5 363,-892.5"/>
<text text-anchor="start" x="370" y="-903.9" font-family="Arial" font-size="14.00" fill="#000000">id </text>
<text text-anchor="start" x="384.7798" y="-903.9" font-family="Arial" font-size="14.00" fill="#666666">[integer]</text>
<polygon fill="none" stroke="#000000" points="363,-862.5 363,-892.5 765,-892.5 765,-862.5 363,-862.5"/>
<text text-anchor="start" x="370" y="-873.9" font-family="Arial" font-size="14.00" fill="#000000">hypertable_id </text>
<text text-anchor="start" x="457.9158" y="-873.9" font-family="Arial" font-size="14.00" fill="#666666">[integer]</text>
<polygon fill="none" stroke="#000000" points="363,-832.5 363,-862.5 765,-862.5 765,-832.5 363,-832.5"/>
<text text-anchor="start" x="370" y="-843.9" font-family="Arial" font-size="14.00" fill="#000000">column_name </text>
<text text-anchor="start" x="461.7966" y="-843.9" font-family="Arial" font-size="14.00" fill="#666666">[name]</text>
<polygon fill="none" stroke="#000000" points="363,-802.5 363,-832.5 765,-832.5 765,-802.5 363,-802.5"/>
<text text-anchor="start" x="370" y="-813.9" font-family="Arial" font-size="14.00" fill="#000000">column_type </text>
<text text-anchor="start" x="453.244" y="-813.9" font-family="Arial" font-size="14.00" fill="#666666">[regtype]</text>
<polygon fill="none" stroke="#000000" points="363,-772.5 363,-802.5 765,-802.5 765,-772.5 363,-772.5"/>
<text text-anchor="start" x="370" y="-783.9" font-family="Arial" font-size="14.00" fill="#000000">aligned </text>
<text text-anchor="start" x="419.0168" y="-783.9" font-family="Arial" font-size="14.00" fill="#666666">[boolean]</text>
<polygon fill="none" stroke="#000000" points="363,-742.5 363,-772.5 765,-772.5 765,-742.5 363,-742.5"/>
<text text-anchor="start" x="370" y="-753.9" font-family="Arial" font-size="14.00" fill="#000000">num_slices </text>
<text text-anchor="start" x="443.8948" y="-753.9" font-family="Arial" font-size="14.00" fill="#666666">[smallint]</text>
<polygon fill="none" stroke="#000000" points="363,-712.5 363,-742.5 765,-742.5 765,-712.5 363,-712.5"/>
<text text-anchor="start" x="370" y="-723.9" font-family="Arial" font-size="14.00" fill="#000000">partitioning_func_schema </text>
<text text-anchor="start" x="533.3772" y="-723.9" font-family="Arial" font-size="14.00" fill="#666666">[name]</text>
<polygon fill="none" stroke="#000000" points="363,-682.5 363,-712.5 765,-712.5 765,-682.5 363,-682.5"/>
<text text-anchor="start" x="370" y="-693.9" font-family="Arial" font-size="14.00" fill="#000000">partitioning_func </text>
<text text-anchor="start" x="476.5862" y="-693.9" font-family="Arial" font-size="14.00" fill="#666666">[name]</text>
<polygon fill="none" stroke="#000000" points="363,-652.5 363,-682.5 765,-682.5 765,-652.5 363,-652.5"/>
<text text-anchor="start" x="370" y="-663.9" font-family="Arial" font-size="14.00" fill="#000000">interval_length </text>
<text text-anchor="start" x="464.913" y="-663.9" font-family="Arial" font-size="14.00" fill="#666666">[bigint]</text>
<polygon fill="none" stroke="#000000" points="363,-622.5 363,-652.5 765,-652.5 765,-622.5 363,-622.5"/>
<text text-anchor="start" x="370" y="-633.9" font-family="Arial" font-size="14.00" fill="#000000">compress_interval_length </text>
<text text-anchor="start" x="533.3646" y="-633.9" font-family="Arial" font-size="14.00" fill="#666666">[bigint]</text>
<polygon fill="none" stroke="#000000" points="363,-592.5 363,-622.5 765,-622.5 765,-592.5 363,-592.5"/>
<text text-anchor="start" x="370" y="-603.9" font-family="Arial" font-size="14.00" fill="#000000">integer_now_func_schema </text>
<text text-anchor="start" x="541.1626" y="-603.9" font-family="Arial" font-size="14.00" fill="#666666">[name]</text>
<polygon fill="none" stroke="#000000" points="363,-562.5 363,-592.5 765,-592.5 765,-562.5 363,-562.5"/>
<text text-anchor="start" x="370" y="-573.9" font-family="Arial" font-size="14.00" fill="#000000">integer_now_func </text>
<text text-anchor="start" x="484.3716" y="-573.9" font-family="Arial" font-size="14.00" fill="#666666">[name]</text>
<polygon fill="none" stroke="#000000" stroke-width="3" points="361.5,-561.5 361.5,-959.5 766.5,-959.5 766.5,-561.5 361.5,-561.5"/>
</g>
<!-- _timescaledb_catalog.hypertable -->
<g id="node4" class="node">
<title>_timescaledb_catalog.hypertable</title>
<polygon fill="#efefef" stroke="transparent" points="362,-402.5 362,-437.5 766,-437.5 766,-402.5 362,-402.5"/>
<polygon fill="none" stroke="#000000" points="362,-402.5 362,-437.5 766,-437.5 766,-402.5 362,-402.5"/>
<text text-anchor="start" x="368.6783" y="-415.3" font-family="Arial Bold" font-size="18.00" fill="#000000">_timescaledb_catalog.hypertable</text>
<text text-anchor="start" x="631.7537" y="-415.3" font-family="Arial" font-size="14.00" fill="#000000">    </text>
<text text-anchor="start" x="665.9585" y="-415.3" font-family="Arial" font-size="14.00" fill="#666666">[BASE TABLE]</text>
<polygon fill="none" stroke="#000000" points="362,-372.5 362,-402.5 766,-402.5 766,-372.5 362,-372.5"/>
<text text-anchor="start" x="369" y="-383.9" font-family="Arial" font-size="14.00" fill="#000000">id    </text>
<text text-anchor="start" x="414.094" y="-383.9" font-family="Arial" font-size="14.00" fill="#666666">[integer]</text>
<polygon fill="none" stroke="#000000" points="362,-342.5 362,-372.5 766,-372.5 766,-342.5 362,-342.5"/>
<text text-anchor="start" x="369" y="-353.9" font-family="Arial" font-size="14.00" fill="#000000">schema_name    </text>
<text text-anchor="start" x="495.0042" y="-353.9" font-family="Arial" font-size="14.00" fill="#666666">[name]</text>
<polygon fill="none" stroke="#000000" points="362,-312.5 362,-342.5 766,-342.5 766,-312.5 362,-312.5"/>
<text text-anchor="start" x="369" y="-323.9" font-family="Arial" font-size="14.00" fill="#000000">table_name    </text>
<text text-anchor="start" x="476.3408" y="-323.9" font-family="Arial" font-size="14.00" fill="#666666">[name]</text>
<polygon fill="none" stroke="#000000" points="362,-282.5 362,-312.5 766,-312.5 766,-282.5 362,-282.5"/>
<text text-anchor="start" x="369" y="-293.9" font-family="Arial" font-size="14.00" fill="#000000">associated_schema_name    </text>
<text text-anchor="start" x="569.697" y="-293.9" font-family="Arial" font-size="14.00" fill="#666666">[name]</text>
<polygon fill="none" stroke="#000000" points="362,-252.5 362,-282.5 766,-282.5 766,-252.5 362,-252.5"/>
<text text-anchor="start" x="369" y="-263.9" font-family="Arial" font-size="14.00" fill="#000000">associated_table_prefix    </text>
<text text-anchor="start" x="550.2482" y="-263.9" font-family="Arial" font-size="14.00" fill="#666666">[name]</text>
<polygon fill="none" stroke="#000000" points="362,-222.5 362,-252.5 766,-252.5 766,-222.5 362,-222.5"/>
<text text-anchor="start" x="369" y="-233.9" font-family="Arial" font-size="14.00" fill="#000000">num_dimensions    </text>
<text text-anchor="start" x="509" y="-233.9" font-family="Arial" font-size="14.00" fill="#666666">[smallint]</text>
<polygon fill="none" stroke="#000000" points="362,-192.5 362,-222.5 766,-222.5 766,-192.5 362,-192.5"/>
<text text-anchor="start" x="369" y="-203.9" font-family="Arial" font-size="14.00" fill="#000000">chunk_sizing_func_schema    </text>
<text text-anchor="start" x="575.143" y="-203.9" font-family="Arial" font-size="14.00" fill="#666666">[name]</text>
<polygon fill="none" stroke="#000000" points="362,-162.5 362,-192.5 766,-192.5 766,-162.5 362,-162.5"/>
<text text-anchor="start" x="369" y="-173.9" font-family="Arial" font-size="14.00" fill="#000000">chunk_sizing_func_name    </text>
<text text-anchor="start" x="561.143" y="-173.9" font-family="Arial" font-size="14.00" fill="#666666">[name]</text>
<polygon fill="none" stroke="#000000" points="362,-132.5 362,-162.5 766,-162.5 766,-132.5 362,-132.5"/>
<text text-anchor="start" x="369" y="-143.9" font-family="Arial" font-size="14.00" fill="#000000">chunk_target_size    </text>
<text text-anchor="start" x="516.7966" y="-143.9" font-family="Arial" font-size="14.00" fill="#666666">[bigint]</text>
<polygon fill="none" stroke="#000000" points="362,-102.5 362,-132.5 766,-132.5 766,-102.5 362,-102.5"/>
<text text-anchor="start" x="369" y="-113.9" font-family="Arial" font-size="14.00" fill="#000000">compression_state    </text>
<text text-anchor="start" x="520.6746" y="-113.9" font-family="Arial" font-size="14.00" fill="#666666">[smallint]</text>
<polygon fill="none" stroke="#000000" points="362,-72.5 362,-102.5 766,-102.5 766,-72.5 362,-72.5"/>
<text text-anchor="start" x="369" y="-83.9" font-family="Arial" font-size="14.00" fill="#000000">compressed_hypertable_id    </text>
<text text-anchor="start" x="571.2468" y="-83.9" font-family="Arial" font-size="14.00" fill="#666666">[integer]</text>
<polygon fill="none" stroke="#000000" points="362,-42.5 362,-72.5 766,-72.5 766,-42.5 362,-42.5"/>
<text text-anchor="start" x="369" y="-53.9" font-family="Arial" font-size="14.00" fill="#000000">replication_factor    </text>
<text text-anchor="start" x="509.7784" y="-53.9" font-family="Arial" font-size="14.00" fill="#666666">[smallint]</text>
</g>
<!-- _timescaledb_catalog.dimension&#45;&gt;_timescaledb_catalog.hypertable -->
<g id="edge3" class="edge">
<title>_timescaledb_catalog.dimension:hypertable_id&#45;&gt;_timescaledb_catalog.hypertable:id</title>
<path fill="none" stroke="#000000" d="M775.0496,-877.1449C982.7561,-862.3071 980.3754,-387.5 766,-387.5"/>
<polygon fill="#000000" stroke="#000000" points="774.9938,-877.1467 764.841,-873.0028 769.9969,-877.3234 765,-877.5 765,-877.5 765,-877.5 769.9969,-877.3234 765.159,-881.9972 774.9938,-877.1467 774.9938,-877.1467"/>
<text text-anchor="start" x="771.5835" y="-887.5" font-family="Arial" font-size="10.00" fill="#000000">FOREIGN KEY (hypertable_id) REFERENCES _timescaledb_catalog.hypertable(id) ON DELETE CASCADE</text>
</g>
<!-- _timescaledb_catalog.dimension_partition -->
<g id="node2" class="node">
<title>_timescaledb_catalog.dimension_partition</title>
<polygon fill="#efefef" stroke="transparent" points="43,-1187.5 43,-1222.5 519,-1222.5 519,-1187.5 43,-1187.5"/>
<polygon fill="none" stroke="#000000" points="43,-1187.5 43,-1222.5 519,-1222.5 519,-1187.5 43,-1187.5"/>
<text text-anchor="start" x="49.6774" y="-1200.3" font-family="Arial Bold" font-size="18.00" fill="#000000">_timescaledb_catalog.dimension_partition</text>
<text text-anchor="start" x="384.7546" y="-1200.3" font-family="Arial" font-size="14.00" fill="#000000">    </text>
<text text-anchor="start" x="418.9594" y="-1200.3" font-family="Arial" font-size="14.00" fill="#666666">[BASE TABLE]</text>
<polygon fill="none" stroke="#000000" points="43,-1157.5 43,-1187.5 519,-1187.5 519,-1157.5 43,-1157.5"/>
<text text-anchor="start" x="50" y="-1168.9" font-family="Arial" font-size="14.00" fill="#000000">dimension_id    </text>
<text text-anchor="start" x="166.6634" y="-1168.9" font-family="Arial" font-size="14.00" fill="#666666">[integer]</text>
<polygon fill="none" stroke="#000000" points="43,-1127.5 43,-1157.5 519,-1157.5 519,-1127.5 43,-1127.5"/>
<text text-anchor="start" x="50" y="-1138.9" font-family="Arial" font-size="14.00" fill="#000000">range_start    </text>
<text text-anchor="start" x="155.0028" y="-1138.9" font-family="Arial" font-size="14.00" fill="#666666">[bigint]</text>
<polygon fill="none" stroke="#000000" points="43,-1097.5 43,-1127.5 519,-1127.5 519,-1097.5 43,-1097.5"/>
<text text-anchor="start" x="50" y="-1108.9" font-family="Arial" font-size="14.00" fill="#000000">data_nodes    </text>
<text text-anchor="start" x="157.3562" y="-1108.9" font-family="Arial" font-size="14.00" fill="#666666">[name[]]</text>
</g>
<!-- _timescaledb_catalog.dimension_partition&#45;&gt;_timescaledb_catalog.dimension -->
<g id="edge1" class="edge">
<title>_timescaledb_catalog.dimension_partition:dimension_id&#45;&gt;_timescaledb_catalog.dimension:id</title>
<path fill="none" stroke="#000000" d="M528.9437,-1171.4219C568.1447,-1162.0846 547.5016,-1094.3039 519,-1055 476.1778,-995.9479 405.8222,-1063.0521 363,-1004 337.822,-969.2793 320.1111,-907.5 363,-907.5"/>
<polygon fill="#000000" stroke="#000000" points="528.9417,-1171.422 518.5149,-1168.0262 523.9709,-1171.961 519,-1172.5 519,-1172.5 519,-1172.5 523.9709,-1171.961 519.4851,-1176.9738 528.9417,-1171.422 528.9417,-1171.422"/>
<text text-anchor="start" x="525.7025" y="-1182.5" font-family="Arial" font-size="10.00" fill="#000000">FOREIGN KEY (dimension_id) REFERENCES _timescaledb_catalog.dimension(id) ON DELETE CASCADE</text>
</g>
<!-- _timescaledb_catalog.dimension_slice -->
<g id="node3" class="node">
<title>_timescaledb_catalog.dimension_slice</title>
<polygon fill="#efefef" stroke="transparent" points="623,-1202.5 623,-1237.5 1071,-1237.5 1071,-1202.5 623,-1202.5"/>
<polygon fill="none" stroke="#000000" points="623,-1202.5 623,-1237.5 1071,-1237.5 1071,-1202.5 623,-1202.5"/>
<text text-anchor="start" x="629.685" y="-1215.3" font-family="Arial Bold" font-size="18.00" fill="#000000">_timescaledb_catalog.dimension_slice</text>
<text text-anchor="start" x="936.747" y="-1215.3" font-family="Arial" font-size="14.00" fill="#000000">    </text>
<text text-anchor="start" x="970.9518" y="-1215.3" font-family="Arial" font-size="14.00" fill="#666666">[BASE TABLE]</text>
<polygon fill="none" stroke="#000000" points="623,-1172.5 623,-1202.5 1071,-1202.5 1071,-1172.5 623,-1172.5"/>
<text text-anchor="start" x="630" y="-1183.9" font-family="Arial" font-size="14.00" fill="#000000">id    </text>
<text text-anchor="start" x="675.094" y="-1183.9" font-family="Arial" font-size="14.00" fill="#666666">[integer]</text>
<polygon fill="none" stroke="#000000" points="623,-1142.5 623,-1172.5 1071,-1172.5 1071,-1142.5 623,-1142.5"/>
<text text-anchor="start" x="630" y="-1153.9" font-family="Arial" font-size="14.00" fill="#000000">dimension_id    </text>
<text text-anchor="start" x="746.6634" y="-1153.9" font-family="Arial" font-size="14.00" fill="#666666">[integer]</text>
<polygon fill="none" stroke="#000000" points="623,-1112.5 623,-1142.5 1071,-1142.5 1071,-1112.5 623,-1112.5"/>
<text text-anchor="start" x="630" y="-1123.9" font-family="Arial" font-size="14.00" fill="#000000">range_start    </text>
<text text-anchor="start" x="735.0028" y="-1123.9" font-family="Arial" font-size="14.00" fill="#666666">[bigint]</text>
<polygon fill="none" stroke="#000000" points="623,-1082.5 623,-1112.5 1071,-1112.5 1071,-1082.5 623,-1082.5"/>
<text text-anchor="start" x="630" y="-1093.9" font-family="Arial" font-size="14.00" fill="#000000">range_end    </text>
<text text-anchor="start" x="731.1262" y="-1093.9" font-family="Arial" font-size="14.00" fill="#666666">[bigint]</text>
</g>
<!-- _timescaledb_catalog.dimension_slice&#45;&gt;_timescaledb_catalog.dimension -->
<g id="edge2" class="edge">
<title>_timescaledb_catalog.dimension_slice:dimension_id&#45;&gt;_timescaledb_catalog.dimension:id</title>
<path fill="none" stroke="#000000" d="M613.0368,-1156.4073C573.6706,-1146.9458 593.1849,-1078.3171 623,-1040 662.9831,-988.6155 725.0169,-1055.3845 765,-1004 791.3383,-970.1511 807.8889,-907.5 765,-907.5"/>
<polygon fill="#000000" stroke="#000000" points="613.0596,-1156.4097 622.5094,-1161.9732 618.0298,-1156.9548 623,-1157.5 623,-1157.5 623,-1157.5 618.0298,-1156.9548 623.4906,-1153.0268 613.0596,-1156.4097 613.0596,-1156.4097"/>
<text text-anchor="start" x="629.7025" y="-1141.5" font-family="Arial" font-size="10.00" fill="#000000">FOREIGN KEY (dimension_id) REFERENCES _timescaledb_catalog.dimension(id) ON DELETE CASCADE</text>
</g>
</g>
</svg>
