<?xml version="1.0" encoding="UTF-8" standalone="no"?>
<!DOCTYPE svg PUBLIC "-//W3C//DTD SVG 1.1//EN"
 "http://www.w3.org/Graphics/SVG/1.1/DTD/svg11.dtd">
<!-- Generated by graphviz version 2.40.1 (20161225.0304)
 -->
<!-- Title: _timescaledb_catalog.chunk_copy_operation Pages: 1 -->
<svg width="1012pt" height="802pt"
 viewBox="0.00 0.00 1011.50 802.00" xmlns="http://www.w3.org/2000/svg" xmlns:xlink="http://www.w3.org/1999/xlink">
<g id="graph0" class="graph" transform="scale(1 1) rotate(0) translate(4 798)">
<title>_timescaledb_catalog.chunk_copy_operation</title>
<polygon fill="#ffffff" stroke="transparent" points="-4,4 -4,-798 1007.5,-798 1007.5,4 -4,4"/>
<!-- _timescaledb_catalog.chunk_copy_operation -->
<g id="node1" class="node">
<title>_timescaledb_catalog.chunk_copy_operation</title>
<polygon fill="#efefef" stroke="transparent" points="46.5,-712.5 46.5,-747.5 547.5,-747.5 547.5,-712.5 46.5,-712.5"/>
<polygon fill="none" stroke="#000000" points="46.5,-712.5 46.5,-747.5 547.5,-747.5 547.5,-712.5 46.5,-712.5"/>
<text text-anchor="start" x="53.1566" y="-725.3" font-family="Arial Bold" font-size="18.00" fill="#000000">_timescaledb_catalog.chunk_copy_operation</text>
<text text-anchor="start" x="413.2754" y="-725.3" font-family="Arial" font-size="14.00" fill="#000000">    </text>
<text text-anchor="start" x="447.4802" y="-725.3" font-family="Arial" font-size="14.00" fill="#666666">[BASE TABLE]</text>
<polygon fill="none" stroke="#000000" points="46.5,-682.5 46.5,-712.5 547.5,-712.5 547.5,-682.5 46.5,-682.5"/>
<text text-anchor="start" x="53.5" y="-693.9" font-family="Arial" font-size="14.00" fill="#000000">operation_id </text>
<text text-anchor="start" x="134.4158" y="-693.9" font-family="Arial" font-size="14.00" fill="#666666">[name]</text>
<polygon fill="none" stroke="#000000" points="46.5,-652.5 46.5,-682.5 547.5,-682.5 547.5,-652.5 46.5,-652.5"/>
<text text-anchor="start" x="53.5" y="-663.9" font-family="Arial" font-size="14.00" fill="#000000">backend_pid </text>
<text text-anchor="start" x="136.758" y="-663.9" font-family="Arial" font-size="14.00" fill="#666666">[integer]</text>
<polygon fill="none" stroke="#000000" points="46.5,-622.5 46.5,-652.5 547.5,-652.5 547.5,-622.5 46.5,-622.5"/>
<text text-anchor="start" x="53.5" y="-633.9" font-family="Arial" font-size="14.00" fill="#000000">completed_stage </text>
<text text-anchor="start" x="163.9824" y="-633.9" font-family="Arial" font-size="14.00" fill="#666666">[name]</text>
<polygon fill="none" stroke="#000000" points="46.5,-592.5 46.5,-622.5 547.5,-622.5 547.5,-592.5 46.5,-592.5"/>
<text text-anchor="start" x="53.5" y="-603.9" font-family="Arial" font-size="14.00" fill="#000000">time_start </text>
<text text-anchor="start" x="118.838" y="-603.9" font-family="Arial" font-size="14.00" fill="#666666">[timestamp with time zone]</text>
<polygon fill="none" stroke="#000000" points="46.5,-562.5 46.5,-592.5 547.5,-592.5 547.5,-562.5 46.5,-562.5"/>
<text text-anchor="start" x="53.5" y="-573.9" font-family="Arial" font-size="14.00" fill="#000000">chunk_id </text>
<text text-anchor="start" x="113.4102" y="-573.9" font-family="Arial" font-size="14.00" fill="#666666">[integer]</text>
<polygon fill="none" stroke="#000000" points="46.5,-532.5 46.5,-562.5 547.5,-562.5 547.5,-532.5 46.5,-532.5"/>
<text text-anchor="start" x="53.5" y="-543.9" font-family="Arial" font-size="14.00" fill="#000000">compress_chunk_name </text>
<text text-anchor="start" x="205.981" y="-543.9" font-family="Arial" font-size="14.00" fill="#666666">[name]</text>
<polygon fill="none" stroke="#000000" points="46.5,-502.5 46.5,-532.5 547.5,-532.5 547.5,-502.5 46.5,-502.5"/>
<text text-anchor="start" x="53.5" y="-513.9" font-family="Arial" font-size="14.00" fill="#000000">source_node_name </text>
<text text-anchor="start" x="181.103" y="-513.9" font-family="Arial" font-size="14.00" fill="#666666">[name]</text>
<polygon fill="none" stroke="#000000" points="46.5,-472.5 46.5,-502.5 547.5,-502.5 547.5,-472.5 46.5,-472.5"/>
<text text-anchor="start" x="53.5" y="-483.9" font-family="Arial" font-size="14.00" fill="#000000">dest_node_name </text>
<text text-anchor="start" x="165.5504" y="-483.9" font-family="Arial" font-size="14.00" fill="#666666">[name]</text>
<polygon fill="none" stroke="#000000" points="46.5,-442.5 46.5,-472.5 547.5,-472.5 547.5,-442.5 46.5,-442.5"/>
<text text-anchor="start" x="53.5" y="-453.9" font-family="Arial" font-size="14.00" fill="#000000">delete_on_source_node </text>
<text text-anchor="start" x="207.57" y="-453.9" font-family="Arial" font-size="14.00" fill="#666666">[boolean]</text>
<polygon fill="none" stroke="#000000" stroke-width="3" points="44.5,-441.5 44.5,-749.5 548.5,-749.5 548.5,-441.5 44.5,-441.5"/>
</g>
<!-- _timescaledb_catalog.chunk -->
<g id="node2" class="node">
<title>_timescaledb_catalog.chunk</title>
<polygon fill="#efefef" stroke="transparent" points="113.5,-282.5 113.5,-317.5 481.5,-317.5 481.5,-282.5 113.5,-282.5"/>
<polygon fill="none" stroke="#000000" points="113.5,-282.5 113.5,-317.5 481.5,-317.5 481.5,-282.5 113.5,-282.5"/>
<text text-anchor="start" x="120.1819" y="-295.3" font-family="Arial Bold" font-size="18.00" fill="#000000">_timescaledb_catalog.chunk</text>
<text text-anchor="start" x="347.2501" y="-295.3" font-family="Arial" font-size="14.00" fill="#000000">    </text>
<text text-anchor="start" x="381.4549" y="-295.3" font-family="Arial" font-size="14.00" fill="#666666">[BASE TABLE]</text>
<polygon fill="none" stroke="#000000" points="113.5,-252.5 113.5,-282.5 481.5,-282.5 481.5,-252.5 113.5,-252.5"/>
<text text-anchor="start" x="120.5" y="-263.9" font-family="Arial" font-size="14.00" fill="#000000">id    </text>
<text text-anchor="start" x="165.594" y="-263.9" font-family="Arial" font-size="14.00" fill="#666666">[integer]</text>
<polygon fill="none" stroke="#000000" points="113.5,-222.5 113.5,-252.5 481.5,-252.5 481.5,-222.5 113.5,-222.5"/>
<text text-anchor="start" x="120.5" y="-233.9" font-family="Arial" font-size="14.00" fill="#000000">hypertable_id    </text>
<text text-anchor="start" x="238.73" y="-233.9" font-family="Arial" font-size="14.00" fill="#666666">[integer]</text>
<polygon fill="none" stroke="#000000" points="113.5,-192.5 113.5,-222.5 481.5,-222.5 481.5,-192.5 113.5,-192.5"/>
<text text-anchor="start" x="120.5" y="-203.9" font-family="Arial" font-size="14.00" fill="#000000">schema_name    </text>
<text text-anchor="start" x="246.5042" y="-203.9" font-family="Arial" font-size="14.00" fill="#666666">[name]</text>
<polygon fill="none" stroke="#000000" points="113.5,-162.5 113.5,-192.5 481.5,-192.5 481.5,-162.5 113.5,-162.5"/>
<text text-anchor="start" x="120.5" y="-173.9" font-family="Arial" font-size="14.00" fill="#000000">table_name    </text>
<text text-anchor="start" x="227.8408" y="-173.9" font-family="Arial" font-size="14.00" fill="#666666">[name]</text>
<polygon fill="none" stroke="#000000" points="113.5,-132.5 113.5,-162.5 481.5,-162.5 481.5,-132.5 113.5,-132.5"/>
<text text-anchor="start" x="120.5" y="-143.9" font-family="Arial" font-size="14.00" fill="#000000">compressed_chunk_id    </text>
<text text-anchor="start" x="294.7412" y="-143.9" font-family="Arial" font-size="14.00" fill="#666666">[integer]</text>
<polygon fill="none" stroke="#000000" points="113.5,-102.5 113.5,-132.5 481.5,-132.5 481.5,-102.5 113.5,-102.5"/>
<text text-anchor="start" x="120.5" y="-113.9" font-family="Arial" font-size="14.00" fill="#000000">dropped    </text>
<text text-anchor="start" x="206.061" y="-113.9" font-family="Arial" font-size="14.00" fill="#666666">[boolean]</text>
<polygon fill="none" stroke="#000000" points="113.5,-72.5 113.5,-102.5 481.5,-102.5 481.5,-72.5 113.5,-72.5"/>
<text text-anchor="start" x="120.5" y="-83.9" font-family="Arial" font-size="14.00" fill="#000000">status    </text>
<text text-anchor="start" x="192.0512" y="-83.9" font-family="Arial" font-size="14.00" fill="#666666">[integer]</text>
<polygon fill="none" stroke="#000000" points="113.5,-42.5 113.5,-72.5 481.5,-72.5 481.5,-42.5 113.5,-42.5"/>
<text text-anchor="start" x="120.5" y="-53.9" font-family="Arial" font-size="14.00" fill="#000000">osm_chunk    </text>
<text text-anchor="start" x="226.2784" y="-53.9" font-family="Arial" font-size="14.00" fill="#666666">[boolean]</text>
</g>
<!-- _timescaledb_catalog.chunk_copy_operation&#45;&gt;_timescaledb_catalog.chunk -->
<g id="edge1" class="edge">
<title>_timescaledb_catalog.chunk_copy_operation:chunk_id&#45;&gt;_timescaledb_catalog.chunk:id</title>
<path fill="none" stroke="#000000" d="M557.6758,-576.7813C625.3386,-566.7121 599.3899,-453.3723 547.5,-397 481.9587,-325.797 179.0413,-432.203 113.5,-361 85.3565,-330.4254 71.9444,-267.5 113.5,-267.5"/>
<polygon fill="#000000" stroke="#000000" points="557.4751,-576.7953 547.1829,-573.0112 552.4876,-577.1477 547.5,-577.5 547.5,-577.5 547.5,-577.5 552.4876,-577.1477 547.8171,-581.9888 557.4751,-576.7953 557.4751,-576.7953"/>
<text text-anchor="start" x="554.0875" y="-587.5" font-family="Arial" font-size="10.00" fill="#000000">FOREIGN KEY (chunk_id) REFERENCES _timescaledb_catalog.chunk(id) ON DELETE CASCADE</text>
</g>
</g>
</svg>
