<?xml version="1.0" encoding="UTF-8" standalone="no"?>
<!DOCTYPE svg PUBLIC "-//W3C//DTD SVG 1.1//EN"
 "http://www.w3.org/Graphics/SVG/1.1/DTD/svg11.dtd">
<!-- Generated by graphviz version 2.40.1 (20161225.0304)
 -->
<!-- Title: _timescaledb_catalog.dimension_partition Pages: 1 -->
<svg width="1024pt" height="742pt"
 viewBox="0.00 0.00 1024.00 742.00" xmlns="http://www.w3.org/2000/svg" xmlns:xlink="http://www.w3.org/1999/xlink">
<g id="graph0" class="graph" transform="scale(1 1) rotate(0) translate(4 738)">
<title>_timescaledb_catalog.dimension_partition</title>
<polygon fill="#ffffff" stroke="transparent" points="-4,4 -4,-738 1020,-738 1020,4 -4,4"/>
<!-- _timescaledb_catalog.dimension_partition -->
<g id="node1" class="node">
<title>_timescaledb_catalog.dimension_partition</title>
<polygon fill="#efefef" stroke="transparent" points="46,-652.5 46,-687.5 522,-687.5 522,-652.5 46,-652.5"/>
<polygon fill="none" stroke="#000000" points="46,-652.5 46,-687.5 522,-687.5 522,-652.5 46,-652.5"/>
<text text-anchor="start" x="52.6774" y="-665.3" font-family="Arial Bold" font-size="18.00" fill="#000000">_timescaledb_catalog.dimension_partition</text>
<text text-anchor="start" x="387.7546" y="-665.3" font-family="Arial" font-size="14.00" fill="#000000">    </text>
<text text-anchor="start" x="421.9594" y="-665.3" font-family="Arial" font-size="14.00" fill="#666666">[BASE TABLE]</text>
<polygon fill="none" stroke="#000000" points="46,-622.5 46,-652.5 522,-652.5 522,-622.5 46,-622.5"/>
<text text-anchor="start" x="53" y="-633.9" font-family="Arial" font-size="14.00" fill="#000000">dimension_id </text>
<text text-anchor="start" x="139.3492" y="-633.9" font-family="Arial" font-size="14.00" fill="#666666">[integer]</text>
<polygon fill="none" stroke="#000000" points="46,-592.5 46,-622.5 522,-622.5 522,-592.5 46,-592.5"/>
<text text-anchor="start" x="53" y="-603.9" font-family="Arial" font-size="14.00" fill="#000000">range_start </text>
<text text-anchor="start" x="127.6886" y="-603.9" font-family="Arial" font-size="14.00" fill="#666666">[bigint]</text>
<polygon fill="none" stroke="#000000" points="46,-562.5 46,-592.5 522,-592.5 522,-562.5 46,-562.5"/>
<text text-anchor="start" x="53" y="-573.9" font-family="Arial" font-size="14.00" fill="#000000">data_nodes </text>
<text text-anchor="start" x="130.042" y="-573.9" font-family="Arial" font-size="14.00" fill="#666666">[name[]]</text>
<polygon fill="none" stroke="#000000" stroke-width="3" points="44.5,-561.5 44.5,-689.5 523.5,-689.5 523.5,-561.5 44.5,-561.5"/>
</g>
<!-- _timescaledb_catalog.dimension -->
<g id="node2" class="node">
<title>_timescaledb_catalog.dimension</title>
<polygon fill="#efefef" stroke="transparent" points="83,-402.5 83,-437.5 485,-437.5 485,-402.5 83,-402.5"/>
<polygon fill="none" stroke="#000000" points="83,-402.5 83,-437.5 485,-437.5 485,-402.5 83,-402.5"/>
<text text-anchor="start" x="89.6854" y="-415.3" font-family="Arial Bold" font-size="18.00" fill="#000000">_timescaledb_catalog.dimension</text>
<text text-anchor="start" x="350.7466" y="-415.3" font-family="Arial" font-size="14.00" fill="#000000">    </text>
<text text-anchor="start" x="384.9514" y="-415.3" font-family="Arial" font-size="14.00" fill="#666666">[BASE TABLE]</text>
<polygon fill="none" stroke="#000000" points="83,-372.5 83,-402.5 485,-402.5 485,-372.5 83,-372.5"/>
<text text-anchor="start" x="90" y="-383.9" font-family="Arial" font-size="14.00" fill="#000000">id    </text>
<text text-anchor="start" x="135.094" y="-383.9" font-family="Arial" font-size="14.00" fill="#666666">[integer]</text>
<polygon fill="none" stroke="#000000" points="83,-342.5 83,-372.5 485,-372.5 485,-342.5 83,-342.5"/>
<text text-anchor="start" x="90" y="-353.9" font-family="Arial" font-size="14.00" fill="#000000">hypertable_id    </text>
<text text-anchor="start" x="208.23" y="-353.9" font-family="Arial" font-size="14.00" fill="#666666">[integer]</text>
<polygon fill="none" stroke="#000000" points="83,-312.5 83,-342.5 485,-342.5 485,-312.5 83,-312.5"/>
<text text-anchor="start" x="90" y="-323.9" font-family="Arial" font-size="14.00" fill="#000000">column_name    </text>
<text text-anchor="start" x="212.1108" y="-323.9" font-family="Arial" font-size="14.00" fill="#666666">[name]</text>
<polygon fill="none" stroke="#000000" points="83,-282.5 83,-312.5 485,-312.5 485,-282.5 83,-282.5"/>
<text text-anchor="start" x="90" y="-293.9" font-family="Arial" font-size="14.00" fill="#000000">column_type    </text>
<text text-anchor="start" x="203.5582" y="-293.9" font-family="Arial" font-size="14.00" fill="#666666">[regtype]</text>
<polygon fill="none" stroke="#000000" points="83,-252.5 83,-282.5 485,-282.5 485,-252.5 83,-252.5"/>
<text text-anchor="start" x="90" y="-263.9" font-family="Arial" font-size="14.00" fill="#000000">aligned    </text>
<text text-anchor="start" x="169.331" y="-263.9" font-family="Arial" font-size="14.00" fill="#666666">[boolean]</text>
<polygon fill="none" stroke="#000000" points="83,-222.5 83,-252.5 485,-252.5 485,-222.5 83,-222.5"/>
<text text-anchor="start" x="90" y="-233.9" font-family="Arial" font-size="14.00" fill="#000000">num_slices    </text>
<text text-anchor="start" x="194.209" y="-233.9" font-family="Arial" font-size="14.00" fill="#666666">[smallint]</text>
<polygon fill="none" stroke="#000000" points="83,-192.5 83,-222.5 485,-222.5 485,-192.5 83,-192.5"/>
<text text-anchor="start" x="90" y="-203.9" font-family="Arial" font-size="14.00" fill="#000000">partitioning_func_schema    </text>
<text text-anchor="start" x="283.6914" y="-203.9" font-family="Arial" font-size="14.00" fill="#666666">[name]</text>
<polygon fill="none" stroke="#000000" points="83,-162.5 83,-192.5 485,-192.5 485,-162.5 83,-162.5"/>
<text text-anchor="start" x="90" y="-173.9" font-family="Arial" font-size="14.00" fill="#000000">partitioning_func    </text>
<text text-anchor="start" x="226.9004" y="-173.9" font-family="Arial" font-size="14.00" fill="#666666">[name]</text>
<polygon fill="none" stroke="#000000" points="83,-132.5 83,-162.5 485,-162.5 485,-132.5 83,-132.5"/>
<text text-anchor="start" x="90" y="-143.9" font-family="Arial" font-size="14.00" fill="#000000">interval_length    </text>
<text text-anchor="start" x="215.2272" y="-143.9" font-family="Arial" font-size="14.00" fill="#666666">[bigint]</text>
<polygon fill="none" stroke="#000000" points="83,-102.5 83,-132.5 485,-132.5 485,-102.5 83,-102.5"/>
<text text-anchor="start" x="90" y="-113.9" font-family="Arial" font-size="14.00" fill="#000000">compress_interval_length    </text>
<text text-anchor="start" x="283.6788" y="-113.9" font-family="Arial" font-size="14.00" fill="#666666">[bigint]</text>
<polygon fill="none" stroke="#000000" points="83,-72.5 83,-102.5 485,-102.5 485,-72.5 83,-72.5"/>
<text text-anchor="start" x="90" y="-83.9" font-family="Arial" font-size="14.00" fill="#000000">integer_now_func_schema    </text>
<text text-anchor="start" x="291.4768" y="-83.9" font-family="Arial" font-size="14.00" fill="#666666">[name]</text>
<polygon fill="none" stroke="#000000" points="83,-42.5 83,-72.5 485,-72.5 485,-42.5 83,-42.5"/>
<text text-anchor="start" x="90" y="-53.9" font-family="Arial" font-size="14.00" fill="#000000">integer_now_func    </text>
<text text-anchor="start" x="234.6858" y="-53.9" font-family="Arial" font-size="14.00" fill="#666666">[name]</text>
</g>
<!-- _timescaledb_catalog.dimension_partition&#45;&gt;_timescaledb_catalog.dimension -->
<g id="edge1" class="edge">
<title>_timescaledb_catalog.dimension_partition:dimension_id&#45;&gt;_timescaledb_catalog.dimension:id</title>
<path fill="none" stroke="#000000" d="M532.0949,-636.7828C631.9354,-622.1191 593.8114,-387.5 485,-387.5"/>
<polygon fill="#000000" stroke="#000000" points="531.9749,-636.7913 521.6811,-633.0113 526.9874,-637.1456 522,-637.5 522,-637.5 522,-637.5 526.9874,-637.1456 522.3189,-641.9887 531.9749,-636.7913 531.9749,-636.7913"/>
<text text-anchor="start" x="528.7025" y="-647.5" font-family="Arial" font-size="10.00" fill="#000000">FOREIGN KEY (dimension_id) REFERENCES _timescaledb_catalog.dimension(id) ON DELETE CASCADE</text>
</g>
</g>
</svg>
