<?xml version="1.0" encoding="UTF-8" standalone="no"?>
<!DOCTYPE svg PUBLIC "-//W3C//DTD SVG 1.1//EN"
 "http://www.w3.org/Graphics/SVG/1.1/DTD/svg11.dtd">
<!-- Generated by graphviz version 2.40.1 (20161225.0304)
 -->
<!-- Title: _timescaledb_config.bgw_job Pages: 1 -->
<svg width="1237pt" height="1769pt"
 viewBox="0.00 0.00 1236.50 1769.00" xmlns="http://www.w3.org/2000/svg" xmlns:xlink="http://www.w3.org/1999/xlink">
<g id="graph0" class="graph" transform="scale(1 1) rotate(0) translate(4 1765)">
<title>_timescaledb_config.bgw_job</title>
<polygon fill="#ffffff" stroke="transparent" points="-4,4 -4,-1765 1232.5,-1765 1232.5,4 -4,4"/>
<!-- _timescaledb_config.bgw_job -->
<g id="node1" class="node">
<title>_timescaledb_config.bgw_job</title>
<polygon fill="#efefef" stroke="transparent" points="355.5,-1072.5 355.5,-1107.5 732.5,-1107.5 732.5,-1072.5 355.5,-1072.5"/>
<polygon fill="none" stroke="#000000" points="355.5,-1072.5 355.5,-1107.5 732.5,-1107.5 732.5,-1072.5 355.5,-1072.5"/>
<text text-anchor="start" x="362.1846" y="-1085.3" font-family="Arial Bold" font-size="18.00" fill="#000000">_timescaledb_config.bgw_job</text>
<text text-anchor="start" x="598.2474" y="-1085.3" font-family="Arial" font-size="14.00" fill="#000000">    </text>
<text text-anchor="start" x="632.4522" y="-1085.3" font-family="Arial" font-size="14.00" fill="#666666">[BASE TABLE]</text>
<polygon fill="none" stroke="#000000" points="355.5,-1042.5 355.5,-1072.5 732.5,-1072.5 732.5,-1042.5 355.5,-1042.5"/>
<text text-anchor="start" x="362.5" y="-1053.9" font-family="Arial" font-size="14.00" fill="#000000">id </text>
<text text-anchor="start" x="377.2798" y="-1053.9" font-family="Arial" font-size="14.00" fill="#666666">[integer]</text>
<polygon fill="none" stroke="#000000" points="355.5,-1012.5 355.5,-1042.5 732.5,-1042.5 732.5,-1012.5 355.5,-1012.5"/>
<text text-anchor="start" x="362.5" y="-1023.9" font-family="Arial" font-size="14.00" fill="#000000">application_name </text>
<text text-anchor="start" x="476.0876" y="-1023.9" font-family="Arial" font-size="14.00" fill="#666666">[name]</text>
<polygon fill="none" stroke="#000000" points="355.5,-982.5 355.5,-1012.5 732.5,-1012.5 732.5,-982.5 355.5,-982.5"/>
<text text-anchor="start" x="362.5" y="-993.9" font-family="Arial" font-size="14.00" fill="#000000">schedule_interval </text>
<text text-anchor="start" x="475.305" y="-993.9" font-family="Arial" font-size="14.00" fill="#666666">[interval]</text>
<polygon fill="none" stroke="#000000" points="355.5,-952.5 355.5,-982.5 732.5,-982.5 732.5,-952.5 355.5,-952.5"/>
<text text-anchor="start" x="362.5" y="-963.9" font-family="Arial" font-size="14.00" fill="#000000">max_runtime </text>
<text text-anchor="start" x="447.2826" y="-963.9" font-family="Arial" font-size="14.00" fill="#666666">[interval]</text>
<polygon fill="none" stroke="#000000" points="355.5,-922.5 355.5,-952.5 732.5,-952.5 732.5,-922.5 355.5,-922.5"/>
<text text-anchor="start" x="362.5" y="-933.9" font-family="Arial" font-size="14.00" fill="#000000">max_retries </text>
<text text-anchor="start" x="439.5" y="-933.9" font-family="Arial" font-size="14.00" fill="#666666">[integer]</text>
<polygon fill="none" stroke="#000000" points="355.5,-892.5 355.5,-922.5 732.5,-922.5 732.5,-892.5 355.5,-892.5"/>
<text text-anchor="start" x="362.5" y="-903.9" font-family="Arial" font-size="14.00" fill="#000000">retry_period </text>
<text text-anchor="start" x="441.0652" y="-903.9" font-family="Arial" font-size="14.00" fill="#666666">[interval]</text>
<polygon fill="none" stroke="#000000" points="355.5,-862.5 355.5,-892.5 732.5,-892.5 732.5,-862.5 355.5,-862.5"/>
<text text-anchor="start" x="362.5" y="-873.9" font-family="Arial" font-size="14.00" fill="#000000">proc_schema </text>
<text text-anchor="start" x="450.4074" y="-873.9" font-family="Arial" font-size="14.00" fill="#666666">[name]</text>
<polygon fill="none" stroke="#000000" points="355.5,-832.5 355.5,-862.5 732.5,-862.5 732.5,-832.5 355.5,-832.5"/>
<text text-anchor="start" x="362.5" y="-843.9" font-family="Arial" font-size="14.00" fill="#000000">proc_name </text>
<text text-anchor="start" x="436.4074" y="-843.9" font-family="Arial" font-size="14.00" fill="#666666">[name]</text>
<polygon fill="none" stroke="#000000" points="355.5,-802.5 355.5,-832.5 732.5,-832.5 732.5,-802.5 355.5,-802.5"/>
<text text-anchor="start" x="362.5" y="-813.9" font-family="Arial" font-size="14.00" fill="#000000">owner </text>
<text text-anchor="start" x="404.5056" y="-813.9" font-family="Arial" font-size="14.00" fill="#666666">[regrole]</text>
<polygon fill="none" stroke="#000000" points="355.5,-772.5 355.5,-802.5 732.5,-802.5 732.5,-772.5 355.5,-772.5"/>
<text text-anchor="start" x="362.5" y="-783.9" font-family="Arial" font-size="14.00" fill="#000000">scheduled </text>
<text text-anchor="start" x="430.1928" y="-783.9" font-family="Arial" font-size="14.00" fill="#666666">[boolean]</text>
<polygon fill="none" stroke="#000000" points="355.5,-742.5 355.5,-772.5 732.5,-772.5 732.5,-742.5 355.5,-742.5"/>
<text text-anchor="start" x="362.5" y="-753.9" font-family="Arial" font-size="14.00" fill="#000000">fixed_schedule </text>
<text text-anchor="start" x="459.7552" y="-753.9" font-family="Arial" font-size="14.00" fill="#666666">[boolean]</text>
<polygon fill="none" stroke="#000000" points="355.5,-712.5 355.5,-742.5 732.5,-742.5 732.5,-712.5 355.5,-712.5"/>
<text text-anchor="start" x="362.5" y="-723.9" font-family="Arial" font-size="14.00" fill="#000000">initial_start </text>
<text text-anchor="start" x="433.2798" y="-723.9" font-family="Arial" font-size="14.00" fill="#666666">[timestamp with time zone]</text>
<polygon fill="none" stroke="#000000" points="355.5,-682.5 355.5,-712.5 732.5,-712.5 732.5,-682.5 355.5,-682.5"/>
<text text-anchor="start" x="362.5" y="-693.9" font-family="Arial" font-size="14.00" fill="#000000">hypertable_id </text>
<text text-anchor="start" x="450.4158" y="-693.9" font-family="Arial" font-size="14.00" fill="#666666">[integer]</text>
<polygon fill="none" stroke="#000000" points="355.5,-652.5 355.5,-682.5 732.5,-682.5 732.5,-652.5 355.5,-652.5"/>
<text text-anchor="start" x="362.5" y="-663.9" font-family="Arial" font-size="14.00" fill="#000000">config </text>
<text text-anchor="start" x="403.7356" y="-663.9" font-family="Arial" font-size="14.00" fill="#666666">[jsonb]</text>
<polygon fill="none" stroke="#000000" points="355.5,-622.5 355.5,-652.5 732.5,-652.5 732.5,-622.5 355.5,-622.5"/>
<text text-anchor="start" x="362.5" y="-633.9" font-family="Arial" font-size="14.00" fill="#000000">check_schema </text>
<text text-anchor="start" x="459.7468" y="-633.9" font-family="Arial" font-size="14.00" fill="#666666">[name]</text>
<polygon fill="none" stroke="#000000" points="355.5,-592.5 355.5,-622.5 732.5,-622.5 732.5,-592.5 355.5,-592.5"/>
<text text-anchor="start" x="362.5" y="-603.9" font-family="Arial" font-size="14.00" fill="#000000">check_name </text>
<text text-anchor="start" x="445.7468" y="-603.9" font-family="Arial" font-size="14.00" fill="#666666">[name]</text>
<polygon fill="none" stroke="#000000" points="355.5,-562.5 355.5,-592.5 732.5,-592.5 732.5,-562.5 355.5,-562.5"/>
<text text-anchor="start" x="362.5" y="-573.9" font-family="Arial" font-size="14.00" fill="#000000">timezone </text>
<text text-anchor="start" x="423.1788" y="-573.9" font-family="Arial" font-size="14.00" fill="#666666">[text]</text>
<polygon fill="none" stroke="#000000" stroke-width="3" points="353.5,-561.5 353.5,-1109.5 733.5,-1109.5 733.5,-561.5 353.5,-561.5"/>
</g>
<!-- _timescaledb_catalog.hypertable -->
<g id="node4" class="node">
<title>_timescaledb_catalog.hypertable</title>
<polygon fill="#efefef" stroke="transparent" points="342.5,-402.5 342.5,-437.5 746.5,-437.5 746.5,-402.5 342.5,-402.5"/>
<polygon fill="none" stroke="#000000" points="342.5,-402.5 342.5,-437.5 746.5,-437.5 746.5,-402.5 342.5,-402.5"/>
<text text-anchor="start" x="349.1783" y="-415.3" font-family="Arial Bold" font-size="18.00" fill="#000000">_timescaledb_catalog.hypertable</text>
<text text-anchor="start" x="612.2537" y="-415.3" font-family="Arial" font-size="14.00" fill="#000000">    </text>
<text text-anchor="start" x="646.4585" y="-415.3" font-family="Arial" font-size="14.00" fill="#666666">[BASE TABLE]</text>
<polygon fill="none" stroke="#000000" points="342.5,-372.5 342.5,-402.5 746.5,-402.5 746.5,-372.5 342.5,-372.5"/>
<text text-anchor="start" x="349.5" y="-383.9" font-family="Arial" font-size="14.00" fill="#000000">id    </text>
<text text-anchor="start" x="394.594" y="-383.9" font-family="Arial" font-size="14.00" fill="#666666">[integer]</text>
<polygon fill="none" stroke="#000000" points="342.5,-342.5 342.5,-372.5 746.5,-372.5 746.5,-342.5 342.5,-342.5"/>
<text text-anchor="start" x="349.5" y="-353.9" font-family="Arial" font-size="14.00" fill="#000000">schema_name    </text>
<text text-anchor="start" x="475.5042" y="-353.9" font-family="Arial" font-size="14.00" fill="#666666">[name]</text>
<polygon fill="none" stroke="#000000" points="342.5,-312.5 342.5,-342.5 746.5,-342.5 746.5,-312.5 342.5,-312.5"/>
<text text-anchor="start" x="349.5" y="-323.9" font-family="Arial" font-size="14.00" fill="#000000">table_name    </text>
<text text-anchor="start" x="456.8408" y="-323.9" font-family="Arial" font-size="14.00" fill="#666666">[name]</text>
<polygon fill="none" stroke="#000000" points="342.5,-282.5 342.5,-312.5 746.5,-312.5 746.5,-282.5 342.5,-282.5"/>
<text text-anchor="start" x="349.5" y="-293.9" font-family="Arial" font-size="14.00" fill="#000000">associated_schema_name    </text>
<text text-anchor="start" x="550.197" y="-293.9" font-family="Arial" font-size="14.00" fill="#666666">[name]</text>
<polygon fill="none" stroke="#000000" points="342.5,-252.5 342.5,-282.5 746.5,-282.5 746.5,-252.5 342.5,-252.5"/>
<text text-anchor="start" x="349.5" y="-263.9" font-family="Arial" font-size="14.00" fill="#000000">associated_table_prefix    </text>
<text text-anchor="start" x="530.7482" y="-263.9" font-family="Arial" font-size="14.00" fill="#666666">[name]</text>
<polygon fill="none" stroke="#000000" points="342.5,-222.5 342.5,-252.5 746.5,-252.5 746.5,-222.5 342.5,-222.5"/>
<text text-anchor="start" x="349.5" y="-233.9" font-family="Arial" font-size="14.00" fill="#000000">num_dimensions    </text>
<text text-anchor="start" x="489.5" y="-233.9" font-family="Arial" font-size="14.00" fill="#666666">[smallint]</text>
<polygon fill="none" stroke="#000000" points="342.5,-192.5 342.5,-222.5 746.5,-222.5 746.5,-192.5 342.5,-192.5"/>
<text text-anchor="start" x="349.5" y="-203.9" font-family="Arial" font-size="14.00" fill="#000000">chunk_sizing_func_schema    </text>
<text text-anchor="start" x="555.643" y="-203.9" font-family="Arial" font-size="14.00" fill="#666666">[name]</text>
<polygon fill="none" stroke="#000000" points="342.5,-162.5 342.5,-192.5 746.5,-192.5 746.5,-162.5 342.5,-162.5"/>
<text text-anchor="start" x="349.5" y="-173.9" font-family="Arial" font-size="14.00" fill="#000000">chunk_sizing_func_name    </text>
<text text-anchor="start" x="541.643" y="-173.9" font-family="Arial" font-size="14.00" fill="#666666">[name]</text>
<polygon fill="none" stroke="#000000" points="342.5,-132.5 342.5,-162.5 746.5,-162.5 746.5,-132.5 342.5,-132.5"/>
<text text-anchor="start" x="349.5" y="-143.9" font-family="Arial" font-size="14.00" fill="#000000">chunk_target_size    </text>
<text text-anchor="start" x="497.2966" y="-143.9" font-family="Arial" font-size="14.00" fill="#666666">[bigint]</text>
<polygon fill="none" stroke="#000000" points="342.5,-102.5 342.5,-132.5 746.5,-132.5 746.5,-102.5 342.5,-102.5"/>
<text text-anchor="start" x="349.5" y="-113.9" font-family="Arial" font-size="14.00" fill="#000000">compression_state    </text>
<text text-anchor="start" x="501.1746" y="-113.9" font-family="Arial" font-size="14.00" fill="#666666">[smallint]</text>
<polygon fill="none" stroke="#000000" points="342.5,-72.5 342.5,-102.5 746.5,-102.5 746.5,-72.5 342.5,-72.5"/>
<text text-anchor="start" x="349.5" y="-83.9" font-family="Arial" font-size="14.00" fill="#000000">compressed_hypertable_id    </text>
<text text-anchor="start" x="551.7468" y="-83.9" font-family="Arial" font-size="14.00" fill="#666666">[integer]</text>
<polygon fill="none" stroke="#000000" points="342.5,-42.5 342.5,-72.5 746.5,-72.5 746.5,-42.5 342.5,-42.5"/>
<text text-anchor="start" x="349.5" y="-53.9" font-family="Arial" font-size="14.00" fill="#000000">replication_factor    </text>
<text text-anchor="start" x="490.2784" y="-53.9" font-family="Arial" font-size="14.00" fill="#666666">[smallint]</text>
</g>
<!-- _timescaledb_config.bgw_job&#45;&gt;_timescaledb_catalog.hypertable -->
<g id="edge3" class="edge">
<title>_timescaledb_config.bgw_job:hypertable_id&#45;&gt;_timescaledb_catalog.hypertable:id</title>
<path fill="none" stroke="#000000" d="M742.6742,-696.7827C810.3151,-686.7337 784.1275,-573.6126 732.5,-517 673.8535,-452.6906 401.1465,-545.3094 342.5,-481 314.4988,-450.295 300.9444,-387.5 342.5,-387.5"/>
<polygon fill="#000000" stroke="#000000" points="742.4752,-696.7967 732.1835,-693.0111 737.4876,-697.1483 732.5,-697.5 732.5,-697.5 732.5,-697.5 737.4876,-697.1483 732.8165,-701.9889 742.4752,-696.7967 742.4752,-696.7967"/>
<text text-anchor="start" x="739.0835" y="-707.5" font-family="Arial" font-size="10.00" fill="#000000">FOREIGN KEY (hypertable_id) REFERENCES _timescaledb_catalog.hypertable(id) ON DELETE CASCADE</text>
</g>
<!-- _timescaledb_internal.bgw_job_stat -->
<g id="node2" class="node">
<title>_timescaledb_internal.bgw_job_stat</title>
<polygon fill="#efefef" stroke="transparent" points="43.5,-1682.5 43.5,-1717.5 470.5,-1717.5 470.5,-1682.5 43.5,-1682.5"/>
<polygon fill="none" stroke="#000000" points="43.5,-1682.5 43.5,-1717.5 470.5,-1717.5 470.5,-1682.5 43.5,-1682.5"/>
<text text-anchor="start" x="50.1799" y="-1695.3" font-family="Arial Bold" font-size="18.00" fill="#000000">_timescaledb_internal.bgw_job_stat</text>
<text text-anchor="start" x="336.2521" y="-1695.3" font-family="Arial" font-size="14.00" fill="#000000">    </text>
<text text-anchor="start" x="370.4569" y="-1695.3" font-family="Arial" font-size="14.00" fill="#666666">[BASE TABLE]</text>
<polygon fill="none" stroke="#000000" points="43.5,-1652.5 43.5,-1682.5 470.5,-1682.5 470.5,-1652.5 43.5,-1652.5"/>
<text text-anchor="start" x="50.5" y="-1663.9" font-family="Arial" font-size="14.00" fill="#000000">job_id    </text>
<text text-anchor="start" x="122.0484" y="-1663.9" font-family="Arial" font-size="14.00" fill="#666666">[integer]</text>
<polygon fill="none" stroke="#000000" points="43.5,-1622.5 43.5,-1652.5 470.5,-1652.5 470.5,-1622.5 43.5,-1622.5"/>
<text text-anchor="start" x="50.5" y="-1633.9" font-family="Arial" font-size="14.00" fill="#000000">last_start    </text>
<text text-anchor="start" x="141.4916" y="-1633.9" font-family="Arial" font-size="14.00" fill="#666666">[timestamp with time zone]</text>
<polygon fill="none" stroke="#000000" points="43.5,-1592.5 43.5,-1622.5 470.5,-1622.5 470.5,-1592.5 43.5,-1592.5"/>
<text text-anchor="start" x="50.5" y="-1603.9" font-family="Arial" font-size="14.00" fill="#000000">last_finish    </text>
<text text-anchor="start" x="146.9362" y="-1603.9" font-family="Arial" font-size="14.00" fill="#666666">[timestamp with time zone]</text>
<polygon fill="none" stroke="#000000" points="43.5,-1562.5 43.5,-1592.5 470.5,-1592.5 470.5,-1562.5 43.5,-1562.5"/>
<text text-anchor="start" x="50.5" y="-1573.9" font-family="Arial" font-size="14.00" fill="#000000">next_start    </text>
<text text-anchor="start" x="146.1676" y="-1573.9" font-family="Arial" font-size="14.00" fill="#666666">[timestamp with time zone]</text>
<polygon fill="none" stroke="#000000" points="43.5,-1532.5 43.5,-1562.5 470.5,-1562.5 470.5,-1532.5 43.5,-1532.5"/>
<text text-anchor="start" x="50.5" y="-1543.9" font-family="Arial" font-size="14.00" fill="#000000">last_successful_finish    </text>
<text text-anchor="start" x="220.0638" y="-1543.9" font-family="Arial" font-size="14.00" fill="#666666">[timestamp with time zone]</text>
<polygon fill="none" stroke="#000000" points="43.5,-1502.5 43.5,-1532.5 470.5,-1532.5 470.5,-1502.5 43.5,-1502.5"/>
<text text-anchor="start" x="50.5" y="-1513.9" font-family="Arial" font-size="14.00" fill="#000000">last_run_success    </text>
<text text-anchor="start" x="192.8408" y="-1513.9" font-family="Arial" font-size="14.00" fill="#666666">[boolean]</text>
<polygon fill="none" stroke="#000000" points="43.5,-1472.5 43.5,-1502.5 470.5,-1502.5 470.5,-1472.5 43.5,-1472.5"/>
<text text-anchor="start" x="50.5" y="-1483.9" font-family="Arial" font-size="14.00" fill="#000000">total_runs    </text>
<text text-anchor="start" x="146.1662" y="-1483.9" font-family="Arial" font-size="14.00" fill="#666666">[bigint]</text>
<polygon fill="none" stroke="#000000" points="43.5,-1442.5 43.5,-1472.5 470.5,-1472.5 470.5,-1442.5 43.5,-1442.5"/>
<text text-anchor="start" x="50.5" y="-1453.9" font-family="Arial" font-size="14.00" fill="#000000">total_duration    </text>
<text text-anchor="start" x="169.5112" y="-1453.9" font-family="Arial" font-size="14.00" fill="#666666">[interval]</text>
<polygon fill="none" stroke="#000000" points="43.5,-1412.5 43.5,-1442.5 470.5,-1442.5 470.5,-1412.5 43.5,-1412.5"/>
<text text-anchor="start" x="50.5" y="-1423.9" font-family="Arial" font-size="14.00" fill="#000000">total_duration_failures    </text>
<text text-anchor="start" x="222.406" y="-1423.9" font-family="Arial" font-size="14.00" fill="#666666">[interval]</text>
<polygon fill="none" stroke="#000000" points="43.5,-1382.5 43.5,-1412.5 470.5,-1412.5 470.5,-1382.5 43.5,-1382.5"/>
<text text-anchor="start" x="50.5" y="-1393.9" font-family="Arial" font-size="14.00" fill="#000000">total_successes    </text>
<text text-anchor="start" x="184.2882" y="-1393.9" font-family="Arial" font-size="14.00" fill="#666666">[bigint]</text>
<polygon fill="none" stroke="#000000" points="43.5,-1352.5 43.5,-1382.5 470.5,-1382.5 470.5,-1352.5 43.5,-1352.5"/>
<text text-anchor="start" x="50.5" y="-1363.9" font-family="Arial" font-size="14.00" fill="#000000">total_failures    </text>
<text text-anchor="start" x="164.0526" y="-1363.9" font-family="Arial" font-size="14.00" fill="#666666">[bigint]</text>
<polygon fill="none" stroke="#000000" points="43.5,-1322.5 43.5,-1352.5 470.5,-1352.5 470.5,-1322.5 43.5,-1322.5"/>
<text text-anchor="start" x="50.5" y="-1333.9" font-family="Arial" font-size="14.00" fill="#000000">total_crashes    </text>
<text text-anchor="start" x="167.9488" y="-1333.9" font-family="Arial" font-size="14.00" fill="#666666">[bigint]</text>
<polygon fill="none" stroke="#000000" points="43.5,-1292.5 43.5,-1322.5 470.5,-1322.5 470.5,-1292.5 43.5,-1292.5"/>
<text text-anchor="start" x="50.5" y="-1303.9" font-family="Arial" font-size="14.00" fill="#000000">consecutive_failures    </text>
<text text-anchor="start" x="211.5098" y="-1303.9" font-family="Arial" font-size="14.00" fill="#666666">[integer]</text>
<polygon fill="none" stroke="#000000" points="43.5,-1262.5 43.5,-1292.5 470.5,-1292.5 470.5,-1262.5 43.5,-1262.5"/>
<text text-anchor="start" x="50.5" y="-1273.9" font-family="Arial" font-size="14.00" fill="#000000">consecutive_crashes    </text>
<text text-anchor="start" x="215.406" y="-1273.9" font-family="Arial" font-size="14.00" fill="#666666">[integer]</text>
<polygon fill="none" stroke="#000000" points="43.5,-1232.5 43.5,-1262.5 470.5,-1262.5 470.5,-1232.5 43.5,-1232.5"/>
<text text-anchor="start" x="50.5" y="-1243.9" font-family="Arial" font-size="14.00" fill="#000000">flags    </text>
<text text-anchor="start" x="114.2672" y="-1243.9" font-family="Arial" font-size="14.00" fill="#666666">[integer]</text>
</g>
<!-- _timescaledb_internal.bgw_job_stat&#45;&gt;_timescaledb_config.bgw_job -->
<g id="edge1" class="edge">
<title>_timescaledb_internal.bgw_job_stat:job_id&#45;&gt;_timescaledb_config.bgw_job:id</title>
<path fill="none" stroke="#000000" d="M479.5884,-1662.6072C520.8124,-1614.688 499.9526,-1230.082 470.5,-1190 438.787,-1146.8418 387.213,-1197.1582 355.5,-1154 330.1039,-1119.4385 312.6111,-1057.5 355.5,-1057.5"/>
<polygon fill="#000000" stroke="#000000" points="479.3051,-1662.7597 468.3668,-1663.5377 474.9026,-1665.1298 470.5,-1667.5 470.5,-1667.5 470.5,-1667.5 474.9026,-1665.1298 472.6332,-1671.4623 479.3051,-1662.7597 479.3051,-1662.7597"/>
<text text-anchor="start" x="477.259" y="-1677.5" font-family="Arial" font-size="10.00" fill="#000000">FOREIGN KEY (job_id) REFERENCES _timescaledb_config.bgw_job(id) ON DELETE CASCADE</text>
</g>
<!-- _timescaledb_internal.bgw_policy_chunk_stats -->
<g id="node3" class="node">
<title>_timescaledb_internal.bgw_policy_chunk_stats</title>
<polygon fill="#efefef" stroke="transparent" points="574.5,-1517.5 574.5,-1552.5 1090.5,-1552.5 1090.5,-1517.5 574.5,-1517.5"/>
<polygon fill="none" stroke="#000000" points="574.5,-1517.5 574.5,-1552.5 1090.5,-1552.5 1090.5,-1517.5 574.5,-1517.5"/>
<text text-anchor="start" x="581.1704" y="-1530.3" font-family="Arial Bold" font-size="18.00" fill="#000000">_timescaledb_internal.bgw_policy_chunk_stats</text>
<text text-anchor="start" x="956.2616" y="-1530.3" font-family="Arial" font-size="14.00" fill="#000000">    </text>
<text text-anchor="start" x="990.4664" y="-1530.3" font-family="Arial" font-size="14.00" fill="#666666">[BASE TABLE]</text>
<polygon fill="none" stroke="#000000" points="574.5,-1487.5 574.5,-1517.5 1090.5,-1517.5 1090.5,-1487.5 574.5,-1487.5"/>
<text text-anchor="start" x="581.5" y="-1498.9" font-family="Arial" font-size="14.00" fill="#000000">job_id    </text>
<text text-anchor="start" x="653.0484" y="-1498.9" font-family="Arial" font-size="14.00" fill="#666666">[integer]</text>
<polygon fill="none" stroke="#000000" points="574.5,-1457.5 574.5,-1487.5 1090.5,-1487.5 1090.5,-1457.5 574.5,-1457.5"/>
<text text-anchor="start" x="581.5" y="-1468.9" font-family="Arial" font-size="14.00" fill="#000000">chunk_id    </text>
<text text-anchor="start" x="671.7244" y="-1468.9" font-family="Arial" font-size="14.00" fill="#666666">[integer]</text>
<polygon fill="none" stroke="#000000" points="574.5,-1427.5 574.5,-1457.5 1090.5,-1457.5 1090.5,-1427.5 574.5,-1427.5"/>
<text text-anchor="start" x="581.5" y="-1438.9" font-family="Arial" font-size="14.00" fill="#000000">num_times_job_run    </text>
<text text-anchor="start" x="738.6164" y="-1438.9" font-family="Arial" font-size="14.00" fill="#666666">[integer]</text>
<polygon fill="none" stroke="#000000" points="574.5,-1397.5 574.5,-1427.5 1090.5,-1427.5 1090.5,-1397.5 574.5,-1397.5"/>
<text text-anchor="start" x="581.5" y="-1408.9" font-family="Arial" font-size="14.00" fill="#000000">last_time_job_run    </text>
<text text-anchor="start" x="726.1704" y="-1408.9" font-family="Arial" font-size="14.00" fill="#666666">[timestamp with time zone]</text>
</g>
<!-- _timescaledb_internal.bgw_policy_chunk_stats&#45;&gt;_timescaledb_config.bgw_job -->
<g id="edge2" class="edge">
<title>_timescaledb_internal.bgw_policy_chunk_stats:job_id&#45;&gt;_timescaledb_config.bgw_job:id</title>
<path fill="none" stroke="#000000" d="M564.3922,-1501.6965C513.8697,-1492.8847 554.2794,-1413.4433 574.5,-1355 611.6532,-1247.6164 695.3468,-1261.3836 732.5,-1154 746.5233,-1113.4685 775.3889,-1057.5 732.5,-1057.5"/>
<polygon fill="#000000" stroke="#000000" points="564.5314,-1501.7075 574.1434,-1506.9858 569.5157,-1502.1037 574.5,-1502.5 574.5,-1502.5 574.5,-1502.5 569.5157,-1502.1037 574.8566,-1498.0142 564.5314,-1501.7075 564.5314,-1501.7075"/>
<text text-anchor="start" x="581.259" y="-1512.5" font-family="Arial" font-size="10.00" fill="#000000">FOREIGN KEY (job_id) REFERENCES _timescaledb_config.bgw_job(id) ON DELETE CASCADE</text>
</g>
</g>
</svg>
