<?xml version="1.0" encoding="UTF-8" standalone="no"?>
<!DOCTYPE svg PUBLIC "-//W3C//DTD SVG 1.1//EN"
 "http://www.w3.org/Graphics/SVG/1.1/DTD/svg11.dtd">
<!-- Generated by graphviz version 2.40.1 (20161225.0304)
 -->
<!-- Title: _timescaledb_catalog.continuous_aggs_bucket_function Pages: 1 -->
<svg width="1165pt" height="832pt"
 viewBox="0.00 0.00 1165.00 832.00" xmlns="http://www.w3.org/2000/svg" xmlns:xlink="http://www.w3.org/1999/xlink">
<g id="graph0" class="graph" transform="scale(1 1) rotate(0) translate(4 828)">
<title>_timescaledb_catalog.continuous_aggs_bucket_function</title>
<polygon fill="#ffffff" stroke="transparent" points="-4,4 -4,-828 1161,-828 1161,4 -4,4"/>
<!-- _timescaledb_catalog.continuous_aggs_bucket_function -->
<g id="node1" class="node">
<title>_timescaledb_catalog.continuous_aggs_bucket_function</title>
<polygon fill="#efefef" stroke="transparent" points="46,-742.5 46,-777.5 638,-777.5 638,-742.5 46,-742.5"/>
<polygon fill="none" stroke="#000000" points="46,-742.5 46,-777.5 638,-777.5 638,-742.5 46,-742.5"/>
<text text-anchor="start" x="52.6337" y="-755.3" font-family="Arial Bold" font-size="18.00" fill="#000000">_timescaledb_catalog.continuous_aggs_bucket_function</text>
<text text-anchor="start" x="503.7983" y="-755.3" font-family="Arial" font-size="14.00" fill="#000000">    </text>
<text text-anchor="start" x="538.0031" y="-755.3" font-family="Arial" font-size="14.00" fill="#666666">[BASE TABLE]</text>
<polygon fill="none" stroke="#000000" points="46,-712.5 46,-742.5 638,-742.5 638,-712.5 46,-712.5"/>
<text text-anchor="start" x="53" y="-723.9" font-family="Arial" font-size="14.00" fill="#000000">mat_hypertable_id </text>
<text text-anchor="start" x="172.0322" y="-723.9" font-family="Arial" font-size="14.00" fill="#666666">[integer]</text>
<polygon fill="none" stroke="#000000" points="46,-682.5 46,-712.5 638,-712.5 638,-682.5 46,-682.5"/>
<text text-anchor="start" x="53" y="-693.9" font-family="Arial" font-size="14.00" fill="#000000">experimental </text>
<text text-anchor="start" x="137.0112" y="-693.9" font-family="Arial" font-size="14.00" fill="#666666">[boolean]</text>
<polygon fill="none" stroke="#000000" points="46,-652.5 46,-682.5 638,-682.5 638,-652.5 46,-652.5"/>
<text text-anchor="start" x="53" y="-663.9" font-family="Arial" font-size="14.00" fill="#000000">name </text>
<text text-anchor="start" x="91.899" y="-663.9" font-family="Arial" font-size="14.00" fill="#666666">[text]</text>
<polygon fill="none" stroke="#000000" points="46,-622.5 46,-652.5 638,-652.5 638,-622.5 46,-622.5"/>
<text text-anchor="start" x="53" y="-633.9" font-family="Arial" font-size="14.00" fill="#000000">bucket_width </text>
<text text-anchor="start" x="138.5806" y="-633.9" font-family="Arial" font-size="14.00" fill="#666666">[text]</text>
<polygon fill="none" stroke="#000000" points="46,-592.5 46,-622.5 638,-622.5 638,-592.5 46,-592.5"/>
<text text-anchor="start" x="53" y="-603.9" font-family="Arial" font-size="14.00" fill="#000000">origin </text>
<text text-anchor="start" x="91.1122" y="-603.9" font-family="Arial" font-size="14.00" fill="#666666">[text]</text>
<polygon fill="none" stroke="#000000" points="46,-562.5 46,-592.5 638,-592.5 638,-562.5 46,-562.5"/>
<text text-anchor="start" x="53" y="-573.9" font-family="Arial" font-size="14.00" fill="#000000">timezone </text>
<text text-anchor="start" x="113.6788" y="-573.9" font-family="Arial" font-size="14.00" fill="#666666">[text]</text>
<polygon fill="none" stroke="#000000" stroke-width="3" points="44.5,-561.5 44.5,-779.5 639.5,-779.5 639.5,-561.5 44.5,-561.5"/>
</g>
<!-- _timescaledb_catalog.hypertable -->
<g id="node2" class="node">
<title>_timescaledb_catalog.hypertable</title>
<polygon fill="#efefef" stroke="transparent" points="140,-402.5 140,-437.5 544,-437.5 544,-402.5 140,-402.5"/>
<polygon fill="none" stroke="#000000" points="140,-402.5 140,-437.5 544,-437.5 544,-402.5 140,-402.5"/>
<text text-anchor="start" x="146.6783" y="-415.3" font-family="Arial Bold" font-size="18.00" fill="#000000">_timescaledb_catalog.hypertable</text>
<text text-anchor="start" x="409.7537" y="-415.3" font-family="Arial" font-size="14.00" fill="#000000">    </text>
<text text-anchor="start" x="443.9585" y="-415.3" font-family="Arial" font-size="14.00" fill="#666666">[BASE TABLE]</text>
<polygon fill="none" stroke="#000000" points="140,-372.5 140,-402.5 544,-402.5 544,-372.5 140,-372.5"/>
<text text-anchor="start" x="147" y="-383.9" font-family="Arial" font-size="14.00" fill="#000000">id    </text>
<text text-anchor="start" x="192.094" y="-383.9" font-family="Arial" font-size="14.00" fill="#666666">[integer]</text>
<polygon fill="none" stroke="#000000" points="140,-342.5 140,-372.5 544,-372.5 544,-342.5 140,-342.5"/>
<text text-anchor="start" x="147" y="-353.9" font-family="Arial" font-size="14.00" fill="#000000">schema_name    </text>
<text text-anchor="start" x="273.0042" y="-353.9" font-family="Arial" font-size="14.00" fill="#666666">[name]</text>
<polygon fill="none" stroke="#000000" points="140,-312.5 140,-342.5 544,-342.5 544,-312.5 140,-312.5"/>
<text text-anchor="start" x="147" y="-323.9" font-family="Arial" font-size="14.00" fill="#000000">table_name    </text>
<text text-anchor="start" x="254.3408" y="-323.9" font-family="Arial" font-size="14.00" fill="#666666">[name]</text>
<polygon fill="none" stroke="#000000" points="140,-282.5 140,-312.5 544,-312.5 544,-282.5 140,-282.5"/>
<text text-anchor="start" x="147" y="-293.9" font-family="Arial" font-size="14.00" fill="#000000">associated_schema_name    </text>
<text text-anchor="start" x="347.697" y="-293.9" font-family="Arial" font-size="14.00" fill="#666666">[name]</text>
<polygon fill="none" stroke="#000000" points="140,-252.5 140,-282.5 544,-282.5 544,-252.5 140,-252.5"/>
<text text-anchor="start" x="147" y="-263.9" font-family="Arial" font-size="14.00" fill="#000000">associated_table_prefix    </text>
<text text-anchor="start" x="328.2482" y="-263.9" font-family="Arial" font-size="14.00" fill="#666666">[name]</text>
<polygon fill="none" stroke="#000000" points="140,-222.5 140,-252.5 544,-252.5 544,-222.5 140,-222.5"/>
<text text-anchor="start" x="147" y="-233.9" font-family="Arial" font-size="14.00" fill="#000000">num_dimensions    </text>
<text text-anchor="start" x="287" y="-233.9" font-family="Arial" font-size="14.00" fill="#666666">[smallint]</text>
<polygon fill="none" stroke="#000000" points="140,-192.5 140,-222.5 544,-222.5 544,-192.5 140,-192.5"/>
<text text-anchor="start" x="147" y="-203.9" font-family="Arial" font-size="14.00" fill="#000000">chunk_sizing_func_schema    </text>
<text text-anchor="start" x="353.143" y="-203.9" font-family="Arial" font-size="14.00" fill="#666666">[name]</text>
<polygon fill="none" stroke="#000000" points="140,-162.5 140,-192.5 544,-192.5 544,-162.5 140,-162.5"/>
<text text-anchor="start" x="147" y="-173.9" font-family="Arial" font-size="14.00" fill="#000000">chunk_sizing_func_name    </text>
<text text-anchor="start" x="339.143" y="-173.9" font-family="Arial" font-size="14.00" fill="#666666">[name]</text>
<polygon fill="none" stroke="#000000" points="140,-132.5 140,-162.5 544,-162.5 544,-132.5 140,-132.5"/>
<text text-anchor="start" x="147" y="-143.9" font-family="Arial" font-size="14.00" fill="#000000">chunk_target_size    </text>
<text text-anchor="start" x="294.7966" y="-143.9" font-family="Arial" font-size="14.00" fill="#666666">[bigint]</text>
<polygon fill="none" stroke="#000000" points="140,-102.5 140,-132.5 544,-132.5 544,-102.5 140,-102.5"/>
<text text-anchor="start" x="147" y="-113.9" font-family="Arial" font-size="14.00" fill="#000000">compression_state    </text>
<text text-anchor="start" x="298.6746" y="-113.9" font-family="Arial" font-size="14.00" fill="#666666">[smallint]</text>
<polygon fill="none" stroke="#000000" points="140,-72.5 140,-102.5 544,-102.5 544,-72.5 140,-72.5"/>
<text text-anchor="start" x="147" y="-83.9" font-family="Arial" font-size="14.00" fill="#000000">compressed_hypertable_id    </text>
<text text-anchor="start" x="349.2468" y="-83.9" font-family="Arial" font-size="14.00" fill="#666666">[integer]</text>
<polygon fill="none" stroke="#000000" points="140,-42.5 140,-72.5 544,-72.5 544,-42.5 140,-42.5"/>
<text text-anchor="start" x="147" y="-53.9" font-family="Arial" font-size="14.00" fill="#000000">replication_factor    </text>
<text text-anchor="start" x="287.7784" y="-53.9" font-family="Arial" font-size="14.00" fill="#666666">[smallint]</text>
</g>
<!-- _timescaledb_catalog.continuous_aggs_bucket_function&#45;&gt;_timescaledb_catalog.hypertable -->
<g id="edge1" class="edge">
<title>_timescaledb_catalog.continuous_aggs_bucket_function:mat_hypertable_id&#45;&gt;_timescaledb_catalog.hypertable:id</title>
<path fill="none" stroke="#000000" d="M648.2508,-726.9529C726.5582,-718.0561 665.7621,-602.5071 638,-517 616.0377,-449.3562 615.1198,-387.5 544,-387.5"/>
<polygon fill="#000000" stroke="#000000" points="647.9858,-726.967 637.7601,-723.0064 642.9929,-727.2335 638,-727.5 638,-727.5 638,-727.5 642.9929,-727.2335 638.2399,-731.9936 647.9858,-726.967 647.9858,-726.967"/>
<text text-anchor="start" x="645.4705" y="-737.5" font-family="Arial" font-size="10.00" fill="#000000">FOREIGN KEY (mat_hypertable_id) REFERENCES _timescaledb_catalog.hypertable(id) ON DELETE CASCADE</text>
</g>
</g>
</svg>
