<?xml version="1.0" encoding="UTF-8" standalone="no"?>
<!DOCTYPE svg PUBLIC "-//W3C//DTD SVG 1.1//EN"
 "http://www.w3.org/Graphics/SVG/1.1/DTD/svg11.dtd">
<!-- Generated by graphviz version 2.40.1 (20161225.0304)
 -->
<!-- Title: _timescaledb_catalog.continuous_aggs_invalidation_threshold Pages: 1 -->
<svg width="1190pt" height="712pt"
 viewBox="0.00 0.00 1190.00 712.00" xmlns="http://www.w3.org/2000/svg" xmlns:xlink="http://www.w3.org/1999/xlink">
<g id="graph0" class="graph" transform="scale(1 1) rotate(0) translate(4 708)">
<title>_timescaledb_catalog.continuous_aggs_invalidation_threshold</title>
<polygon fill="#ffffff" stroke="transparent" points="-4,4 -4,-708 1186,-708 1186,4 -4,4"/>
<!-- _timescaledb_catalog.continuous_aggs_invalidation_threshold -->
<g id="node1" class="node">
<title>_timescaledb_catalog.continuous_aggs_invalidation_threshold</title>
<polygon fill="#efefef" stroke="transparent" points="46,-622.5 46,-657.5 686,-657.5 686,-622.5 46,-622.5"/>
<polygon fill="none" stroke="#000000" points="46,-622.5 46,-657.5 686,-657.5 686,-622.5 46,-622.5"/>
<text text-anchor="start" x="52.6379" y="-635.3" font-family="Arial Bold" font-size="18.00" fill="#000000">_timescaledb_catalog.continuous_aggs_invalidation_threshold</text>
<text text-anchor="start" x="551.7941" y="-635.3" font-family="Arial" font-size="14.00" fill="#000000">    </text>
<text text-anchor="start" x="585.9989" y="-635.3" font-family="Arial" font-size="14.00" fill="#666666">[BASE TABLE]</text>
<polygon fill="none" stroke="#000000" points="46,-592.5 46,-622.5 686,-622.5 686,-592.5 46,-592.5"/>
<text text-anchor="start" x="53" y="-603.9" font-family="Arial" font-size="14.00" fill="#000000">hypertable_id </text>
<text text-anchor="start" x="140.9158" y="-603.9" font-family="Arial" font-size="14.00" fill="#666666">[integer]</text>
<polygon fill="none" stroke="#000000" points="46,-562.5 46,-592.5 686,-592.5 686,-562.5 46,-562.5"/>
<text text-anchor="start" x="53" y="-573.9" font-family="Arial" font-size="14.00" fill="#000000">watermark </text>
<text text-anchor="start" x="122.2174" y="-573.9" font-family="Arial" font-size="14.00" fill="#666666">[bigint]</text>
<polygon fill="none" stroke="#000000" stroke-width="3" points="44.5,-561.5 44.5,-659.5 687.5,-659.5 687.5,-561.5 44.5,-561.5"/>
</g>
<!-- _timescaledb_catalog.hypertable -->
<g id="node2" class="node">
<title>_timescaledb_catalog.hypertable</title>
<polygon fill="#efefef" stroke="transparent" points="164,-402.5 164,-437.5 568,-437.5 568,-402.5 164,-402.5"/>
<polygon fill="none" stroke="#000000" points="164,-402.5 164,-437.5 568,-437.5 568,-402.5 164,-402.5"/>
<text text-anchor="start" x="170.6783" y="-415.3" font-family="Arial Bold" font-size="18.00" fill="#000000">_timescaledb_catalog.hypertable</text>
<text text-anchor="start" x="433.7537" y="-415.3" font-family="Arial" font-size="14.00" fill="#000000">    </text>
<text text-anchor="start" x="467.9585" y="-415.3" font-family="Arial" font-size="14.00" fill="#666666">[BASE TABLE]</text>
<polygon fill="none" stroke="#000000" points="164,-372.5 164,-402.5 568,-402.5 568,-372.5 164,-372.5"/>
<text text-anchor="start" x="171" y="-383.9" font-family="Arial" font-size="14.00" fill="#000000">id    </text>
<text text-anchor="start" x="216.094" y="-383.9" font-family="Arial" font-size="14.00" fill="#666666">[integer]</text>
<polygon fill="none" stroke="#000000" points="164,-342.5 164,-372.5 568,-372.5 568,-342.5 164,-342.5"/>
<text text-anchor="start" x="171" y="-353.9" font-family="Arial" font-size="14.00" fill="#000000">schema_name    </text>
<text text-anchor="start" x="297.0042" y="-353.9" font-family="Arial" font-size="14.00" fill="#666666">[name]</text>
<polygon fill="none" stroke="#000000" points="164,-312.5 164,-342.5 568,-342.5 568,-312.5 164,-312.5"/>
<text text-anchor="start" x="171" y="-323.9" font-family="Arial" font-size="14.00" fill="#000000">table_name    </text>
<text text-anchor="start" x="278.3408" y="-323.9" font-family="Arial" font-size="14.00" fill="#666666">[name]</text>
<polygon fill="none" stroke="#000000" points="164,-282.5 164,-312.5 568,-312.5 568,-282.5 164,-282.5"/>
<text text-anchor="start" x="171" y="-293.9" font-family="Arial" font-size="14.00" fill="#000000">associated_schema_name    </text>
<text text-anchor="start" x="371.697" y="-293.9" font-family="Arial" font-size="14.00" fill="#666666">[name]</text>
<polygon fill="none" stroke="#000000" points="164,-252.5 164,-282.5 568,-282.5 568,-252.5 164,-252.5"/>
<text text-anchor="start" x="171" y="-263.9" font-family="Arial" font-size="14.00" fill="#000000">associated_table_prefix    </text>
<text text-anchor="start" x="352.2482" y="-263.9" font-family="Arial" font-size="14.00" fill="#666666">[name]</text>
<polygon fill="none" stroke="#000000" points="164,-222.5 164,-252.5 568,-252.5 568,-222.5 164,-222.5"/>
<text text-anchor="start" x="171" y="-233.9" font-family="Arial" font-size="14.00" fill="#000000">num_dimensions    </text>
<text text-anchor="start" x="311" y="-233.9" font-family="Arial" font-size="14.00" fill="#666666">[smallint]</text>
<polygon fill="none" stroke="#000000" points="164,-192.5 164,-222.5 568,-222.5 568,-192.5 164,-192.5"/>
<text text-anchor="start" x="171" y="-203.9" font-family="Arial" font-size="14.00" fill="#000000">chunk_sizing_func_schema    </text>
<text text-anchor="start" x="377.143" y="-203.9" font-family="Arial" font-size="14.00" fill="#666666">[name]</text>
<polygon fill="none" stroke="#000000" points="164,-162.5 164,-192.5 568,-192.5 568,-162.5 164,-162.5"/>
<text text-anchor="start" x="171" y="-173.9" font-family="Arial" font-size="14.00" fill="#000000">chunk_sizing_func_name    </text>
<text text-anchor="start" x="363.143" y="-173.9" font-family="Arial" font-size="14.00" fill="#666666">[name]</text>
<polygon fill="none" stroke="#000000" points="164,-132.5 164,-162.5 568,-162.5 568,-132.5 164,-132.5"/>
<text text-anchor="start" x="171" y="-143.9" font-family="Arial" font-size="14.00" fill="#000000">chunk_target_size    </text>
<text text-anchor="start" x="318.7966" y="-143.9" font-family="Arial" font-size="14.00" fill="#666666">[bigint]</text>
<polygon fill="none" stroke="#000000" points="164,-102.5 164,-132.5 568,-132.5 568,-102.5 164,-102.5"/>
<text text-anchor="start" x="171" y="-113.9" font-family="Arial" font-size="14.00" fill="#000000">compression_state    </text>
<text text-anchor="start" x="322.6746" y="-113.9" font-family="Arial" font-size="14.00" fill="#666666">[smallint]</text>
<polygon fill="none" stroke="#000000" points="164,-72.5 164,-102.5 568,-102.5 568,-72.5 164,-72.5"/>
<text text-anchor="start" x="171" y="-83.9" font-family="Arial" font-size="14.00" fill="#000000">compressed_hypertable_id    </text>
<text text-anchor="start" x="373.2468" y="-83.9" font-family="Arial" font-size="14.00" fill="#666666">[integer]</text>
<polygon fill="none" stroke="#000000" points="164,-42.5 164,-72.5 568,-72.5 568,-42.5 164,-42.5"/>
<text text-anchor="start" x="171" y="-53.9" font-family="Arial" font-size="14.00" fill="#000000">replication_factor    </text>
<text text-anchor="start" x="311.7784" y="-53.9" font-family="Arial" font-size="14.00" fill="#666666">[smallint]</text>
</g>
<!-- _timescaledb_catalog.continuous_aggs_invalidation_threshold&#45;&gt;_timescaledb_catalog.hypertable -->
<g id="edge1" class="edge">
<title>_timescaledb_catalog.continuous_aggs_invalidation_threshold:hypertable_id&#45;&gt;_timescaledb_catalog.hypertable:id</title>
<path fill="none" stroke="#000000" d="M696.0216,-606.8293C789.3564,-593.5488 675.3789,-387.5 568,-387.5"/>
<polygon fill="#000000" stroke="#000000" points="695.9777,-606.8321 685.6995,-603.01 690.9888,-607.1661 686,-607.5 686,-607.5 686,-607.5 690.9888,-607.1661 686.3005,-611.99 695.9777,-606.8321 695.9777,-606.8321"/>
<text text-anchor="start" x="692.5835" y="-617.5" font-family="Arial" font-size="10.00" fill="#000000">FOREIGN KEY (hypertable_id) REFERENCES _timescaledb_catalog.hypertable(id) ON DELETE CASCADE</text>
</g>
</g>
</svg>
