<?xml version="1.0" encoding="UTF-8" standalone="no"?>
<!DOCTYPE svg PUBLIC "-//W3C//DTD SVG 1.1//EN"
 "http://www.w3.org/Graphics/SVG/1.1/DTD/svg11.dtd">
<!-- Generated by graphviz version 2.40.1 (20161225.0304)
 -->
<!-- Title: _timescaledb_catalog.hypertable_data_node Pages: 1 -->
<svg width="940pt" height="772pt"
 viewBox="0.00 0.00 939.50 772.00" xmlns="http://www.w3.org/2000/svg" xmlns:xlink="http://www.w3.org/1999/xlink">
<g id="graph0" class="graph" transform="scale(1 1) rotate(0) translate(4 768)">
<title>_timescaledb_catalog.hypertable_data_node</title>
<polygon fill="#ffffff" stroke="transparent" points="-4,4 -4,-768 935.5,-768 935.5,4 -4,4"/>
<!-- _timescaledb_catalog.hypertable_data_node -->
<g id="node1" class="node">
<title>_timescaledb_catalog.hypertable_data_node</title>
<polygon fill="#efefef" stroke="transparent" points="46.5,-682.5 46.5,-717.5 545.5,-717.5 545.5,-682.5 46.5,-682.5"/>
<polygon fill="none" stroke="#000000" points="46.5,-682.5 46.5,-717.5 545.5,-717.5 545.5,-682.5 46.5,-682.5"/>
<text text-anchor="start" x="53.1493" y="-695.3" font-family="Arial Bold" font-size="18.00" fill="#000000">_timescaledb_catalog.hypertable_data_node</text>
<text text-anchor="start" x="411.2827" y="-695.3" font-family="Arial" font-size="14.00" fill="#000000">    </text>
<text text-anchor="start" x="445.4875" y="-695.3" font-family="Arial" font-size="14.00" fill="#666666">[BASE TABLE]</text>
<polygon fill="none" stroke="#000000" points="46.5,-652.5 46.5,-682.5 545.5,-682.5 545.5,-652.5 46.5,-652.5"/>
<text text-anchor="start" x="53.5" y="-663.9" font-family="Arial" font-size="14.00" fill="#000000">hypertable_id </text>
<text text-anchor="start" x="141.4158" y="-663.9" font-family="Arial" font-size="14.00" fill="#666666">[integer]</text>
<polygon fill="none" stroke="#000000" points="46.5,-622.5 46.5,-652.5 545.5,-652.5 545.5,-622.5 46.5,-622.5"/>
<text text-anchor="start" x="53.5" y="-633.9" font-family="Arial" font-size="14.00" fill="#000000">node_hypertable_id </text>
<text text-anchor="start" x="180.3288" y="-633.9" font-family="Arial" font-size="14.00" fill="#666666">[integer]</text>
<polygon fill="none" stroke="#000000" points="46.5,-592.5 46.5,-622.5 545.5,-622.5 545.5,-592.5 46.5,-592.5"/>
<text text-anchor="start" x="53.5" y="-603.9" font-family="Arial" font-size="14.00" fill="#000000">node_name </text>
<text text-anchor="start" x="131.312" y="-603.9" font-family="Arial" font-size="14.00" fill="#666666">[name]</text>
<polygon fill="none" stroke="#000000" points="46.5,-562.5 46.5,-592.5 545.5,-592.5 545.5,-562.5 46.5,-562.5"/>
<text text-anchor="start" x="53.5" y="-573.9" font-family="Arial" font-size="14.00" fill="#000000">block_chunks </text>
<text text-anchor="start" x="142.1928" y="-573.9" font-family="Arial" font-size="14.00" fill="#666666">[boolean]</text>
<polygon fill="none" stroke="#000000" stroke-width="3" points="44.5,-561.5 44.5,-719.5 546.5,-719.5 546.5,-561.5 44.5,-561.5"/>
</g>
<!-- _timescaledb_catalog.hypertable -->
<g id="node2" class="node">
<title>_timescaledb_catalog.hypertable</title>
<polygon fill="#efefef" stroke="transparent" points="94.5,-402.5 94.5,-437.5 498.5,-437.5 498.5,-402.5 94.5,-402.5"/>
<polygon fill="none" stroke="#000000" points="94.5,-402.5 94.5,-437.5 498.5,-437.5 498.5,-402.5 94.5,-402.5"/>
<text text-anchor="start" x="101.1783" y="-415.3" font-family="Arial Bold" font-size="18.00" fill="#000000">_timescaledb_catalog.hypertable</text>
<text text-anchor="start" x="364.2537" y="-415.3" font-family="Arial" font-size="14.00" fill="#000000">    </text>
<text text-anchor="start" x="398.4585" y="-415.3" font-family="Arial" font-size="14.00" fill="#666666">[BASE TABLE]</text>
<polygon fill="none" stroke="#000000" points="94.5,-372.5 94.5,-402.5 498.5,-402.5 498.5,-372.5 94.5,-372.5"/>
<text text-anchor="start" x="101.5" y="-383.9" font-family="Arial" font-size="14.00" fill="#000000">id    </text>
<text text-anchor="start" x="146.594" y="-383.9" font-family="Arial" font-size="14.00" fill="#666666">[integer]</text>
<polygon fill="none" stroke="#000000" points="94.5,-342.5 94.5,-372.5 498.5,-372.5 498.5,-342.5 94.5,-342.5"/>
<text text-anchor="start" x="101.5" y="-353.9" font-family="Arial" font-size="14.00" fill="#000000">schema_name    </text>
<text text-anchor="start" x="227.5042" y="-353.9" font-family="Arial" font-size="14.00" fill="#666666">[name]</text>
<polygon fill="none" stroke="#000000" points="94.5,-312.5 94.5,-342.5 498.5,-342.5 498.5,-312.5 94.5,-312.5"/>
<text text-anchor="start" x="101.5" y="-323.9" font-family="Arial" font-size="14.00" fill="#000000">table_name    </text>
<text text-anchor="start" x="208.8408" y="-323.9" font-family="Arial" font-size="14.00" fill="#666666">[name]</text>
<polygon fill="none" stroke="#000000" points="94.5,-282.5 94.5,-312.5 498.5,-312.5 498.5,-282.5 94.5,-282.5"/>
<text text-anchor="start" x="101.5" y="-293.9" font-family="Arial" font-size="14.00" fill="#000000">associated_schema_name    </text>
<text text-anchor="start" x="302.197" y="-293.9" font-family="Arial" font-size="14.00" fill="#666666">[name]</text>
<polygon fill="none" stroke="#000000" points="94.5,-252.5 94.5,-282.5 498.5,-282.5 498.5,-252.5 94.5,-252.5"/>
<text text-anchor="start" x="101.5" y="-263.9" font-family="Arial" font-size="14.00" fill="#000000">associated_table_prefix    </text>
<text text-anchor="start" x="282.7482" y="-263.9" font-family="Arial" font-size="14.00" fill="#666666">[name]</text>
<polygon fill="none" stroke="#000000" points="94.5,-222.5 94.5,-252.5 498.5,-252.5 498.5,-222.5 94.5,-222.5"/>
<text text-anchor="start" x="101.5" y="-233.9" font-family="Arial" font-size="14.00" fill="#000000">num_dimensions    </text>
<text text-anchor="start" x="241.5" y="-233.9" font-family="Arial" font-size="14.00" fill="#666666">[smallint]</text>
<polygon fill="none" stroke="#000000" points="94.5,-192.5 94.5,-222.5 498.5,-222.5 498.5,-192.5 94.5,-192.5"/>
<text text-anchor="start" x="101.5" y="-203.9" font-family="Arial" font-size="14.00" fill="#000000">chunk_sizing_func_schema    </text>
<text text-anchor="start" x="307.643" y="-203.9" font-family="Arial" font-size="14.00" fill="#666666">[name]</text>
<polygon fill="none" stroke="#000000" points="94.5,-162.5 94.5,-192.5 498.5,-192.5 498.5,-162.5 94.5,-162.5"/>
<text text-anchor="start" x="101.5" y="-173.9" font-family="Arial" font-size="14.00" fill="#000000">chunk_sizing_func_name    </text>
<text text-anchor="start" x="293.643" y="-173.9" font-family="Arial" font-size="14.00" fill="#666666">[name]</text>
<polygon fill="none" stroke="#000000" points="94.5,-132.5 94.5,-162.5 498.5,-162.5 498.5,-132.5 94.5,-132.5"/>
<text text-anchor="start" x="101.5" y="-143.9" font-family="Arial" font-size="14.00" fill="#000000">chunk_target_size    </text>
<text text-anchor="start" x="249.2966" y="-143.9" font-family="Arial" font-size="14.00" fill="#666666">[bigint]</text>
<polygon fill="none" stroke="#000000" points="94.5,-102.5 94.5,-132.5 498.5,-132.5 498.5,-102.5 94.5,-102.5"/>
<text text-anchor="start" x="101.5" y="-113.9" font-family="Arial" font-size="14.00" fill="#000000">compression_state    </text>
<text text-anchor="start" x="253.1746" y="-113.9" font-family="Arial" font-size="14.00" fill="#666666">[smallint]</text>
<polygon fill="none" stroke="#000000" points="94.5,-72.5 94.5,-102.5 498.5,-102.5 498.5,-72.5 94.5,-72.5"/>
<text text-anchor="start" x="101.5" y="-83.9" font-family="Arial" font-size="14.00" fill="#000000">compressed_hypertable_id    </text>
<text text-anchor="start" x="303.7468" y="-83.9" font-family="Arial" font-size="14.00" fill="#666666">[integer]</text>
<polygon fill="none" stroke="#000000" points="94.5,-42.5 94.5,-72.5 498.5,-72.5 498.5,-42.5 94.5,-42.5"/>
<text text-anchor="start" x="101.5" y="-53.9" font-family="Arial" font-size="14.00" fill="#000000">replication_factor    </text>
<text text-anchor="start" x="242.2784" y="-53.9" font-family="Arial" font-size="14.00" fill="#666666">[smallint]</text>
</g>
<!-- _timescaledb_catalog.hypertable_data_node&#45;&gt;_timescaledb_catalog.hypertable -->
<g id="edge1" class="edge">
<title>_timescaledb_catalog.hypertable_data_node:hypertable_id&#45;&gt;_timescaledb_catalog.hypertable:id</title>
<path fill="none" stroke="#000000" d="M555.6914,-666.6157C609.9646,-656.5703 588.3953,-563.4558 545.5,-517 477.2938,-443.1325 162.7062,-554.8675 94.5,-481 66.3091,-450.4691 52.9444,-387.5 94.5,-387.5"/>
<polygon fill="#000000" stroke="#000000" points="555.4626,-666.6355 545.111,-663.0168 550.4813,-667.0677 545.5,-667.5 545.5,-667.5 545.5,-667.5 550.4813,-667.0677 545.889,-671.9832 555.4626,-666.6355 555.4626,-666.6355"/>
<text text-anchor="start" x="552.3645" y="-677.5" font-family="Arial" font-size="10.00" fill="#000000">FOREIGN KEY (hypertable_id) REFERENCES _timescaledb_catalog.hypertable(id)</text>
</g>
</g>
</svg>
