<?xml version="1.0" encoding="UTF-8" standalone="no"?>
<!DOCTYPE svg PUBLIC "-//W3C//DTD SVG 1.1//EN"
 "http://www.w3.org/Graphics/SVG/1.1/DTD/svg11.dtd">
<!-- Generated by graphviz version 2.40.1 (20161225.0304)
 -->
<!-- Title: _timescaledb_catalog.chunk Pages: 1 -->
<svg width="3495pt" height="1349pt"
 viewBox="0.00 0.00 3494.50 1349.00" xmlns="http://www.w3.org/2000/svg" xmlns:xlink="http://www.w3.org/1999/xlink">
<g id="graph0" class="graph" transform="scale(1 1) rotate(0) translate(4 1345)">
<title>_timescaledb_catalog.chunk</title>
<polygon fill="#ffffff" stroke="transparent" points="-4,4 -4,-1345 3490.5,-1345 3490.5,4 -4,4"/>
<!-- _timescaledb_catalog.chunk -->
<g id="node1" class="node">
<title>_timescaledb_catalog.chunk</title>
<polygon fill="#efefef" stroke="transparent" points="1770,-802.5 1770,-837.5 2138,-837.5 2138,-802.5 1770,-802.5"/>
<polygon fill="none" stroke="#000000" points="1770,-802.5 1770,-837.5 2138,-837.5 2138,-802.5 1770,-802.5"/>
<text text-anchor="start" x="1776.6819" y="-815.3" font-family="Arial Bold" font-size="18.00" fill="#000000">_timescaledb_catalog.chunk</text>
<text text-anchor="start" x="2003.7501" y="-815.3" font-family="Arial" font-size="14.00" fill="#000000">    </text>
<text text-anchor="start" x="2037.9549" y="-815.3" font-family="Arial" font-size="14.00" fill="#666666">[BASE TABLE]</text>
<polygon fill="none" stroke="#000000" points="1770,-772.5 1770,-802.5 2138,-802.5 2138,-772.5 1770,-772.5"/>
<text text-anchor="start" x="1777" y="-783.9" font-family="Arial" font-size="14.00" fill="#000000">id </text>
<text text-anchor="start" x="1791.7798" y="-783.9" font-family="Arial" font-size="14.00" fill="#666666">[integer]</text>
<polygon fill="none" stroke="#000000" points="1770,-742.5 1770,-772.5 2138,-772.5 2138,-742.5 1770,-742.5"/>
<text text-anchor="start" x="1777" y="-753.9" font-family="Arial" font-size="14.00" fill="#000000">hypertable_id </text>
<text text-anchor="start" x="1864.9158" y="-753.9" font-family="Arial" font-size="14.00" fill="#666666">[integer]</text>
<polygon fill="none" stroke="#000000" points="1770,-712.5 1770,-742.5 2138,-742.5 2138,-712.5 1770,-712.5"/>
<text text-anchor="start" x="1777" y="-723.9" font-family="Arial" font-size="14.00" fill="#000000">schema_name </text>
<text text-anchor="start" x="1872.69" y="-723.9" font-family="Arial" font-size="14.00" fill="#666666">[name]</text>
<polygon fill="none" stroke="#000000" points="1770,-682.5 1770,-712.5 2138,-712.5 2138,-682.5 1770,-682.5"/>
<text text-anchor="start" x="1777" y="-693.9" font-family="Arial" font-size="14.00" fill="#000000">table_name </text>
<text text-anchor="start" x="1854.0266" y="-693.9" font-family="Arial" font-size="14.00" fill="#666666">[name]</text>
<polygon fill="none" stroke="#000000" points="1770,-652.5 1770,-682.5 2138,-682.5 2138,-652.5 1770,-652.5"/>
<text text-anchor="start" x="1777" y="-663.9" font-family="Arial" font-size="14.00" fill="#000000">compressed_chunk_id </text>
<text text-anchor="start" x="1920.927" y="-663.9" font-family="Arial" font-size="14.00" fill="#666666">[integer]</text>
<polygon fill="none" stroke="#000000" points="1770,-622.5 1770,-652.5 2138,-652.5 2138,-622.5 1770,-622.5"/>
<text text-anchor="start" x="1777" y="-633.9" font-family="Arial" font-size="14.00" fill="#000000">dropped </text>
<text text-anchor="start" x="1832.2468" y="-633.9" font-family="Arial" font-size="14.00" fill="#666666">[boolean]</text>
<polygon fill="none" stroke="#000000" points="1770,-592.5 1770,-622.5 2138,-622.5 2138,-592.5 1770,-592.5"/>
<text text-anchor="start" x="1777" y="-603.9" font-family="Arial" font-size="14.00" fill="#000000">status </text>
<text text-anchor="start" x="1818.237" y="-603.9" font-family="Arial" font-size="14.00" fill="#666666">[integer]</text>
<polygon fill="none" stroke="#000000" points="1770,-562.5 1770,-592.5 2138,-592.5 2138,-562.5 1770,-562.5"/>
<text text-anchor="start" x="1777" y="-573.9" font-family="Arial" font-size="14.00" fill="#000000">osm_chunk </text>
<text text-anchor="start" x="1852.4642" y="-573.9" font-family="Arial" font-size="14.00" fill="#666666">[boolean]</text>
<polygon fill="none" stroke="#000000" stroke-width="3" points="1768.5,-561.5 1768.5,-839.5 2139.5,-839.5 2139.5,-561.5 1768.5,-561.5"/>
</g>
<!-- _timescaledb_catalog.chunk&#45;&gt;_timescaledb_catalog.chunk -->
<g id="edge1" class="edge">
<title>_timescaledb_catalog.chunk:compressed_chunk_id&#45;&gt;_timescaledb_catalog.chunk:id</title>
<path fill="none" stroke="#000000" d="M1955.4924,-692.5228C1962.969,-834.3809 1962.4715,-1099 1954,-1099 1945.3428,-1099 1945.0131,-933.6835 1953.0108,-802.8643"/>
<polygon fill="#000000" stroke="#000000" points="1955.4919,-692.5113 1959.4335,-682.2783 1955.2161,-687.5189 1954.9403,-682.5265 1954.9403,-682.5265 1954.9403,-682.5265 1955.2161,-687.5189 1950.4472,-682.7747 1955.4919,-692.5113 1955.4919,-692.5113"/>
<text text-anchor="start" x="1555.8028" y="-692.5265" font-family="Arial" font-size="10.00" fill="#000000">FOREIGN KEY (compressed_chunk_id) REFERENCES _timescaledb_catalog.chunk(id)</text>
</g>
<!-- _timescaledb_catalog.hypertable -->
<g id="node8" class="node">
<title>_timescaledb_catalog.hypertable</title>
<polygon fill="#efefef" stroke="transparent" points="1752,-402.5 1752,-437.5 2156,-437.5 2156,-402.5 1752,-402.5"/>
<polygon fill="none" stroke="#000000" points="1752,-402.5 1752,-437.5 2156,-437.5 2156,-402.5 1752,-402.5"/>
<text text-anchor="start" x="1758.6783" y="-415.3" font-family="Arial Bold" font-size="18.00" fill="#000000">_timescaledb_catalog.hypertable</text>
<text text-anchor="start" x="2021.7537" y="-415.3" font-family="Arial" font-size="14.00" fill="#000000">    </text>
<text text-anchor="start" x="2055.9585" y="-415.3" font-family="Arial" font-size="14.00" fill="#666666">[BASE TABLE]</text>
<polygon fill="none" stroke="#000000" points="1752,-372.5 1752,-402.5 2156,-402.5 2156,-372.5 1752,-372.5"/>
<text text-anchor="start" x="1759" y="-383.9" font-family="Arial" font-size="14.00" fill="#000000">id    </text>
<text text-anchor="start" x="1804.094" y="-383.9" font-family="Arial" font-size="14.00" fill="#666666">[integer]</text>
<polygon fill="none" stroke="#000000" points="1752,-342.5 1752,-372.5 2156,-372.5 2156,-342.5 1752,-342.5"/>
<text text-anchor="start" x="1759" y="-353.9" font-family="Arial" font-size="14.00" fill="#000000">schema_name    </text>
<text text-anchor="start" x="1885.0042" y="-353.9" font-family="Arial" font-size="14.00" fill="#666666">[name]</text>
<polygon fill="none" stroke="#000000" points="1752,-312.5 1752,-342.5 2156,-342.5 2156,-312.5 1752,-312.5"/>
<text text-anchor="start" x="1759" y="-323.9" font-family="Arial" font-size="14.00" fill="#000000">table_name    </text>
<text text-anchor="start" x="1866.3408" y="-323.9" font-family="Arial" font-size="14.00" fill="#666666">[name]</text>
<polygon fill="none" stroke="#000000" points="1752,-282.5 1752,-312.5 2156,-312.5 2156,-282.5 1752,-282.5"/>
<text text-anchor="start" x="1759" y="-293.9" font-family="Arial" font-size="14.00" fill="#000000">associated_schema_name    </text>
<text text-anchor="start" x="1959.697" y="-293.9" font-family="Arial" font-size="14.00" fill="#666666">[name]</text>
<polygon fill="none" stroke="#000000" points="1752,-252.5 1752,-282.5 2156,-282.5 2156,-252.5 1752,-252.5"/>
<text text-anchor="start" x="1759" y="-263.9" font-family="Arial" font-size="14.00" fill="#000000">associated_table_prefix    </text>
<text text-anchor="start" x="1940.2482" y="-263.9" font-family="Arial" font-size="14.00" fill="#666666">[name]</text>
<polygon fill="none" stroke="#000000" points="1752,-222.5 1752,-252.5 2156,-252.5 2156,-222.5 1752,-222.5"/>
<text text-anchor="start" x="1759" y="-233.9" font-family="Arial" font-size="14.00" fill="#000000">num_dimensions    </text>
<text text-anchor="start" x="1899" y="-233.9" font-family="Arial" font-size="14.00" fill="#666666">[smallint]</text>
<polygon fill="none" stroke="#000000" points="1752,-192.5 1752,-222.5 2156,-222.5 2156,-192.5 1752,-192.5"/>
<text text-anchor="start" x="1759" y="-203.9" font-family="Arial" font-size="14.00" fill="#000000">chunk_sizing_func_schema    </text>
<text text-anchor="start" x="1965.143" y="-203.9" font-family="Arial" font-size="14.00" fill="#666666">[name]</text>
<polygon fill="none" stroke="#000000" points="1752,-162.5 1752,-192.5 2156,-192.5 2156,-162.5 1752,-162.5"/>
<text text-anchor="start" x="1759" y="-173.9" font-family="Arial" font-size="14.00" fill="#000000">chunk_sizing_func_name    </text>
<text text-anchor="start" x="1951.143" y="-173.9" font-family="Arial" font-size="14.00" fill="#666666">[name]</text>
<polygon fill="none" stroke="#000000" points="1752,-132.5 1752,-162.5 2156,-162.5 2156,-132.5 1752,-132.5"/>
<text text-anchor="start" x="1759" y="-143.9" font-family="Arial" font-size="14.00" fill="#000000">chunk_target_size    </text>
<text text-anchor="start" x="1906.7966" y="-143.9" font-family="Arial" font-size="14.00" fill="#666666">[bigint]</text>
<polygon fill="none" stroke="#000000" points="1752,-102.5 1752,-132.5 2156,-132.5 2156,-102.5 1752,-102.5"/>
<text text-anchor="start" x="1759" y="-113.9" font-family="Arial" font-size="14.00" fill="#000000">compression_state    </text>
<text text-anchor="start" x="1910.6746" y="-113.9" font-family="Arial" font-size="14.00" fill="#666666">[smallint]</text>
<polygon fill="none" stroke="#000000" points="1752,-72.5 1752,-102.5 2156,-102.5 2156,-72.5 1752,-72.5"/>
<text text-anchor="start" x="1759" y="-83.9" font-family="Arial" font-size="14.00" fill="#000000">compressed_hypertable_id    </text>
<text text-anchor="start" x="1961.2468" y="-83.9" font-family="Arial" font-size="14.00" fill="#666666">[integer]</text>
<polygon fill="none" stroke="#000000" points="1752,-42.5 1752,-72.5 2156,-72.5 2156,-42.5 1752,-42.5"/>
<text text-anchor="start" x="1759" y="-53.9" font-family="Arial" font-size="14.00" fill="#000000">replication_factor    </text>
<text text-anchor="start" x="1899.7784" y="-53.9" font-family="Arial" font-size="14.00" fill="#666666">[smallint]</text>
</g>
<!-- _timescaledb_catalog.chunk&#45;&gt;_timescaledb_catalog.hypertable -->
<g id="edge9" class="edge">
<title>_timescaledb_catalog.chunk:hypertable_id&#45;&gt;_timescaledb_catalog.hypertable:id</title>
<path fill="none" stroke="#000000" d="M2148.4081,-756.995C2303.3281,-741.7723 2317.1018,-387.5 2156,-387.5"/>
<polygon fill="#000000" stroke="#000000" points="2147.9882,-757.0153 2137.7819,-753.0053 2142.9941,-757.2576 2138,-757.5 2138,-757.5 2138,-757.5 2142.9941,-757.2576 2138.2181,-761.9947 2147.9882,-757.0153 2147.9882,-757.0153"/>
<text text-anchor="start" x="2144.8645" y="-767.5" font-family="Arial" font-size="10.00" fill="#000000">FOREIGN KEY (hypertable_id) REFERENCES _timescaledb_catalog.hypertable(id)</text>
</g>
<!-- _timescaledb_catalog.chunk_constraint -->
<g id="node2" class="node">
<title>_timescaledb_catalog.chunk_constraint</title>
<polygon fill="#efefef" stroke="transparent" points="43,-1172.5 43,-1207.5 499,-1207.5 499,-1172.5 43,-1172.5"/>
<polygon fill="none" stroke="#000000" points="43,-1172.5 43,-1207.5 499,-1207.5 499,-1172.5 43,-1172.5"/>
<text text-anchor="start" x="49.671" y="-1185.3" font-family="Arial Bold" font-size="18.00" fill="#000000">_timescaledb_catalog.chunk_constraint</text>
<text text-anchor="start" x="364.761" y="-1185.3" font-family="Arial" font-size="14.00" fill="#000000">    </text>
<text text-anchor="start" x="398.9658" y="-1185.3" font-family="Arial" font-size="14.00" fill="#666666">[BASE TABLE]</text>
<polygon fill="none" stroke="#000000" points="43,-1142.5 43,-1172.5 499,-1172.5 499,-1142.5 43,-1142.5"/>
<text text-anchor="start" x="50" y="-1153.9" font-family="Arial" font-size="14.00" fill="#000000">chunk_id    </text>
<text text-anchor="start" x="140.2244" y="-1153.9" font-family="Arial" font-size="14.00" fill="#666666">[integer]</text>
<polygon fill="none" stroke="#000000" points="43,-1112.5 43,-1142.5 499,-1142.5 499,-1112.5 43,-1112.5"/>
<text text-anchor="start" x="50" y="-1123.9" font-family="Arial" font-size="14.00" fill="#000000">dimension_slice_id    </text>
<text text-anchor="start" x="202.4418" y="-1123.9" font-family="Arial" font-size="14.00" fill="#666666">[integer]</text>
<polygon fill="none" stroke="#000000" points="43,-1082.5 43,-1112.5 499,-1112.5 499,-1082.5 43,-1082.5"/>
<text text-anchor="start" x="50" y="-1093.9" font-family="Arial" font-size="14.00" fill="#000000">constraint_name    </text>
<text text-anchor="start" x="187.6746" y="-1093.9" font-family="Arial" font-size="14.00" fill="#666666">[name]</text>
<polygon fill="none" stroke="#000000" points="43,-1052.5 43,-1082.5 499,-1082.5 499,-1052.5 43,-1052.5"/>
<text text-anchor="start" x="50" y="-1063.9" font-family="Arial" font-size="14.00" fill="#000000">hypertable_constraint_name    </text>
<text text-anchor="start" x="260.8106" y="-1063.9" font-family="Arial" font-size="14.00" fill="#666666">[name]</text>
</g>
<!-- _timescaledb_catalog.chunk_constraint&#45;&gt;_timescaledb_catalog.chunk -->
<g id="edge2" class="edge">
<title>_timescaledb_catalog.chunk_constraint:chunk_id&#45;&gt;_timescaledb_catalog.chunk:id</title>
<path fill="none" stroke="#000000" d="M509.2415,-1156.931C597.9817,-1146.309 473.3542,-989.7331 551,-920 652.3641,-828.9656 1633.7578,-787.5 1770,-787.5"/>
<polygon fill="#000000" stroke="#000000" points="508.9846,-1156.9452 498.7503,-1153.0069 503.9923,-1157.2226 499,-1157.5 499,-1157.5 499,-1157.5 503.9923,-1157.2226 499.2497,-1161.9931 508.9846,-1156.9452 508.9846,-1156.9452"/>
<text text-anchor="start" x="332.8685" y="-1141.5" font-family="Arial" font-size="10.00" fill="#000000">FOREIGN KEY (chunk_id) REFERENCES _timescaledb_catalog.chunk(id)</text>
</g>
<!-- _timescaledb_catalog.chunk_index -->
<g id="node3" class="node">
<title>_timescaledb_catalog.chunk_index</title>
<polygon fill="#efefef" stroke="transparent" points="604,-1172.5 604,-1207.5 1025,-1207.5 1025,-1172.5 604,-1172.5"/>
<polygon fill="none" stroke="#000000" points="604,-1172.5 604,-1207.5 1025,-1207.5 1025,-1172.5 604,-1172.5"/>
<text text-anchor="start" x="610.6724" y="-1185.3" font-family="Arial Bold" font-size="18.00" fill="#000000">_timescaledb_catalog.chunk_index</text>
<text text-anchor="start" x="890.7596" y="-1185.3" font-family="Arial" font-size="14.00" fill="#000000">    </text>
<text text-anchor="start" x="924.9644" y="-1185.3" font-family="Arial" font-size="14.00" fill="#666666">[BASE TABLE]</text>
<polygon fill="none" stroke="#000000" points="604,-1142.5 604,-1172.5 1025,-1172.5 1025,-1142.5 604,-1142.5"/>
<text text-anchor="start" x="611" y="-1153.9" font-family="Arial" font-size="14.00" fill="#000000">chunk_id    </text>
<text text-anchor="start" x="701.2244" y="-1153.9" font-family="Arial" font-size="14.00" fill="#666666">[integer]</text>
<polygon fill="none" stroke="#000000" points="604,-1112.5 604,-1142.5 1025,-1142.5 1025,-1112.5 604,-1112.5"/>
<text text-anchor="start" x="611" y="-1123.9" font-family="Arial" font-size="14.00" fill="#000000">index_name    </text>
<text text-anchor="start" x="721.4502" y="-1123.9" font-family="Arial" font-size="14.00" fill="#666666">[name]</text>
<polygon fill="none" stroke="#000000" points="604,-1082.5 604,-1112.5 1025,-1112.5 1025,-1082.5 604,-1082.5"/>
<text text-anchor="start" x="611" y="-1093.9" font-family="Arial" font-size="14.00" fill="#000000">hypertable_id    </text>
<text text-anchor="start" x="729.23" y="-1093.9" font-family="Arial" font-size="14.00" fill="#666666">[integer]</text>
<polygon fill="none" stroke="#000000" points="604,-1052.5 604,-1082.5 1025,-1082.5 1025,-1052.5 604,-1052.5"/>
<text text-anchor="start" x="611" y="-1063.9" font-family="Arial" font-size="14.00" fill="#000000">hypertable_index_name    </text>
<text text-anchor="start" x="794.5862" y="-1063.9" font-family="Arial" font-size="14.00" fill="#666666">[name]</text>
</g>
<!-- _timescaledb_catalog.chunk_index&#45;&gt;_timescaledb_catalog.chunk -->
<g id="edge3" class="edge">
<title>_timescaledb_catalog.chunk_index:chunk_id&#45;&gt;_timescaledb_catalog.chunk:id</title>
<path fill="none" stroke="#000000" d="M1035.2398,-1156.942C1124.037,-1146.5244 1001.4304,-992.8832 1076,-920 1188.2837,-810.2556 1612.9921,-787.5 1770,-787.5"/>
<polygon fill="#000000" stroke="#000000" points="1034.9852,-1156.9558 1024.7551,-1153.0067 1029.9926,-1157.2279 1025,-1157.5 1025,-1157.5 1025,-1157.5 1029.9926,-1157.2279 1025.2449,-1161.9933 1034.9852,-1156.9558 1034.9852,-1156.9558"/>
<text text-anchor="start" x="803.5875" y="-1141.5" font-family="Arial" font-size="10.00" fill="#000000">FOREIGN KEY (chunk_id) REFERENCES _timescaledb_catalog.chunk(id) ON DELETE CASCADE</text>
</g>
<!-- _timescaledb_catalog.chunk_data_node -->
<g id="node4" class="node">
<title>_timescaledb_catalog.chunk_data_node</title>
<polygon fill="#efefef" stroke="transparent" points="1129,-1157.5 1129,-1192.5 1592,-1192.5 1592,-1157.5 1129,-1157.5"/>
<polygon fill="none" stroke="#000000" points="1129,-1157.5 1129,-1192.5 1592,-1192.5 1592,-1157.5 1129,-1157.5"/>
<text text-anchor="start" x="1135.6529" y="-1170.3" font-family="Arial Bold" font-size="18.00" fill="#000000">_timescaledb_catalog.chunk_data_node</text>
<text text-anchor="start" x="1457.7791" y="-1170.3" font-family="Arial" font-size="14.00" fill="#000000">    </text>
<text text-anchor="start" x="1491.9839" y="-1170.3" font-family="Arial" font-size="14.00" fill="#666666">[BASE TABLE]</text>
<polygon fill="none" stroke="#000000" points="1129,-1127.5 1129,-1157.5 1592,-1157.5 1592,-1127.5 1129,-1127.5"/>
<text text-anchor="start" x="1136" y="-1138.9" font-family="Arial" font-size="14.00" fill="#000000">chunk_id    </text>
<text text-anchor="start" x="1226.2244" y="-1138.9" font-family="Arial" font-size="14.00" fill="#666666">[integer]</text>
<polygon fill="none" stroke="#000000" points="1129,-1097.5 1129,-1127.5 1592,-1127.5 1592,-1097.5 1129,-1097.5"/>
<text text-anchor="start" x="1136" y="-1108.9" font-family="Arial" font-size="14.00" fill="#000000">node_chunk_id    </text>
<text text-anchor="start" x="1265.1374" y="-1108.9" font-family="Arial" font-size="14.00" fill="#666666">[integer]</text>
<polygon fill="none" stroke="#000000" points="1129,-1067.5 1129,-1097.5 1592,-1097.5 1592,-1067.5 1129,-1067.5"/>
<text text-anchor="start" x="1136" y="-1078.9" font-family="Arial" font-size="14.00" fill="#000000">node_name    </text>
<text text-anchor="start" x="1244.1262" y="-1078.9" font-family="Arial" font-size="14.00" fill="#666666">[name]</text>
</g>
<!-- _timescaledb_catalog.chunk_data_node&#45;&gt;_timescaledb_catalog.chunk -->
<g id="edge4" class="edge">
<title>_timescaledb_catalog.chunk_data_node:chunk_id&#45;&gt;_timescaledb_catalog.chunk:id</title>
<path fill="none" stroke="#000000" d="M1602.2438,-1141.9869C1686.6776,-1132.9363 1597.5086,-1006.1386 1644,-920 1682.5976,-848.4869 1688.7356,-787.5 1770,-787.5"/>
<polygon fill="#000000" stroke="#000000" points="1601.9875,-1141.9996 1591.7748,-1138.0056 1596.9937,-1142.2498 1592,-1142.5 1592,-1142.5 1592,-1142.5 1596.9937,-1142.2498 1592.2252,-1146.9944 1601.9875,-1141.9996 1601.9875,-1141.9996"/>
<text text-anchor="start" x="1598.8685" y="-1152.5" font-family="Arial" font-size="10.00" fill="#000000">FOREIGN KEY (chunk_id) REFERENCES _timescaledb_catalog.chunk(id)</text>
</g>
<!-- _timescaledb_internal.bgw_policy_chunk_stats -->
<g id="node5" class="node">
<title>_timescaledb_internal.bgw_policy_chunk_stats</title>
<polygon fill="#efefef" stroke="transparent" points="1696,-1172.5 1696,-1207.5 2212,-1207.5 2212,-1172.5 1696,-1172.5"/>
<polygon fill="none" stroke="#000000" points="1696,-1172.5 1696,-1207.5 2212,-1207.5 2212,-1172.5 1696,-1172.5"/>
<text text-anchor="start" x="1702.6704" y="-1185.3" font-family="Arial Bold" font-size="18.00" fill="#000000">_timescaledb_internal.bgw_policy_chunk_stats</text>
<text text-anchor="start" x="2077.7616" y="-1185.3" font-family="Arial" font-size="14.00" fill="#000000">    </text>
<text text-anchor="start" x="2111.9664" y="-1185.3" font-family="Arial" font-size="14.00" fill="#666666">[BASE TABLE]</text>
<polygon fill="none" stroke="#000000" points="1696,-1142.5 1696,-1172.5 2212,-1172.5 2212,-1142.5 1696,-1142.5"/>
<text text-anchor="start" x="1703" y="-1153.9" font-family="Arial" font-size="14.00" fill="#000000">job_id    </text>
<text text-anchor="start" x="1774.5484" y="-1153.9" font-family="Arial" font-size="14.00" fill="#666666">[integer]</text>
<polygon fill="none" stroke="#000000" points="1696,-1112.5 1696,-1142.5 2212,-1142.5 2212,-1112.5 1696,-1112.5"/>
<text text-anchor="start" x="1703" y="-1123.9" font-family="Arial" font-size="14.00" fill="#000000">chunk_id    </text>
<text text-anchor="start" x="1793.2244" y="-1123.9" font-family="Arial" font-size="14.00" fill="#666666">[integer]</text>
<polygon fill="none" stroke="#000000" points="1696,-1082.5 1696,-1112.5 2212,-1112.5 2212,-1082.5 1696,-1082.5"/>
<text text-anchor="start" x="1703" y="-1093.9" font-family="Arial" font-size="14.00" fill="#000000">num_times_job_run    </text>
<text text-anchor="start" x="1860.1164" y="-1093.9" font-family="Arial" font-size="14.00" fill="#666666">[integer]</text>
<polygon fill="none" stroke="#000000" points="1696,-1052.5 1696,-1082.5 2212,-1082.5 2212,-1052.5 1696,-1052.5"/>
<text text-anchor="start" x="1703" y="-1063.9" font-family="Arial" font-size="14.00" fill="#000000">last_time_job_run    </text>
<text text-anchor="start" x="1847.6704" y="-1063.9" font-family="Arial" font-size="14.00" fill="#666666">[timestamp with time zone]</text>
</g>
<!-- _timescaledb_internal.bgw_policy_chunk_stats&#45;&gt;_timescaledb_catalog.chunk -->
<g id="edge5" class="edge">
<title>_timescaledb_internal.bgw_policy_chunk_stats:chunk_id&#45;&gt;_timescaledb_catalog.chunk:id</title>
<path fill="none" stroke="#000000" d="M2221.8915,-1125.3288C2282.3796,-1096.3721 2211.6998,-787.5 2138,-787.5"/>
<polygon fill="#000000" stroke="#000000" points="2221.7675,-1125.356 2211.0352,-1123.1046 2216.8837,-1126.428 2212,-1127.5 2212,-1127.5 2212,-1127.5 2216.8837,-1126.428 2212.9648,-1131.8954 2221.7675,-1125.356 2221.7675,-1125.356"/>
<text text-anchor="start" x="1990.5875" y="-1111.5" font-family="Arial" font-size="10.00" fill="#000000">FOREIGN KEY (chunk_id) REFERENCES _timescaledb_catalog.chunk(id) ON DELETE CASCADE</text>
</g>
<!-- _timescaledb_catalog.compression_chunk_size -->
<g id="node6" class="node">
<title>_timescaledb_catalog.compression_chunk_size</title>
<polygon fill="#efefef" stroke="transparent" points="2316,-1262.5 2316,-1297.5 2838,-1297.5 2838,-1262.5 2316,-1262.5"/>
<polygon fill="none" stroke="#000000" points="2316,-1262.5 2316,-1297.5 2838,-1297.5 2838,-1262.5 2316,-1262.5"/>
<text text-anchor="start" x="2322.6707" y="-1275.3" font-family="Arial Bold" font-size="18.00" fill="#000000">_timescaledb_catalog.compression_chunk_size</text>
<text text-anchor="start" x="2703.7613" y="-1275.3" font-family="Arial" font-size="14.00" fill="#000000">    </text>
<text text-anchor="start" x="2737.9661" y="-1275.3" font-family="Arial" font-size="14.00" fill="#666666">[BASE TABLE]</text>
<polygon fill="none" stroke="#000000" points="2316,-1232.5 2316,-1262.5 2838,-1262.5 2838,-1232.5 2316,-1232.5"/>
<text text-anchor="start" x="2323" y="-1243.9" font-family="Arial" font-size="14.00" fill="#000000">chunk_id    </text>
<text text-anchor="start" x="2413.2244" y="-1243.9" font-family="Arial" font-size="14.00" fill="#666666">[integer]</text>
<polygon fill="none" stroke="#000000" points="2316,-1202.5 2316,-1232.5 2838,-1232.5 2838,-1202.5 2316,-1202.5"/>
<text text-anchor="start" x="2323" y="-1213.9" font-family="Arial" font-size="14.00" fill="#000000">compressed_chunk_id    </text>
<text text-anchor="start" x="2497.2412" y="-1213.9" font-family="Arial" font-size="14.00" fill="#666666">[integer]</text>
<polygon fill="none" stroke="#000000" points="2316,-1172.5 2316,-1202.5 2838,-1202.5 2838,-1172.5 2316,-1172.5"/>
<text text-anchor="start" x="2323" y="-1183.9" font-family="Arial" font-size="14.00" fill="#000000">uncompressed_heap_size    </text>
<text text-anchor="start" x="2520.589" y="-1183.9" font-family="Arial" font-size="14.00" fill="#666666">[bigint]</text>
<polygon fill="none" stroke="#000000" points="2316,-1142.5 2316,-1172.5 2838,-1172.5 2838,-1142.5 2316,-1142.5"/>
<text text-anchor="start" x="2323" y="-1153.9" font-family="Arial" font-size="14.00" fill="#000000">uncompressed_toast_size    </text>
<text text-anchor="start" x="2519.805" y="-1153.9" font-family="Arial" font-size="14.00" fill="#666666">[bigint]</text>
<polygon fill="none" stroke="#000000" points="2316,-1112.5 2316,-1142.5 2838,-1142.5 2838,-1112.5 2316,-1112.5"/>
<text text-anchor="start" x="2323" y="-1123.9" font-family="Arial" font-size="14.00" fill="#000000">uncompressed_index_size    </text>
<text text-anchor="start" x="2522.913" y="-1123.9" font-family="Arial" font-size="14.00" fill="#666666">[bigint]</text>
<polygon fill="none" stroke="#000000" points="2316,-1082.5 2316,-1112.5 2838,-1112.5 2838,-1082.5 2316,-1082.5"/>
<text text-anchor="start" x="2323" y="-1093.9" font-family="Arial" font-size="14.00" fill="#000000">compressed_heap_size    </text>
<text text-anchor="start" x="2505.0238" y="-1093.9" font-family="Arial" font-size="14.00" fill="#666666">[bigint]</text>
<polygon fill="none" stroke="#000000" points="2316,-1052.5 2316,-1082.5 2838,-1082.5 2838,-1052.5 2316,-1052.5"/>
<text text-anchor="start" x="2323" y="-1063.9" font-family="Arial" font-size="14.00" fill="#000000">compressed_toast_size    </text>
<text text-anchor="start" x="2504.2398" y="-1063.9" font-family="Arial" font-size="14.00" fill="#666666">[bigint]</text>
<polygon fill="none" stroke="#000000" points="2316,-1022.5 2316,-1052.5 2838,-1052.5 2838,-1022.5 2316,-1022.5"/>
<text text-anchor="start" x="2323" y="-1033.9" font-family="Arial" font-size="14.00" fill="#000000">compressed_index_size    </text>
<text text-anchor="start" x="2507.3478" y="-1033.9" font-family="Arial" font-size="14.00" fill="#666666">[bigint]</text>
<polygon fill="none" stroke="#000000" points="2316,-992.5 2316,-1022.5 2838,-1022.5 2838,-992.5 2316,-992.5"/>
<text text-anchor="start" x="2323" y="-1003.9" font-family="Arial" font-size="14.00" fill="#000000">numrows_pre_compression    </text>
<text text-anchor="start" x="2529.1122" y="-1003.9" font-family="Arial" font-size="14.00" fill="#666666">[bigint]</text>
<polygon fill="none" stroke="#000000" points="2316,-962.5 2316,-992.5 2838,-992.5 2838,-962.5 2316,-962.5"/>
<text text-anchor="start" x="2323" y="-973.9" font-family="Arial" font-size="14.00" fill="#000000">numrows_post_compression    </text>
<text text-anchor="start" x="2535.3422" y="-973.9" font-family="Arial" font-size="14.00" fill="#666666">[bigint]</text>
</g>
<!-- _timescaledb_catalog.compression_chunk_size&#45;&gt;_timescaledb_catalog.chunk -->
<g id="edge6" class="edge">
<title>_timescaledb_catalog.compression_chunk_size:chunk_id&#45;&gt;_timescaledb_catalog.chunk:id</title>
<path fill="none" stroke="#000000" d="M2306.0963,-1245.6833C2247.4087,-1222.4352 2295.0454,-982.8409 2264,-920 2228.0058,-847.1418 2219.2644,-787.5 2138,-787.5"/>
<polygon fill="#000000" stroke="#000000" points="2306.1641,-1245.6956 2315.188,-1251.9261 2311.0821,-1246.5978 2316,-1247.5 2316,-1247.5 2316,-1247.5 2311.0821,-1246.5978 2316.812,-1243.0739 2306.1641,-1245.6956 2306.1641,-1245.6956"/>
<text text-anchor="start" x="1866.5875" y="-1257.5" font-family="Arial" font-size="10.00" fill="#000000">FOREIGN KEY (chunk_id) REFERENCES _timescaledb_catalog.chunk(id) ON DELETE CASCADE</text>
</g>
<!-- _timescaledb_catalog.compression_chunk_size&#45;&gt;_timescaledb_catalog.chunk -->
<g id="edge7" class="edge">
<title>_timescaledb_catalog.compression_chunk_size:compressed_chunk_id&#45;&gt;_timescaledb_catalog.chunk:id</title>
<path fill="none" stroke="#000000" d="M2305.9671,-1215.4365C2253.6163,-1192.0478 2292.5429,-976.6598 2264,-920 2227.4394,-847.4244 2219.2644,-787.5 2138,-787.5"/>
<polygon fill="#000000" stroke="#000000" points="2306.205,-1215.4853 2315.0934,-1221.9077 2311.1025,-1216.4927 2316,-1217.5 2316,-1217.5 2316,-1217.5 2311.1025,-1216.4927 2316.9066,-1213.0923 2306.205,-1215.4853 2306.205,-1215.4853"/>
<text text-anchor="start" x="1806.5815" y="-1227.5" font-family="Arial" font-size="10.00" fill="#000000">FOREIGN KEY (compressed_chunk_id) REFERENCES _timescaledb_catalog.chunk(id) ON DELETE CASCADE</text>
</g>
<!-- _timescaledb_catalog.chunk_copy_operation -->
<g id="node7" class="node">
<title>_timescaledb_catalog.chunk_copy_operation</title>
<polygon fill="#efefef" stroke="transparent" points="2943,-1247.5 2943,-1282.5 3444,-1282.5 3444,-1247.5 2943,-1247.5"/>
<polygon fill="none" stroke="#000000" points="2943,-1247.5 2943,-1282.5 3444,-1282.5 3444,-1247.5 2943,-1247.5"/>
<text text-anchor="start" x="2949.6566" y="-1260.3" font-family="Arial Bold" font-size="18.00" fill="#000000">_timescaledb_catalog.chunk_copy_operation</text>
<text text-anchor="start" x="3309.7754" y="-1260.3" font-family="Arial" font-size="14.00" fill="#000000">    </text>
<text text-anchor="start" x="3343.9802" y="-1260.3" font-family="Arial" font-size="14.00" fill="#666666">[BASE TABLE]</text>
<polygon fill="none" stroke="#000000" points="2943,-1217.5 2943,-1247.5 3444,-1247.5 3444,-1217.5 2943,-1217.5"/>
<text text-anchor="start" x="2950" y="-1228.9" font-family="Arial" font-size="14.00" fill="#000000">operation_id    </text>
<text text-anchor="start" x="3061.23" y="-1228.9" font-family="Arial" font-size="14.00" fill="#666666">[name]</text>
<polygon fill="none" stroke="#000000" points="2943,-1187.5 2943,-1217.5 3444,-1217.5 3444,-1187.5 2943,-1187.5"/>
<text text-anchor="start" x="2950" y="-1198.9" font-family="Arial" font-size="14.00" fill="#000000">backend_pid    </text>
<text text-anchor="start" x="3063.5722" y="-1198.9" font-family="Arial" font-size="14.00" fill="#666666">[integer]</text>
<polygon fill="none" stroke="#000000" points="2943,-1157.5 2943,-1187.5 3444,-1187.5 3444,-1157.5 2943,-1157.5"/>
<text text-anchor="start" x="2950" y="-1168.9" font-family="Arial" font-size="14.00" fill="#000000">completed_stage    </text>
<text text-anchor="start" x="3090.7966" y="-1168.9" font-family="Arial" font-size="14.00" fill="#666666">[name]</text>
<polygon fill="none" stroke="#000000" points="2943,-1127.5 2943,-1157.5 3444,-1157.5 3444,-1127.5 2943,-1127.5"/>
<text text-anchor="start" x="2950" y="-1138.9" font-family="Arial" font-size="14.00" fill="#000000">time_start    </text>
<text text-anchor="start" x="3045.6522" y="-1138.9" font-family="Arial" font-size="14.00" fill="#666666">[timestamp with time zone]</text>
<polygon fill="none" stroke="#000000" points="2943,-1097.5 2943,-1127.5 3444,-1127.5 3444,-1097.5 2943,-1097.5"/>
<text text-anchor="start" x="2950" y="-1108.9" font-family="Arial" font-size="14.00" fill="#000000">chunk_id    </text>
<text text-anchor="start" x="3040.2244" y="-1108.9" font-family="Arial" font-size="14.00" fill="#666666">[integer]</text>
<polygon fill="none" stroke="#000000" points="2943,-1067.5 2943,-1097.5 3444,-1097.5 3444,-1067.5 2943,-1067.5"/>
<text text-anchor="start" x="2950" y="-1078.9" font-family="Arial" font-size="14.00" fill="#000000">compress_chunk_name    </text>
<text text-anchor="start" x="3132.7952" y="-1078.9" font-family="Arial" font-size="14.00" fill="#666666">[name]</text>
<polygon fill="none" stroke="#000000" points="2943,-1037.5 2943,-1067.5 3444,-1067.5 3444,-1037.5 2943,-1037.5"/>
<text text-anchor="start" x="2950" y="-1048.9" font-family="Arial" font-size="14.00" fill="#000000">source_node_name    </text>
<text text-anchor="start" x="3107.9172" y="-1048.9" font-family="Arial" font-size="14.00" fill="#666666">[name]</text>
<polygon fill="none" stroke="#000000" points="2943,-1007.5 2943,-1037.5 3444,-1037.5 3444,-1007.5 2943,-1007.5"/>
<text text-anchor="start" x="2950" y="-1018.9" font-family="Arial" font-size="14.00" fill="#000000">dest_node_name    </text>
<text text-anchor="start" x="3092.3646" y="-1018.9" font-family="Arial" font-size="14.00" fill="#666666">[name]</text>
<polygon fill="none" stroke="#000000" points="2943,-977.5 2943,-1007.5 3444,-1007.5 3444,-977.5 2943,-977.5"/>
<text text-anchor="start" x="2950" y="-988.9" font-family="Arial" font-size="14.00" fill="#000000">delete_on_source_node    </text>
<text text-anchor="start" x="3134.3842" y="-988.9" font-family="Arial" font-size="14.00" fill="#666666">[boolean]</text>
</g>
<!-- _timescaledb_catalog.chunk_copy_operation&#45;&gt;_timescaledb_catalog.chunk -->
<g id="edge8" class="edge">
<title>_timescaledb_catalog.chunk_copy_operation:chunk_id&#45;&gt;_timescaledb_catalog.chunk:id</title>
<path fill="none" stroke="#000000" d="M2933.0158,-1111.8441C2862.2958,-1101.731 2952.9425,-977.2725 2890,-920 2764.4947,-805.8005 2307.6853,-787.5 2138,-787.5"/>
<polygon fill="#000000" stroke="#000000" points="2933.0215,-1111.8444 2942.705,-1116.9903 2938.0108,-1112.1722 2943,-1112.5 2943,-1112.5 2943,-1112.5 2938.0108,-1112.1722 2943.295,-1108.0097 2933.0215,-1111.8444 2933.0215,-1111.8444"/>
<text text-anchor="start" x="2493.5875" y="-1122.5" font-family="Arial" font-size="10.00" fill="#000000">FOREIGN KEY (chunk_id) REFERENCES _timescaledb_catalog.chunk(id) ON DELETE CASCADE</text>
</g>
</g>
</svg>
