<?xml version="1.0" encoding="UTF-8" standalone="no"?>
<!DOCTYPE svg PUBLIC "-//W3C//DTD SVG 1.1//EN"
 "http://www.w3.org/Graphics/SVG/1.1/DTD/svg11.dtd">
<!-- Generated by graphviz version 2.40.1 (20161225.0304)
 -->
<!-- Title: _timescaledb_catalog.continuous_aggs_hypertable_invalidation_log Pages: 1 -->
<svg width="784pt" height="225pt"
 viewBox="0.00 0.00 784.00 225.00" xmlns="http://www.w3.org/2000/svg" xmlns:xlink="http://www.w3.org/1999/xlink">
<g id="graph0" class="graph" transform="scale(1 1) rotate(0) translate(4 221)">
<title>_timescaledb_catalog.continuous_aggs_hypertable_invalidation_log</title>
<polygon fill="#ffffff" stroke="transparent" points="-4,4 -4,-221 780,-221 780,4 -4,4"/>
<!-- _timescaledb_catalog.continuous_aggs_hypertable_invalidation_log -->
<g id="node1" class="node">
<title>_timescaledb_catalog.continuous_aggs_hypertable_invalidation_log</title>
<polygon fill="#efefef" stroke="transparent" points="46,-135.5 46,-170.5 730,-170.5 730,-135.5 46,-135.5"/>
<polygon fill="none" stroke="#000000" points="46,-135.5 46,-170.5 730,-170.5 730,-135.5 46,-135.5"/>
<text text-anchor="start" x="52.6284" y="-148.3" font-family="Arial Bold" font-size="18.00" fill="#000000">_timescaledb_catalog.continuous_aggs_hypertable_invalidation_log</text>
<text text-anchor="start" x="595.8036" y="-148.3" font-family="Arial" font-size="14.00" fill="#000000">    </text>
<text text-anchor="start" x="630.0084" y="-148.3" font-family="Arial" font-size="14.00" fill="#666666">[BASE TABLE]</text>
<polygon fill="none" stroke="#000000" points="46,-105.5 46,-135.5 730,-135.5 730,-105.5 46,-105.5"/>
<text text-anchor="start" x="53" y="-116.9" font-family="Arial" font-size="14.00" fill="#000000">hypertable_id </text>
<text text-anchor="start" x="140.9158" y="-116.9" font-family="Arial" font-size="14.00" fill="#666666">[integer]</text>
<polygon fill="none" stroke="#000000" points="46,-75.5 46,-105.5 730,-105.5 730,-75.5 46,-75.5"/>
<text text-anchor="start" x="53" y="-86.9" font-family="Arial" font-size="14.00" fill="#000000">lowest_modified_value </text>
<text text-anchor="start" x="198.474" y="-86.9" font-family="Arial" font-size="14.00" fill="#666666">[bigint]</text>
<polygon fill="none" stroke="#000000" points="46,-45.5 46,-75.5 730,-75.5 730,-45.5 46,-45.5"/>
<text text-anchor="start" x="53" y="-56.9" font-family="Arial" font-size="14.00" fill="#000000">greatest_modified_value </text>
<text text-anchor="start" x="209.3772" y="-56.9" font-family="Arial" font-size="14.00" fill="#666666">[bigint]</text>
<polygon fill="none" stroke="#000000" stroke-width="3" points="44.5,-44.5 44.5,-172.5 731.5,-172.5 731.5,-44.5 44.5,-44.5"/>
</g>
</g>
</svg>
