<?xml version="1.0" encoding="UTF-8" standalone="no"?>
<!DOCTYPE svg PUBLIC "-//W3C//DTD SVG 1.1//EN"
 "http://www.w3.org/Graphics/SVG/1.1/DTD/svg11.dtd">
<!-- Generated by graphviz version 2.40.1 (20161225.0304)
 -->
<!-- Title: _timescaledb_catalog.compression_algorithm Pages: 1 -->
<svg width="1066pt" height="622pt"
 viewBox="0.00 0.00 1066.00 622.00" xmlns="http://www.w3.org/2000/svg" xmlns:xlink="http://www.w3.org/1999/xlink">
<g id="graph0" class="graph" transform="scale(1 1) rotate(0) translate(4 618)">
<title>_timescaledb_catalog.compression_algorithm</title>
<polygon fill="#ffffff" stroke="transparent" points="-4,4 -4,-618 1062,-618 1062,4 -4,4"/>
<!-- _timescaledb_catalog.compression_algorithm -->
<g id="node1" class="node">
<title>_timescaledb_catalog.compression_algorithm</title>
<polygon fill="#efefef" stroke="transparent" points="48,-165.5 48,-200.5 554,-200.5 554,-165.5 48,-165.5"/>
<polygon fill="none" stroke="#000000" points="48,-165.5 48,-200.5 554,-200.5 554,-165.5 48,-165.5"/>
<text text-anchor="start" x="54.6834" y="-178.3" font-family="Arial Bold" font-size="18.00" fill="#000000">_timescaledb_catalog.compression_algorithm</text>
<text text-anchor="start" x="419.7486" y="-178.3" font-family="Arial" font-size="14.00" fill="#000000">    </text>
<text text-anchor="start" x="453.9534" y="-178.3" font-family="Arial" font-size="14.00" fill="#666666">[BASE TABLE]</text>
<polygon fill="none" stroke="#000000" points="48,-135.5 48,-165.5 554,-165.5 554,-135.5 48,-135.5"/>
<text text-anchor="start" x="55" y="-146.9" font-family="Arial" font-size="14.00" fill="#000000">id </text>
<text text-anchor="start" x="69.7798" y="-146.9" font-family="Arial" font-size="14.00" fill="#666666">[smallint]</text>
<polygon fill="none" stroke="#000000" points="48,-105.5 48,-135.5 554,-135.5 554,-105.5 48,-105.5"/>
<text text-anchor="start" x="55" y="-116.9" font-family="Arial" font-size="14.00" fill="#000000">version </text>
<text text-anchor="start" x="104.0056" y="-116.9" font-family="Arial" font-size="14.00" fill="#666666">[smallint]</text>
<polygon fill="none" stroke="#000000" points="48,-75.5 48,-105.5 554,-105.5 554,-75.5 48,-75.5"/>
<text text-anchor="start" x="55" y="-86.9" font-family="Arial" font-size="14.00" fill="#000000">name </text>
<text text-anchor="start" x="93.899" y="-86.9" font-family="Arial" font-size="14.00" fill="#666666">[name]</text>
<polygon fill="none" stroke="#000000" points="48,-45.5 48,-75.5 554,-75.5 554,-45.5 48,-45.5"/>
<text text-anchor="start" x="55" y="-56.9" font-family="Arial" font-size="14.00" fill="#000000">description </text>
<text text-anchor="start" x="126.568" y="-56.9" font-family="Arial" font-size="14.00" fill="#666666">[text]</text>
<polygon fill="none" stroke="#000000" stroke-width="3" points="46.5,-44.5 46.5,-202.5 555.5,-202.5 555.5,-44.5 46.5,-44.5"/>
</g>
<!-- _timescaledb_catalog.hypertable_compression -->
<g id="node2" class="node">
<title>_timescaledb_catalog.hypertable_compression</title>
<polygon fill="#efefef" stroke="transparent" points="43,-535.5 43,-570.5 559,-570.5 559,-535.5 43,-535.5"/>
<polygon fill="none" stroke="#000000" points="43,-535.5 43,-570.5 559,-570.5 559,-535.5 43,-535.5"/>
<text text-anchor="start" x="49.6704" y="-548.3" font-family="Arial Bold" font-size="18.00" fill="#000000">_timescaledb_catalog.hypertable_compression</text>
<text text-anchor="start" x="424.7616" y="-548.3" font-family="Arial" font-size="14.00" fill="#000000">    </text>
<text text-anchor="start" x="458.9664" y="-548.3" font-family="Arial" font-size="14.00" fill="#666666">[BASE TABLE]</text>
<polygon fill="none" stroke="#000000" points="43,-505.5 43,-535.5 559,-535.5 559,-505.5 43,-505.5"/>
<text text-anchor="start" x="50" y="-516.9" font-family="Arial" font-size="14.00" fill="#000000">hypertable_id    </text>
<text text-anchor="start" x="168.23" y="-516.9" font-family="Arial" font-size="14.00" fill="#666666">[integer]</text>
<polygon fill="none" stroke="#000000" points="43,-475.5 43,-505.5 559,-505.5 559,-475.5 43,-475.5"/>
<text text-anchor="start" x="50" y="-486.9" font-family="Arial" font-size="14.00" fill="#000000">attname    </text>
<text text-anchor="start" x="134.777" y="-486.9" font-family="Arial" font-size="14.00" fill="#666666">[name]</text>
<polygon fill="none" stroke="#000000" points="43,-445.5 43,-475.5 559,-475.5 559,-445.5 43,-445.5"/>
<text text-anchor="start" x="50" y="-456.9" font-family="Arial" font-size="14.00" fill="#000000">compression_algorithm_id    </text>
<text text-anchor="start" x="247.5554" y="-456.9" font-family="Arial" font-size="14.00" fill="#666666">[smallint]</text>
<polygon fill="none" stroke="#000000" points="43,-415.5 43,-445.5 559,-445.5 559,-415.5 43,-415.5"/>
<text text-anchor="start" x="50" y="-426.9" font-family="Arial" font-size="14.00" fill="#000000">segmentby_column_index    </text>
<text text-anchor="start" x="246.8036" y="-426.9" font-family="Arial" font-size="14.00" fill="#666666">[smallint]</text>
<polygon fill="none" stroke="#000000" points="43,-385.5 43,-415.5 559,-415.5 559,-385.5 43,-385.5"/>
<text text-anchor="start" x="50" y="-396.9" font-family="Arial" font-size="14.00" fill="#000000">orderby_column_index    </text>
<text text-anchor="start" x="225.791" y="-396.9" font-family="Arial" font-size="14.00" fill="#666666">[smallint]</text>
<polygon fill="none" stroke="#000000" points="43,-355.5 43,-385.5 559,-385.5 559,-355.5 43,-355.5"/>
<text text-anchor="start" x="50" y="-366.9" font-family="Arial" font-size="14.00" fill="#000000">orderby_asc    </text>
<text text-anchor="start" x="161.2216" y="-366.9" font-family="Arial" font-size="14.00" fill="#666666">[boolean]</text>
<polygon fill="none" stroke="#000000" points="43,-325.5 43,-355.5 559,-355.5 559,-325.5 43,-325.5"/>
<text text-anchor="start" x="50" y="-336.9" font-family="Arial" font-size="14.00" fill="#000000">orderby_nullsfirst    </text>
<text text-anchor="start" x="190.7658" y="-336.9" font-family="Arial" font-size="14.00" fill="#666666">[boolean]</text>
</g>
<!-- _timescaledb_catalog.hypertable_compression&#45;&gt;_timescaledb_catalog.compression_algorithm -->
<g id="edge1" class="edge">
<title>_timescaledb_catalog.hypertable_compression:compression_algorithm_id&#45;&gt;_timescaledb_catalog.compression_algorithm:id</title>
<path fill="none" stroke="#000000" d="M568.9258,-458.183C627.2253,-429.815 619.3991,-150.5 554,-150.5"/>
<polygon fill="#000000" stroke="#000000" points="568.7382,-458.2267 557.977,-456.1178 563.8691,-459.3633 559,-460.5 559,-460.5 559,-460.5 563.8691,-459.3633 560.023,-464.8822 568.7382,-458.2267 568.7382,-458.2267"/>
<text text-anchor="start" x="566.2035" y="-470.5" font-family="Arial" font-size="10.00" fill="#000000">FOREIGN KEY (compression_algorithm_id) REFERENCES _timescaledb_catalog.compression_algorithm(id)</text>
</g>
</g>
</svg>
