<?xml version="1.0" encoding="UTF-8" standalone="no"?>
<!DOCTYPE svg PUBLIC "-//W3C//DTD SVG 1.1//EN"
 "http://www.w3.org/Graphics/SVG/1.1/DTD/svg11.dtd">
<!-- Generated by graphviz version 2.40.1 (20161225.0304)
 -->
<!-- Title: _timescaledb_catalog.chunk_constraint Pages: 1 -->
<svg width="1245pt" height="652pt"
 viewBox="0.00 0.00 1245.00 652.00" xmlns="http://www.w3.org/2000/svg" xmlns:xlink="http://www.w3.org/1999/xlink">
<g id="graph0" class="graph" transform="scale(1 1) rotate(0) translate(4 648)">
<title>_timescaledb_catalog.chunk_constraint</title>
<polygon fill="#ffffff" stroke="transparent" points="-4,4 -4,-648 1241,-648 1241,4 -4,4"/>
<!-- _timescaledb_catalog.chunk_constraint -->
<g id="node1" class="node">
<title>_timescaledb_catalog.chunk_constraint</title>
<polygon fill="#efefef" stroke="transparent" points="346,-562.5 346,-597.5 802,-597.5 802,-562.5 346,-562.5"/>
<polygon fill="none" stroke="#000000" points="346,-562.5 346,-597.5 802,-597.5 802,-562.5 346,-562.5"/>
<text text-anchor="start" x="352.671" y="-575.3" font-family="Arial Bold" font-size="18.00" fill="#000000">_timescaledb_catalog.chunk_constraint</text>
<text text-anchor="start" x="667.761" y="-575.3" font-family="Arial" font-size="14.00" fill="#000000">    </text>
<text text-anchor="start" x="701.9658" y="-575.3" font-family="Arial" font-size="14.00" fill="#666666">[BASE TABLE]</text>
<polygon fill="none" stroke="#000000" points="346,-532.5 346,-562.5 802,-562.5 802,-532.5 346,-532.5"/>
<text text-anchor="start" x="353" y="-543.9" font-family="Arial" font-size="14.00" fill="#000000">chunk_id </text>
<text text-anchor="start" x="412.9102" y="-543.9" font-family="Arial" font-size="14.00" fill="#666666">[integer]</text>
<polygon fill="none" stroke="#000000" points="346,-502.5 346,-532.5 802,-532.5 802,-502.5 346,-502.5"/>
<text text-anchor="start" x="353" y="-513.9" font-family="Arial" font-size="14.00" fill="#000000">dimension_slice_id </text>
<text text-anchor="start" x="475.1276" y="-513.9" font-family="Arial" font-size="14.00" fill="#666666">[integer]</text>
<polygon fill="none" stroke="#000000" points="346,-472.5 346,-502.5 802,-502.5 802,-472.5 346,-472.5"/>
<text text-anchor="start" x="353" y="-483.9" font-family="Arial" font-size="14.00" fill="#000000">constraint_name </text>
<text text-anchor="start" x="460.3604" y="-483.9" font-family="Arial" font-size="14.00" fill="#666666">[name]</text>
<polygon fill="none" stroke="#000000" points="346,-442.5 346,-472.5 802,-472.5 802,-442.5 346,-442.5"/>
<text text-anchor="start" x="353" y="-453.9" font-family="Arial" font-size="14.00" fill="#000000">hypertable_constraint_name </text>
<text text-anchor="start" x="533.4964" y="-453.9" font-family="Arial" font-size="14.00" fill="#666666">[name]</text>
<polygon fill="none" stroke="#000000" stroke-width="3" points="344.5,-441.5 344.5,-599.5 803.5,-599.5 803.5,-441.5 344.5,-441.5"/>
</g>
<!-- _timescaledb_catalog.chunk -->
<g id="node2" class="node">
<title>_timescaledb_catalog.chunk</title>
<polygon fill="#efefef" stroke="transparent" points="134,-282.5 134,-317.5 502,-317.5 502,-282.5 134,-282.5"/>
<polygon fill="none" stroke="#000000" points="134,-282.5 134,-317.5 502,-317.5 502,-282.5 134,-282.5"/>
<text text-anchor="start" x="140.6819" y="-295.3" font-family="Arial Bold" font-size="18.00" fill="#000000">_timescaledb_catalog.chunk</text>
<text text-anchor="start" x="367.7501" y="-295.3" font-family="Arial" font-size="14.00" fill="#000000">    </text>
<text text-anchor="start" x="401.9549" y="-295.3" font-family="Arial" font-size="14.00" fill="#666666">[BASE TABLE]</text>
<polygon fill="none" stroke="#000000" points="134,-252.5 134,-282.5 502,-282.5 502,-252.5 134,-252.5"/>
<text text-anchor="start" x="141" y="-263.9" font-family="Arial" font-size="14.00" fill="#000000">id    </text>
<text text-anchor="start" x="186.094" y="-263.9" font-family="Arial" font-size="14.00" fill="#666666">[integer]</text>
<polygon fill="none" stroke="#000000" points="134,-222.5 134,-252.5 502,-252.5 502,-222.5 134,-222.5"/>
<text text-anchor="start" x="141" y="-233.9" font-family="Arial" font-size="14.00" fill="#000000">hypertable_id    </text>
<text text-anchor="start" x="259.23" y="-233.9" font-family="Arial" font-size="14.00" fill="#666666">[integer]</text>
<polygon fill="none" stroke="#000000" points="134,-192.5 134,-222.5 502,-222.5 502,-192.5 134,-192.5"/>
<text text-anchor="start" x="141" y="-203.9" font-family="Arial" font-size="14.00" fill="#000000">schema_name    </text>
<text text-anchor="start" x="267.0042" y="-203.9" font-family="Arial" font-size="14.00" fill="#666666">[name]</text>
<polygon fill="none" stroke="#000000" points="134,-162.5 134,-192.5 502,-192.5 502,-162.5 134,-162.5"/>
<text text-anchor="start" x="141" y="-173.9" font-family="Arial" font-size="14.00" fill="#000000">table_name    </text>
<text text-anchor="start" x="248.3408" y="-173.9" font-family="Arial" font-size="14.00" fill="#666666">[name]</text>
<polygon fill="none" stroke="#000000" points="134,-132.5 134,-162.5 502,-162.5 502,-132.5 134,-132.5"/>
<text text-anchor="start" x="141" y="-143.9" font-family="Arial" font-size="14.00" fill="#000000">compressed_chunk_id    </text>
<text text-anchor="start" x="315.2412" y="-143.9" font-family="Arial" font-size="14.00" fill="#666666">[integer]</text>
<polygon fill="none" stroke="#000000" points="134,-102.5 134,-132.5 502,-132.5 502,-102.5 134,-102.5"/>
<text text-anchor="start" x="141" y="-113.9" font-family="Arial" font-size="14.00" fill="#000000">dropped    </text>
<text text-anchor="start" x="226.561" y="-113.9" font-family="Arial" font-size="14.00" fill="#666666">[boolean]</text>
<polygon fill="none" stroke="#000000" points="134,-72.5 134,-102.5 502,-102.5 502,-72.5 134,-72.5"/>
<text text-anchor="start" x="141" y="-83.9" font-family="Arial" font-size="14.00" fill="#000000">status    </text>
<text text-anchor="start" x="212.5512" y="-83.9" font-family="Arial" font-size="14.00" fill="#666666">[integer]</text>
<polygon fill="none" stroke="#000000" points="134,-42.5 134,-72.5 502,-72.5 502,-42.5 134,-42.5"/>
<text text-anchor="start" x="141" y="-53.9" font-family="Arial" font-size="14.00" fill="#000000">osm_chunk    </text>
<text text-anchor="start" x="246.7784" y="-53.9" font-family="Arial" font-size="14.00" fill="#666666">[boolean]</text>
</g>
<!-- _timescaledb_catalog.chunk_constraint&#45;&gt;_timescaledb_catalog.chunk -->
<g id="edge1" class="edge">
<title>_timescaledb_catalog.chunk_constraint:chunk_id&#45;&gt;_timescaledb_catalog.chunk:id</title>
<path fill="none" stroke="#000000" d="M335.8403,-546.6429C281.9215,-536.9014 306.6355,-446.4832 346,-397 390.298,-341.3152 457.702,-416.6848 502,-361 527.8705,-328.4795 543.5556,-267.5 502,-267.5"/>
<polygon fill="#000000" stroke="#000000" points="336.0354,-546.6593 345.6217,-551.9841 341.0177,-547.0796 346,-547.5 346,-547.5 346,-547.5 341.0177,-547.0796 346.3783,-543.0159 336.0354,-546.6593 336.0354,-546.6593"/>
<text text-anchor="start" x="6.8685" y="-557.5" font-family="Arial" font-size="10.00" fill="#000000">FOREIGN KEY (chunk_id) REFERENCES _timescaledb_catalog.chunk(id)</text>
</g>
<!-- _timescaledb_catalog.dimension_slice -->
<g id="node3" class="node">
<title>_timescaledb_catalog.dimension_slice</title>
<polygon fill="#efefef" stroke="transparent" points="606,-222.5 606,-257.5 1054,-257.5 1054,-222.5 606,-222.5"/>
<polygon fill="none" stroke="#000000" points="606,-222.5 606,-257.5 1054,-257.5 1054,-222.5 606,-222.5"/>
<text text-anchor="start" x="612.685" y="-235.3" font-family="Arial Bold" font-size="18.00" fill="#000000">_timescaledb_catalog.dimension_slice</text>
<text text-anchor="start" x="919.747" y="-235.3" font-family="Arial" font-size="14.00" fill="#000000">    </text>
<text text-anchor="start" x="953.9518" y="-235.3" font-family="Arial" font-size="14.00" fill="#666666">[BASE TABLE]</text>
<polygon fill="none" stroke="#000000" points="606,-192.5 606,-222.5 1054,-222.5 1054,-192.5 606,-192.5"/>
<text text-anchor="start" x="613" y="-203.9" font-family="Arial" font-size="14.00" fill="#000000">id    </text>
<text text-anchor="start" x="658.094" y="-203.9" font-family="Arial" font-size="14.00" fill="#666666">[integer]</text>
<polygon fill="none" stroke="#000000" points="606,-162.5 606,-192.5 1054,-192.5 1054,-162.5 606,-162.5"/>
<text text-anchor="start" x="613" y="-173.9" font-family="Arial" font-size="14.00" fill="#000000">dimension_id    </text>
<text text-anchor="start" x="729.6634" y="-173.9" font-family="Arial" font-size="14.00" fill="#666666">[integer]</text>
<polygon fill="none" stroke="#000000" points="606,-132.5 606,-162.5 1054,-162.5 1054,-132.5 606,-132.5"/>
<text text-anchor="start" x="613" y="-143.9" font-family="Arial" font-size="14.00" fill="#000000">range_start    </text>
<text text-anchor="start" x="718.0028" y="-143.9" font-family="Arial" font-size="14.00" fill="#666666">[bigint]</text>
<polygon fill="none" stroke="#000000" points="606,-102.5 606,-132.5 1054,-132.5 1054,-102.5 606,-102.5"/>
<text text-anchor="start" x="613" y="-113.9" font-family="Arial" font-size="14.00" fill="#000000">range_end    </text>
<text text-anchor="start" x="714.1262" y="-113.9" font-family="Arial" font-size="14.00" fill="#666666">[bigint]</text>
</g>
<!-- _timescaledb_catalog.chunk_constraint&#45;&gt;_timescaledb_catalog.dimension_slice -->
<g id="edge2" class="edge">
<title>_timescaledb_catalog.chunk_constraint:dimension_slice_id&#45;&gt;_timescaledb_catalog.dimension_slice:id</title>
<path fill="none" stroke="#000000" d="M812.1549,-516.4232C851.9945,-507.0913 828.3495,-439.2462 802,-397 750.6669,-314.6975 657.3331,-383.3025 606,-301 584.0083,-265.7406 564.4444,-207.5 606,-207.5"/>
<polygon fill="#000000" stroke="#000000" points="811.9442,-516.4454 801.5254,-513.0251 806.9721,-516.9727 802,-517.5 802,-517.5 802,-517.5 806.9721,-516.9727 802.4746,-521.9749 811.9442,-516.4454 811.9442,-516.4454"/>
<text text-anchor="start" x="809.4275" y="-527.5" font-family="Arial" font-size="10.00" fill="#000000">FOREIGN KEY (dimension_slice_id) REFERENCES _timescaledb_catalog.dimension_slice(id)</text>
</g>
</g>
</svg>
