<?xml version="1.0" encoding="UTF-8" standalone="no"?>
<!DOCTYPE svg PUBLIC "-//W3C//DTD SVG 1.1//EN"
 "http://www.w3.org/Graphics/SVG/1.1/DTD/svg11.dtd">
<!-- Generated by graphviz version 2.40.1 (20161225.0304)
 -->
<!-- Title: _timescaledb_catalog.dimension_slice Pages: 1 -->
<svg width="997pt" height="1049pt"
 viewBox="0.00 0.00 997.00 1049.00" xmlns="http://www.w3.org/2000/svg" xmlns:xlink="http://www.w3.org/1999/xlink">
<g id="graph0" class="graph" transform="scale(1 1) rotate(0) translate(4 1045)">
<title>_timescaledb_catalog.dimension_slice</title>
<polygon fill="#ffffff" stroke="transparent" points="-4,4 -4,-1045 993,-1045 993,4 -4,4"/>
<!-- _timescaledb_catalog.dimension_slice -->
<g id="node1" class="node">
<title>_timescaledb_catalog.dimension_slice</title>
<polygon fill="#efefef" stroke="transparent" points="47,-682.5 47,-717.5 495,-717.5 495,-682.5 47,-682.5"/>
<polygon fill="none" stroke="#000000" points="47,-682.5 47,-717.5 495,-717.5 495,-682.5 47,-682.5"/>
<text text-anchor="start" x="53.685" y="-695.3" font-family="Arial Bold" font-size="18.00" fill="#000000">_timescaledb_catalog.dimension_slice</text>
<text text-anchor="start" x="360.747" y="-695.3" font-family="Arial" font-size="14.00" fill="#000000">    </text>
<text text-anchor="start" x="394.9518" y="-695.3" font-family="Arial" font-size="14.00" fill="#666666">[BASE TABLE]</text>
<polygon fill="none" stroke="#000000" points="47,-652.5 47,-682.5 495,-682.5 495,-652.5 47,-652.5"/>
<text text-anchor="start" x="54" y="-663.9" font-family="Arial" font-size="14.00" fill="#000000">id </text>
<text text-anchor="start" x="68.7798" y="-663.9" font-family="Arial" font-size="14.00" fill="#666666">[integer]</text>
<polygon fill="none" stroke="#000000" points="47,-622.5 47,-652.5 495,-652.5 495,-622.5 47,-622.5"/>
<text text-anchor="start" x="54" y="-633.9" font-family="Arial" font-size="14.00" fill="#000000">dimension_id </text>
<text text-anchor="start" x="140.3492" y="-633.9" font-family="Arial" font-size="14.00" fill="#666666">[integer]</text>
<polygon fill="none" stroke="#000000" points="47,-592.5 47,-622.5 495,-622.5 495,-592.5 47,-592.5"/>
<text text-anchor="start" x="54" y="-603.9" font-family="Arial" font-size="14.00" fill="#000000">range_start </text>
<text text-anchor="start" x="128.6886" y="-603.9" font-family="Arial" font-size="14.00" fill="#666666">[bigint]</text>
<polygon fill="none" stroke="#000000" points="47,-562.5 47,-592.5 495,-592.5 495,-562.5 47,-562.5"/>
<text text-anchor="start" x="54" y="-573.9" font-family="Arial" font-size="14.00" fill="#000000">range_end </text>
<text text-anchor="start" x="124.812" y="-573.9" font-family="Arial" font-size="14.00" fill="#666666">[bigint]</text>
<polygon fill="none" stroke="#000000" stroke-width="3" points="45.5,-561.5 45.5,-719.5 496.5,-719.5 496.5,-561.5 45.5,-561.5"/>
</g>
<!-- _timescaledb_catalog.dimension -->
<g id="node3" class="node">
<title>_timescaledb_catalog.dimension</title>
<polygon fill="#efefef" stroke="transparent" points="70,-402.5 70,-437.5 472,-437.5 472,-402.5 70,-402.5"/>
<polygon fill="none" stroke="#000000" points="70,-402.5 70,-437.5 472,-437.5 472,-402.5 70,-402.5"/>
<text text-anchor="start" x="76.6854" y="-415.3" font-family="Arial Bold" font-size="18.00" fill="#000000">_timescaledb_catalog.dimension</text>
<text text-anchor="start" x="337.7466" y="-415.3" font-family="Arial" font-size="14.00" fill="#000000">    </text>
<text text-anchor="start" x="371.9514" y="-415.3" font-family="Arial" font-size="14.00" fill="#666666">[BASE TABLE]</text>
<polygon fill="none" stroke="#000000" points="70,-372.5 70,-402.5 472,-402.5 472,-372.5 70,-372.5"/>
<text text-anchor="start" x="77" y="-383.9" font-family="Arial" font-size="14.00" fill="#000000">id    </text>
<text text-anchor="start" x="122.094" y="-383.9" font-family="Arial" font-size="14.00" fill="#666666">[integer]</text>
<polygon fill="none" stroke="#000000" points="70,-342.5 70,-372.5 472,-372.5 472,-342.5 70,-342.5"/>
<text text-anchor="start" x="77" y="-353.9" font-family="Arial" font-size="14.00" fill="#000000">hypertable_id    </text>
<text text-anchor="start" x="195.23" y="-353.9" font-family="Arial" font-size="14.00" fill="#666666">[integer]</text>
<polygon fill="none" stroke="#000000" points="70,-312.5 70,-342.5 472,-342.5 472,-312.5 70,-312.5"/>
<text text-anchor="start" x="77" y="-323.9" font-family="Arial" font-size="14.00" fill="#000000">column_name    </text>
<text text-anchor="start" x="199.1108" y="-323.9" font-family="Arial" font-size="14.00" fill="#666666">[name]</text>
<polygon fill="none" stroke="#000000" points="70,-282.5 70,-312.5 472,-312.5 472,-282.5 70,-282.5"/>
<text text-anchor="start" x="77" y="-293.9" font-family="Arial" font-size="14.00" fill="#000000">column_type    </text>
<text text-anchor="start" x="190.5582" y="-293.9" font-family="Arial" font-size="14.00" fill="#666666">[regtype]</text>
<polygon fill="none" stroke="#000000" points="70,-252.5 70,-282.5 472,-282.5 472,-252.5 70,-252.5"/>
<text text-anchor="start" x="77" y="-263.9" font-family="Arial" font-size="14.00" fill="#000000">aligned    </text>
<text text-anchor="start" x="156.331" y="-263.9" font-family="Arial" font-size="14.00" fill="#666666">[boolean]</text>
<polygon fill="none" stroke="#000000" points="70,-222.5 70,-252.5 472,-252.5 472,-222.5 70,-222.5"/>
<text text-anchor="start" x="77" y="-233.9" font-family="Arial" font-size="14.00" fill="#000000">num_slices    </text>
<text text-anchor="start" x="181.209" y="-233.9" font-family="Arial" font-size="14.00" fill="#666666">[smallint]</text>
<polygon fill="none" stroke="#000000" points="70,-192.5 70,-222.5 472,-222.5 472,-192.5 70,-192.5"/>
<text text-anchor="start" x="77" y="-203.9" font-family="Arial" font-size="14.00" fill="#000000">partitioning_func_schema    </text>
<text text-anchor="start" x="270.6914" y="-203.9" font-family="Arial" font-size="14.00" fill="#666666">[name]</text>
<polygon fill="none" stroke="#000000" points="70,-162.5 70,-192.5 472,-192.5 472,-162.5 70,-162.5"/>
<text text-anchor="start" x="77" y="-173.9" font-family="Arial" font-size="14.00" fill="#000000">partitioning_func    </text>
<text text-anchor="start" x="213.9004" y="-173.9" font-family="Arial" font-size="14.00" fill="#666666">[name]</text>
<polygon fill="none" stroke="#000000" points="70,-132.5 70,-162.5 472,-162.5 472,-132.5 70,-132.5"/>
<text text-anchor="start" x="77" y="-143.9" font-family="Arial" font-size="14.00" fill="#000000">interval_length    </text>
<text text-anchor="start" x="202.2272" y="-143.9" font-family="Arial" font-size="14.00" fill="#666666">[bigint]</text>
<polygon fill="none" stroke="#000000" points="70,-102.5 70,-132.5 472,-132.5 472,-102.5 70,-102.5"/>
<text text-anchor="start" x="77" y="-113.9" font-family="Arial" font-size="14.00" fill="#000000">compress_interval_length    </text>
<text text-anchor="start" x="270.6788" y="-113.9" font-family="Arial" font-size="14.00" fill="#666666">[bigint]</text>
<polygon fill="none" stroke="#000000" points="70,-72.5 70,-102.5 472,-102.5 472,-72.5 70,-72.5"/>
<text text-anchor="start" x="77" y="-83.9" font-family="Arial" font-size="14.00" fill="#000000">integer_now_func_schema    </text>
<text text-anchor="start" x="278.4768" y="-83.9" font-family="Arial" font-size="14.00" fill="#666666">[name]</text>
<polygon fill="none" stroke="#000000" points="70,-42.5 70,-72.5 472,-72.5 472,-42.5 70,-42.5"/>
<text text-anchor="start" x="77" y="-53.9" font-family="Arial" font-size="14.00" fill="#000000">integer_now_func    </text>
<text text-anchor="start" x="221.6858" y="-53.9" font-family="Arial" font-size="14.00" fill="#666666">[name]</text>
</g>
<!-- _timescaledb_catalog.dimension_slice&#45;&gt;_timescaledb_catalog.dimension -->
<g id="edge2" class="edge">
<title>_timescaledb_catalog.dimension_slice:dimension_id&#45;&gt;_timescaledb_catalog.dimension:id</title>
<path fill="none" stroke="#000000" d="M505.0678,-636.7828C605.0563,-622.1191 580.0935,-387.5 472,-387.5"/>
<polygon fill="#000000" stroke="#000000" points="504.9747,-636.7894 494.6802,-633.0114 499.9874,-637.1447 495,-637.5 495,-637.5 495,-637.5 499.9874,-637.1447 495.3198,-641.9886 504.9747,-636.7894 504.9747,-636.7894"/>
<text text-anchor="start" x="501.7025" y="-647.5" font-family="Arial" font-size="10.00" fill="#000000">FOREIGN KEY (dimension_id) REFERENCES _timescaledb_catalog.dimension(id) ON DELETE CASCADE</text>
</g>
<!-- _timescaledb_catalog.chunk_constraint -->
<g id="node2" class="node">
<title>_timescaledb_catalog.chunk_constraint</title>
<polygon fill="#efefef" stroke="transparent" points="43,-962.5 43,-997.5 499,-997.5 499,-962.5 43,-962.5"/>
<polygon fill="none" stroke="#000000" points="43,-962.5 43,-997.5 499,-997.5 499,-962.5 43,-962.5"/>
<text text-anchor="start" x="49.671" y="-975.3" font-family="Arial Bold" font-size="18.00" fill="#000000">_timescaledb_catalog.chunk_constraint</text>
<text text-anchor="start" x="364.761" y="-975.3" font-family="Arial" font-size="14.00" fill="#000000">    </text>
<text text-anchor="start" x="398.9658" y="-975.3" font-family="Arial" font-size="14.00" fill="#666666">[BASE TABLE]</text>
<polygon fill="none" stroke="#000000" points="43,-932.5 43,-962.5 499,-962.5 499,-932.5 43,-932.5"/>
<text text-anchor="start" x="50" y="-943.9" font-family="Arial" font-size="14.00" fill="#000000">chunk_id    </text>
<text text-anchor="start" x="140.2244" y="-943.9" font-family="Arial" font-size="14.00" fill="#666666">[integer]</text>
<polygon fill="none" stroke="#000000" points="43,-902.5 43,-932.5 499,-932.5 499,-902.5 43,-902.5"/>
<text text-anchor="start" x="50" y="-913.9" font-family="Arial" font-size="14.00" fill="#000000">dimension_slice_id    </text>
<text text-anchor="start" x="202.4418" y="-913.9" font-family="Arial" font-size="14.00" fill="#666666">[integer]</text>
<polygon fill="none" stroke="#000000" points="43,-872.5 43,-902.5 499,-902.5 499,-872.5 43,-872.5"/>
<text text-anchor="start" x="50" y="-883.9" font-family="Arial" font-size="14.00" fill="#000000">constraint_name    </text>
<text text-anchor="start" x="187.6746" y="-883.9" font-family="Arial" font-size="14.00" fill="#666666">[name]</text>
<polygon fill="none" stroke="#000000" points="43,-842.5 43,-872.5 499,-872.5 499,-842.5 43,-842.5"/>
<text text-anchor="start" x="50" y="-853.9" font-family="Arial" font-size="14.00" fill="#000000">hypertable_constraint_name    </text>
<text text-anchor="start" x="260.8106" y="-853.9" font-family="Arial" font-size="14.00" fill="#666666">[name]</text>
</g>
<!-- _timescaledb_catalog.chunk_constraint&#45;&gt;_timescaledb_catalog.dimension_slice -->
<g id="edge1" class="edge">
<title>_timescaledb_catalog.chunk_constraint:dimension_slice_id&#45;&gt;_timescaledb_catalog.dimension_slice:id</title>
<path fill="none" stroke="#000000" d="M509.081,-916.7828C609.7707,-902.1191 602.6527,-667.5 495,-667.5"/>
<polygon fill="#000000" stroke="#000000" points="508.9748,-916.7903 498.6806,-913.0113 503.9874,-917.1451 499,-917.5 499,-917.5 499,-917.5 503.9874,-917.1451 499.3194,-921.9887 508.9748,-916.7903 508.9748,-916.7903"/>
<text text-anchor="start" x="506.4275" y="-927.5" font-family="Arial" font-size="10.00" fill="#000000">FOREIGN KEY (dimension_slice_id) REFERENCES _timescaledb_catalog.dimension_slice(id)</text>
</g>
</g>
</svg>
