<?xml version="1.0" encoding="UTF-8" standalone="no"?>
<!DOCTYPE svg PUBLIC "-//W3C//DTD SVG 1.1//EN"
 "http://www.w3.org/Graphics/SVG/1.1/DTD/svg11.dtd">
<!-- Generated by graphviz version 2.40.1 (20161225.0304)
 -->
<!-- Title: _timescaledb_catalog.metadata Pages: 1 -->
<svg width="495pt" height="225pt"
 viewBox="0.00 0.00 495.00 225.00" xmlns="http://www.w3.org/2000/svg" xmlns:xlink="http://www.w3.org/1999/xlink">
<g id="graph0" class="graph" transform="scale(1 1) rotate(0) translate(4 221)">
<title>_timescaledb_catalog.metadata</title>
<polygon fill="#ffffff" stroke="transparent" points="-4,4 -4,-221 491,-221 491,4 -4,4"/>
<!-- _timescaledb_catalog.metadata -->
<g id="node1" class="node">
<title>_timescaledb_catalog.metadata</title>
<polygon fill="#efefef" stroke="transparent" points="46.5,-135.5 46.5,-170.5 441.5,-170.5 441.5,-135.5 46.5,-135.5"/>
<polygon fill="none" stroke="#000000" points="46.5,-135.5 46.5,-170.5 441.5,-170.5 441.5,-135.5 46.5,-135.5"/>
<text text-anchor="start" x="53.1774" y="-148.3" font-family="Arial Bold" font-size="18.00" fill="#000000">_timescaledb_catalog.metadata</text>
<text text-anchor="start" x="307.2546" y="-148.3" font-family="Arial" font-size="14.00" fill="#000000">    </text>
<text text-anchor="start" x="341.4594" y="-148.3" font-family="Arial" font-size="14.00" fill="#666666">[BASE TABLE]</text>
<polygon fill="none" stroke="#000000" points="46.5,-105.5 46.5,-135.5 441.5,-135.5 441.5,-105.5 46.5,-105.5"/>
<text text-anchor="start" x="53.5" y="-116.9" font-family="Arial" font-size="14.00" fill="#000000">key </text>
<text text-anchor="start" x="79.1732" y="-116.9" font-family="Arial" font-size="14.00" fill="#666666">[name]</text>
<polygon fill="none" stroke="#000000" points="46.5,-75.5 46.5,-105.5 441.5,-105.5 441.5,-75.5 46.5,-75.5"/>
<text text-anchor="start" x="53.5" y="-86.9" font-family="Arial" font-size="14.00" fill="#000000">value </text>
<text text-anchor="start" x="90.845" y="-86.9" font-family="Arial" font-size="14.00" fill="#666666">[text]</text>
<polygon fill="none" stroke="#000000" points="46.5,-45.5 46.5,-75.5 441.5,-75.5 441.5,-45.5 46.5,-45.5"/>
<text text-anchor="start" x="53.5" y="-56.9" font-family="Arial" font-size="14.00" fill="#000000">include_in_telemetry </text>
<text text-anchor="start" x="185.7454" y="-56.9" font-family="Arial" font-size="14.00" fill="#666666">[boolean]</text>
<polygon fill="none" stroke="#000000" stroke-width="3" points="44.5,-44.5 44.5,-172.5 442.5,-172.5 442.5,-44.5 44.5,-44.5"/>
</g>
</g>
</svg>
