<?xml version="1.0" encoding="UTF-8" standalone="no"?>
<!DOCTYPE svg PUBLIC "-//W3C//DTD SVG 1.1//EN"
 "http://www.w3.org/Graphics/SVG/1.1/DTD/svg11.dtd">
<!-- Generated by graphviz version 2.40.1 (20161225.0304)
 -->
<!-- Title: _timescaledb_internal.job_errors Pages: 1 -->
<svg width="502pt" height="285pt"
 viewBox="0.00 0.00 502.00 285.00" xmlns="http://www.w3.org/2000/svg" xmlns:xlink="http://www.w3.org/1999/xlink">
<g id="graph0" class="graph" transform="scale(1 1) rotate(0) translate(4 281)">
<title>_timescaledb_internal.job_errors</title>
<polygon fill="#ffffff" stroke="transparent" points="-4,4 -4,-281 498,-281 498,4 -4,4"/>
<!-- _timescaledb_internal.job_errors -->
<g id="node1" class="node">
<title>_timescaledb_internal.job_errors</title>
<polygon fill="#efefef" stroke="transparent" points="46,-195.5 46,-230.5 448,-230.5 448,-195.5 46,-195.5"/>
<polygon fill="none" stroke="#000000" points="46,-195.5 46,-230.5 448,-230.5 448,-195.5 46,-195.5"/>
<text text-anchor="start" x="52.6971" y="-208.3" font-family="Arial Bold" font-size="18.00" fill="#000000">_timescaledb_internal.job_errors</text>
<text text-anchor="start" x="313.7349" y="-208.3" font-family="Arial" font-size="14.00" fill="#000000">    </text>
<text text-anchor="start" x="347.9397" y="-208.3" font-family="Arial" font-size="14.00" fill="#666666">[BASE TABLE]</text>
<polygon fill="none" stroke="#000000" points="46,-165.5 46,-195.5 448,-195.5 448,-165.5 46,-165.5"/>
<text text-anchor="start" x="53" y="-176.9" font-family="Arial" font-size="14.00" fill="#000000">job_id </text>
<text text-anchor="start" x="94.2342" y="-176.9" font-family="Arial" font-size="14.00" fill="#666666">[integer]</text>
<polygon fill="none" stroke="#000000" points="46,-135.5 46,-165.5 448,-165.5 448,-135.5 46,-135.5"/>
<text text-anchor="start" x="53" y="-146.9" font-family="Arial" font-size="14.00" fill="#000000">pid </text>
<text text-anchor="start" x="75.5624" y="-146.9" font-family="Arial" font-size="14.00" fill="#666666">[integer]</text>
<polygon fill="none" stroke="#000000" points="46,-105.5 46,-135.5 448,-135.5 448,-105.5 46,-105.5"/>
<text text-anchor="start" x="53" y="-116.9" font-family="Arial" font-size="14.00" fill="#000000">start_time </text>
<text text-anchor="start" x="118.338" y="-116.9" font-family="Arial" font-size="14.00" fill="#666666">[timestamp with time zone]</text>
<polygon fill="none" stroke="#000000" points="46,-75.5 46,-105.5 448,-105.5 448,-75.5 46,-75.5"/>
<text text-anchor="start" x="53" y="-86.9" font-family="Arial" font-size="14.00" fill="#000000">finish_time </text>
<text text-anchor="start" x="123.7826" y="-86.9" font-family="Arial" font-size="14.00" fill="#666666">[timestamp with time zone]</text>
<polygon fill="none" stroke="#000000" points="46,-45.5 46,-75.5 448,-75.5 448,-45.5 46,-45.5"/>
<text text-anchor="start" x="53" y="-56.9" font-family="Arial" font-size="14.00" fill="#000000">error_data </text>
<text text-anchor="start" x="121.4586" y="-56.9" font-family="Arial" font-size="14.00" fill="#666666">[jsonb]</text>
<polygon fill="none" stroke="#000000" stroke-width="3" points="44.5,-44.5 44.5,-232.5 449.5,-232.5 449.5,-44.5 44.5,-44.5"/>
</g>
</g>
</svg>
