<?xml version="1.0" encoding="UTF-8" standalone="no"?>
<!DOCTYPE svg PUBLIC "-//W3C//DTD SVG 1.1//EN"
 "http://www.w3.org/Graphics/SVG/1.1/DTD/svg11.dtd">
<!-- Generated by graphviz version 2.40.1 (20161225.0304)
 -->
<!-- Title: _timescaledb_catalog.continuous_aggs_materialization_invalidation_log Pages: 1 -->
<svg width="1382pt" height="742pt"
 viewBox="0.00 0.00 1382.00 742.00" xmlns="http://www.w3.org/2000/svg" xmlns:xlink="http://www.w3.org/1999/xlink">
<g id="graph0" class="graph" transform="scale(1 1) rotate(0) translate(4 738)">
<title>_timescaledb_catalog.continuous_aggs_materialization_invalidation_log</title>
<polygon fill="#ffffff" stroke="transparent" points="-4,4 -4,-738 1378,-738 1378,4 -4,4"/>
<!-- _timescaledb_catalog.continuous_aggs_materialization_invalidation_log -->
<g id="node1" class="node">
<title>_timescaledb_catalog.continuous_aggs_materialization_invalidation_log</title>
<polygon fill="#efefef" stroke="transparent" points="612,-652.5 612,-687.5 1328,-687.5 1328,-652.5 612,-652.5"/>
<polygon fill="none" stroke="#000000" points="612,-652.5 612,-687.5 1328,-687.5 1328,-652.5 612,-652.5"/>
<text text-anchor="start" x="618.6399" y="-665.3" font-family="Arial Bold" font-size="18.00" fill="#000000">_timescaledb_catalog.continuous_aggs_materialization_invalidation_log</text>
<text text-anchor="start" x="1193.7921" y="-665.3" font-family="Arial" font-size="14.00" fill="#000000">    </text>
<text text-anchor="start" x="1227.9969" y="-665.3" font-family="Arial" font-size="14.00" fill="#666666">[BASE TABLE]</text>
<polygon fill="none" stroke="#000000" points="612,-622.5 612,-652.5 1328,-652.5 1328,-622.5 612,-622.5"/>
<text text-anchor="start" x="619" y="-633.9" font-family="Arial" font-size="14.00" fill="#000000">materialization_id </text>
<text text-anchor="start" x="731.7868" y="-633.9" font-family="Arial" font-size="14.00" fill="#666666">[integer]</text>
<polygon fill="none" stroke="#000000" points="612,-592.5 612,-622.5 1328,-622.5 1328,-592.5 612,-592.5"/>
<text text-anchor="start" x="619" y="-603.9" font-family="Arial" font-size="14.00" fill="#000000">lowest_modified_value </text>
<text text-anchor="start" x="764.474" y="-603.9" font-family="Arial" font-size="14.00" fill="#666666">[bigint]</text>
<polygon fill="none" stroke="#000000" points="612,-562.5 612,-592.5 1328,-592.5 1328,-562.5 612,-562.5"/>
<text text-anchor="start" x="619" y="-573.9" font-family="Arial" font-size="14.00" fill="#000000">greatest_modified_value </text>
<text text-anchor="start" x="775.3772" y="-573.9" font-family="Arial" font-size="14.00" fill="#666666">[bigint]</text>
<polygon fill="none" stroke="#000000" stroke-width="3" points="610.5,-561.5 610.5,-689.5 1329.5,-689.5 1329.5,-561.5 610.5,-561.5"/>
</g>
<!-- _timescaledb_catalog.continuous_agg -->
<g id="node2" class="node">
<title>_timescaledb_catalog.continuous_agg</title>
<polygon fill="#efefef" stroke="transparent" points="746,-402.5 746,-437.5 1193,-437.5 1193,-402.5 746,-402.5"/>
<polygon fill="none" stroke="#000000" points="746,-402.5 746,-437.5 1193,-437.5 1193,-402.5 746,-402.5"/>
<text text-anchor="start" x="752.662" y="-415.3" font-family="Arial Bold" font-size="18.00" fill="#000000">_timescaledb_catalog.continuous_agg</text>
<text text-anchor="start" x="1058.77" y="-415.3" font-family="Arial" font-size="14.00" fill="#000000">    </text>
<text text-anchor="start" x="1092.9748" y="-415.3" font-family="Arial" font-size="14.00" fill="#666666">[BASE TABLE]</text>
<polygon fill="none" stroke="#000000" points="746,-372.5 746,-402.5 1193,-402.5 1193,-372.5 746,-372.5"/>
<text text-anchor="start" x="753" y="-383.9" font-family="Arial" font-size="14.00" fill="#000000">mat_hypertable_id    </text>
<text text-anchor="start" x="902.3464" y="-383.9" font-family="Arial" font-size="14.00" fill="#666666">[integer]</text>
<polygon fill="none" stroke="#000000" points="746,-342.5 746,-372.5 1193,-372.5 1193,-342.5 746,-342.5"/>
<text text-anchor="start" x="753" y="-353.9" font-family="Arial" font-size="14.00" fill="#000000">raw_hypertable_id    </text>
<text text-anchor="start" x="901.5624" y="-353.9" font-family="Arial" font-size="14.00" fill="#666666">[integer]</text>
<polygon fill="none" stroke="#000000" points="746,-312.5 746,-342.5 1193,-342.5 1193,-312.5 746,-312.5"/>
<text text-anchor="start" x="753" y="-323.9" font-family="Arial" font-size="14.00" fill="#000000">parent_mat_hypertable_id    </text>
<text text-anchor="start" x="949.8106" y="-323.9" font-family="Arial" font-size="14.00" fill="#666666">[integer]</text>
<polygon fill="none" stroke="#000000" points="746,-282.5 746,-312.5 1193,-312.5 1193,-282.5 746,-282.5"/>
<text text-anchor="start" x="753" y="-293.9" font-family="Arial" font-size="14.00" fill="#000000">user_view_schema    </text>
<text text-anchor="start" x="907" y="-293.9" font-family="Arial" font-size="14.00" fill="#666666">[name]</text>
<polygon fill="none" stroke="#000000" points="746,-252.5 746,-282.5 1193,-282.5 1193,-252.5 746,-252.5"/>
<text text-anchor="start" x="753" y="-263.9" font-family="Arial" font-size="14.00" fill="#000000">user_view_name    </text>
<text text-anchor="start" x="893" y="-263.9" font-family="Arial" font-size="14.00" fill="#666666">[name]</text>
<polygon fill="none" stroke="#000000" points="746,-222.5 746,-252.5 1193,-252.5 1193,-222.5 746,-222.5"/>
<text text-anchor="start" x="753" y="-233.9" font-family="Arial" font-size="14.00" fill="#000000">partial_view_schema    </text>
<text text-anchor="start" x="917.8864" y="-233.9" font-family="Arial" font-size="14.00" fill="#666666">[name]</text>
<polygon fill="none" stroke="#000000" points="746,-192.5 746,-222.5 1193,-222.5 1193,-192.5 746,-192.5"/>
<text text-anchor="start" x="753" y="-203.9" font-family="Arial" font-size="14.00" fill="#000000">partial_view_name    </text>
<text text-anchor="start" x="903.8864" y="-203.9" font-family="Arial" font-size="14.00" fill="#666666">[name]</text>
<polygon fill="none" stroke="#000000" points="746,-162.5 746,-192.5 1193,-192.5 1193,-162.5 746,-162.5"/>
<text text-anchor="start" x="753" y="-173.9" font-family="Arial" font-size="14.00" fill="#000000">bucket_width    </text>
<text text-anchor="start" x="868.8948" y="-173.9" font-family="Arial" font-size="14.00" fill="#666666">[bigint]</text>
<polygon fill="none" stroke="#000000" points="746,-132.5 746,-162.5 1193,-162.5 1193,-132.5 746,-132.5"/>
<text text-anchor="start" x="753" y="-143.9" font-family="Arial" font-size="14.00" fill="#000000">direct_view_schema    </text>
<text text-anchor="start" x="913.9972" y="-143.9" font-family="Arial" font-size="14.00" fill="#666666">[name]</text>
<polygon fill="none" stroke="#000000" points="746,-102.5 746,-132.5 1193,-132.5 1193,-102.5 746,-102.5"/>
<text text-anchor="start" x="753" y="-113.9" font-family="Arial" font-size="14.00" fill="#000000">direct_view_name    </text>
<text text-anchor="start" x="899.9972" y="-113.9" font-family="Arial" font-size="14.00" fill="#666666">[name]</text>
<polygon fill="none" stroke="#000000" points="746,-72.5 746,-102.5 1193,-102.5 1193,-72.5 746,-72.5"/>
<text text-anchor="start" x="753" y="-83.9" font-family="Arial" font-size="14.00" fill="#000000">materialized_only    </text>
<text text-anchor="start" x="896.1038" y="-83.9" font-family="Arial" font-size="14.00" fill="#666666">[boolean]</text>
<polygon fill="none" stroke="#000000" points="746,-42.5 746,-72.5 1193,-72.5 1193,-42.5 746,-42.5"/>
<text text-anchor="start" x="753" y="-53.9" font-family="Arial" font-size="14.00" fill="#000000">finalized    </text>
<text text-anchor="start" x="838.5456" y="-53.9" font-family="Arial" font-size="14.00" fill="#666666">[boolean]</text>
</g>
<!-- _timescaledb_catalog.continuous_aggs_materialization_invalidation_log&#45;&gt;_timescaledb_catalog.continuous_agg -->
<g id="edge1" class="edge">
<title>_timescaledb_catalog.continuous_aggs_materialization_invalidation_log:materialization_id&#45;&gt;_timescaledb_catalog.continuous_agg:mat_hypertable_id</title>
<path fill="none" stroke="#000000" d="M601.9881,-636.3974C560.8442,-626.5589 577.8276,-553.3553 612,-517 700.5969,-422.7436 1104.4031,-575.2564 1193,-481 1221.4611,-450.7208 1234.5556,-387.5 1193,-387.5"/>
<polygon fill="#000000" stroke="#000000" points="602.0601,-636.4052 611.5073,-641.973 607.03,-636.9526 612,-637.5 612,-637.5 612,-637.5 607.03,-636.9526 612.4927,-633.027 602.0601,-636.4052 602.0601,-636.4052"/>
<text text-anchor="start" x="6.5145" y="-647.5" font-family="Arial" font-size="10.00" fill="#000000">FOREIGN KEY (materialization_id) REFERENCES _timescaledb_catalog.continuous_agg(mat_hypertable_id) ON DELETE CASCADE</text>
</g>
</g>
</svg>
