<?xml version="1.0" encoding="UTF-8" standalone="no"?>
<!DOCTYPE svg PUBLIC "-//W3C//DTD SVG 1.1//EN"
 "http://www.w3.org/Graphics/SVG/1.1/DTD/svg11.dtd">
<!-- Generated by graphviz version 2.40.1 (20161225.0304)
 -->
<!-- Title: _timescaledb_internal.compressed_chunk_stats Pages: 1 -->
<svg width="575pt" height="525pt"
 viewBox="0.00 0.00 575.00 525.00" xmlns="http://www.w3.org/2000/svg" xmlns:xlink="http://www.w3.org/1999/xlink">
<g id="graph0" class="graph" transform="scale(1 1) rotate(0) translate(4 521)">
<title>_timescaledb_internal.compressed_chunk_stats</title>
<polygon fill="#ffffff" stroke="transparent" points="-4,4 -4,-521 571,-521 571,4 -4,4"/>
<!-- _timescaledb_internal.compressed_chunk_stats -->
<g id="node1" class="node">
<title>_timescaledb_internal.compressed_chunk_stats</title>
<polygon fill="#efefef" stroke="transparent" points="46.5,-435.5 46.5,-470.5 521.5,-470.5 521.5,-435.5 46.5,-435.5"/>
<polygon fill="none" stroke="#000000" points="46.5,-435.5 46.5,-470.5 521.5,-470.5 521.5,-435.5 46.5,-435.5"/>
<text text-anchor="start" x="53.0713" y="-448.3" font-family="Arial Bold" font-size="18.00" fill="#000000">_timescaledb_internal.compressed_chunk_stats</text>
<text text-anchor="start" x="437.1643" y="-448.3" font-family="Arial" font-size="14.00" fill="#000000">    </text>
<text text-anchor="start" x="471.3691" y="-448.3" font-family="Arial" font-size="14.00" fill="#666666">[VIEW]</text>
<polygon fill="none" stroke="#000000" points="46.5,-405.5 46.5,-435.5 521.5,-435.5 521.5,-405.5 46.5,-405.5"/>
<text text-anchor="start" x="53.5" y="-416.9" font-family="Arial" font-size="14.00" fill="#000000">hypertable_schema </text>
<text text-anchor="start" x="179.535" y="-416.9" font-family="Arial" font-size="14.00" fill="#666666">[name]</text>
<polygon fill="none" stroke="#000000" points="46.5,-375.5 46.5,-405.5 521.5,-405.5 521.5,-375.5 46.5,-375.5"/>
<text text-anchor="start" x="53.5" y="-386.9" font-family="Arial" font-size="14.00" fill="#000000">hypertable_name </text>
<text text-anchor="start" x="165.535" y="-386.9" font-family="Arial" font-size="14.00" fill="#666666">[name]</text>
<polygon fill="none" stroke="#000000" points="46.5,-345.5 46.5,-375.5 521.5,-375.5 521.5,-345.5 46.5,-345.5"/>
<text text-anchor="start" x="53.5" y="-356.9" font-family="Arial" font-size="14.00" fill="#000000">chunk_schema </text>
<text text-anchor="start" x="151.5294" y="-356.9" font-family="Arial" font-size="14.00" fill="#666666">[name]</text>
<polygon fill="none" stroke="#000000" points="46.5,-315.5 46.5,-345.5 521.5,-345.5 521.5,-315.5 46.5,-315.5"/>
<text text-anchor="start" x="53.5" y="-326.9" font-family="Arial" font-size="14.00" fill="#000000">chunk_name </text>
<text text-anchor="start" x="137.5294" y="-326.9" font-family="Arial" font-size="14.00" fill="#666666">[name]</text>
<polygon fill="none" stroke="#000000" points="46.5,-285.5 46.5,-315.5 521.5,-315.5 521.5,-285.5 46.5,-285.5"/>
<text text-anchor="start" x="53.5" y="-296.9" font-family="Arial" font-size="14.00" fill="#000000">compression_status </text>
<text text-anchor="start" x="181.8604" y="-296.9" font-family="Arial" font-size="14.00" fill="#666666">[text]</text>
<polygon fill="none" stroke="#000000" points="46.5,-255.5 46.5,-285.5 521.5,-285.5 521.5,-255.5 46.5,-255.5"/>
<text text-anchor="start" x="53.5" y="-266.9" font-family="Arial" font-size="14.00" fill="#000000">uncompressed_heap_size </text>
<text text-anchor="start" x="220.7748" y="-266.9" font-family="Arial" font-size="14.00" fill="#666666">[bigint]</text>
<polygon fill="none" stroke="#000000" points="46.5,-225.5 46.5,-255.5 521.5,-255.5 521.5,-225.5 46.5,-225.5"/>
<text text-anchor="start" x="53.5" y="-236.9" font-family="Arial" font-size="14.00" fill="#000000">uncompressed_index_size </text>
<text text-anchor="start" x="223.0988" y="-236.9" font-family="Arial" font-size="14.00" fill="#666666">[bigint]</text>
<polygon fill="none" stroke="#000000" points="46.5,-195.5 46.5,-225.5 521.5,-225.5 521.5,-195.5 46.5,-195.5"/>
<text text-anchor="start" x="53.5" y="-206.9" font-family="Arial" font-size="14.00" fill="#000000">uncompressed_toast_size </text>
<text text-anchor="start" x="219.9908" y="-206.9" font-family="Arial" font-size="14.00" fill="#666666">[bigint]</text>
<polygon fill="none" stroke="#000000" points="46.5,-165.5 46.5,-195.5 521.5,-195.5 521.5,-165.5 46.5,-165.5"/>
<text text-anchor="start" x="53.5" y="-176.9" font-family="Arial" font-size="14.00" fill="#000000">uncompressed_total_size </text>
<text text-anchor="start" x="216.0974" y="-176.9" font-family="Arial" font-size="14.00" fill="#666666">[bigint]</text>
<polygon fill="none" stroke="#000000" points="46.5,-135.5 46.5,-165.5 521.5,-165.5 521.5,-135.5 46.5,-135.5"/>
<text text-anchor="start" x="53.5" y="-146.9" font-family="Arial" font-size="14.00" fill="#000000">compressed_heap_size </text>
<text text-anchor="start" x="205.2096" y="-146.9" font-family="Arial" font-size="14.00" fill="#666666">[bigint]</text>
<polygon fill="none" stroke="#000000" points="46.5,-105.5 46.5,-135.5 521.5,-135.5 521.5,-105.5 46.5,-105.5"/>
<text text-anchor="start" x="53.5" y="-116.9" font-family="Arial" font-size="14.00" fill="#000000">compressed_index_size </text>
<text text-anchor="start" x="207.5336" y="-116.9" font-family="Arial" font-size="14.00" fill="#666666">[bigint]</text>
<polygon fill="none" stroke="#000000" points="46.5,-75.5 46.5,-105.5 521.5,-105.5 521.5,-75.5 46.5,-75.5"/>
<text text-anchor="start" x="53.5" y="-86.9" font-family="Arial" font-size="14.00" fill="#000000">compressed_toast_size </text>
<text text-anchor="start" x="204.4256" y="-86.9" font-family="Arial" font-size="14.00" fill="#666666">[bigint]</text>
<polygon fill="none" stroke="#000000" points="46.5,-45.5 46.5,-75.5 521.5,-75.5 521.5,-45.5 46.5,-45.5"/>
<text text-anchor="start" x="53.5" y="-56.9" font-family="Arial" font-size="14.00" fill="#000000">compressed_total_size </text>
<text text-anchor="start" x="200.5322" y="-56.9" font-family="Arial" font-size="14.00" fill="#666666">[bigint]</text>
<polygon fill="none" stroke="#000000" stroke-width="3" points="44.5,-44.5 44.5,-472.5 522.5,-472.5 522.5,-44.5 44.5,-44.5"/>
</g>
</g>
</svg>
