<?xml version="1.0" encoding="UTF-8" standalone="no"?>
<!DOCTYPE svg PUBLIC "-//W3C//DTD SVG 1.1//EN"
 "http://www.w3.org/Graphics/SVG/1.1/DTD/svg11.dtd">
<!-- Generated by graphviz version 2.40.1 (20161225.0304)
 -->
<!-- Title: _timescaledb_catalog.compression_chunk_size Pages: 1 -->
<svg width="1092pt" height="832pt"
 viewBox="0.00 0.00 1092.00 832.00" xmlns="http://www.w3.org/2000/svg" xmlns:xlink="http://www.w3.org/1999/xlink">
<g id="graph0" class="graph" transform="scale(1 1) rotate(0) translate(4 828)">
<title>_timescaledb_catalog.compression_chunk_size</title>
<polygon fill="#ffffff" stroke="transparent" points="-4,4 -4,-828 1088,-828 1088,4 -4,4"/>
<!-- _timescaledb_catalog.compression_chunk_size -->
<g id="node1" class="node">
<title>_timescaledb_catalog.compression_chunk_size</title>
<polygon fill="#efefef" stroke="transparent" points="46,-742.5 46,-777.5 568,-777.5 568,-742.5 46,-742.5"/>
<polygon fill="none" stroke="#000000" points="46,-742.5 46,-777.5 568,-777.5 568,-742.5 46,-742.5"/>
<text text-anchor="start" x="52.6707" y="-755.3" font-family="Arial Bold" font-size="18.00" fill="#000000">_timescaledb_catalog.compression_chunk_size</text>
<text text-anchor="start" x="433.7613" y="-755.3" font-family="Arial" font-size="14.00" fill="#000000">    </text>
<text text-anchor="start" x="467.9661" y="-755.3" font-family="Arial" font-size="14.00" fill="#666666">[BASE TABLE]</text>
<polygon fill="none" stroke="#000000" points="46,-712.5 46,-742.5 568,-742.5 568,-712.5 46,-712.5"/>
<text text-anchor="start" x="53" y="-723.9" font-family="Arial" font-size="14.00" fill="#000000">chunk_id </text>
<text text-anchor="start" x="112.9102" y="-723.9" font-family="Arial" font-size="14.00" fill="#666666">[integer]</text>
<polygon fill="none" stroke="#000000" points="46,-682.5 46,-712.5 568,-712.5 568,-682.5 46,-682.5"/>
<text text-anchor="start" x="53" y="-693.9" font-family="Arial" font-size="14.00" fill="#000000">compressed_chunk_id </text>
<text text-anchor="start" x="196.927" y="-693.9" font-family="Arial" font-size="14.00" fill="#666666">[integer]</text>
<polygon fill="none" stroke="#000000" points="46,-652.5 46,-682.5 568,-682.5 568,-652.5 46,-652.5"/>
<text text-anchor="start" x="53" y="-663.9" font-family="Arial" font-size="14.00" fill="#000000">uncompressed_heap_size </text>
<text text-anchor="start" x="220.2748" y="-663.9" font-family="Arial" font-size="14.00" fill="#666666">[bigint]</text>
<polygon fill="none" stroke="#000000" points="46,-622.5 46,-652.5 568,-652.5 568,-622.5 46,-622.5"/>
<text text-anchor="start" x="53" y="-633.9" font-family="Arial" font-size="14.00" fill="#000000">uncompressed_toast_size </text>
<text text-anchor="start" x="219.4908" y="-633.9" font-family="Arial" font-size="14.00" fill="#666666">[bigint]</text>
<polygon fill="none" stroke="#000000" points="46,-592.5 46,-622.5 568,-622.5 568,-592.5 46,-592.5"/>
<text text-anchor="start" x="53" y="-603.9" font-family="Arial" font-size="14.00" fill="#000000">uncompressed_index_size </text>
<text text-anchor="start" x="222.5988" y="-603.9" font-family="Arial" font-size="14.00" fill="#666666">[bigint]</text>
<polygon fill="none" stroke="#000000" points="46,-562.5 46,-592.5 568,-592.5 568,-562.5 46,-562.5"/>
<text text-anchor="start" x="53" y="-573.9" font-family="Arial" font-size="14.00" fill="#000000">compressed_heap_size </text>
<text text-anchor="start" x="204.7096" y="-573.9" font-family="Arial" font-size="14.00" fill="#666666">[bigint]</text>
<polygon fill="none" stroke="#000000" points="46,-532.5 46,-562.5 568,-562.5 568,-532.5 46,-532.5"/>
<text text-anchor="start" x="53" y="-543.9" font-family="Arial" font-size="14.00" fill="#000000">compressed_toast_size </text>
<text text-anchor="start" x="203.9256" y="-543.9" font-family="Arial" font-size="14.00" fill="#666666">[bigint]</text>
<polygon fill="none" stroke="#000000" points="46,-502.5 46,-532.5 568,-532.5 568,-502.5 46,-502.5"/>
<text text-anchor="start" x="53" y="-513.9" font-family="Arial" font-size="14.00" fill="#000000">compressed_index_size </text>
<text text-anchor="start" x="207.0336" y="-513.9" font-family="Arial" font-size="14.00" fill="#666666">[bigint]</text>
<polygon fill="none" stroke="#000000" points="46,-472.5 46,-502.5 568,-502.5 568,-472.5 46,-472.5"/>
<text text-anchor="start" x="53" y="-483.9" font-family="Arial" font-size="14.00" fill="#000000">numrows_pre_compression </text>
<text text-anchor="start" x="228.798" y="-483.9" font-family="Arial" font-size="14.00" fill="#666666">[bigint]</text>
<polygon fill="none" stroke="#000000" points="46,-442.5 46,-472.5 568,-472.5 568,-442.5 46,-442.5"/>
<text text-anchor="start" x="53" y="-453.9" font-family="Arial" font-size="14.00" fill="#000000">numrows_post_compression </text>
<text text-anchor="start" x="235.028" y="-453.9" font-family="Arial" font-size="14.00" fill="#666666">[bigint]</text>
<polygon fill="none" stroke="#000000" stroke-width="3" points="44.5,-441.5 44.5,-779.5 569.5,-779.5 569.5,-441.5 44.5,-441.5"/>
</g>
<!-- _timescaledb_catalog.chunk -->
<g id="node2" class="node">
<title>_timescaledb_catalog.chunk</title>
<polygon fill="#efefef" stroke="transparent" points="123,-282.5 123,-317.5 491,-317.5 491,-282.5 123,-282.5"/>
<polygon fill="none" stroke="#000000" points="123,-282.5 123,-317.5 491,-317.5 491,-282.5 123,-282.5"/>
<text text-anchor="start" x="129.6819" y="-295.3" font-family="Arial Bold" font-size="18.00" fill="#000000">_timescaledb_catalog.chunk</text>
<text text-anchor="start" x="356.7501" y="-295.3" font-family="Arial" font-size="14.00" fill="#000000">    </text>
<text text-anchor="start" x="390.9549" y="-295.3" font-family="Arial" font-size="14.00" fill="#666666">[BASE TABLE]</text>
<polygon fill="none" stroke="#000000" points="123,-252.5 123,-282.5 491,-282.5 491,-252.5 123,-252.5"/>
<text text-anchor="start" x="130" y="-263.9" font-family="Arial" font-size="14.00" fill="#000000">id    </text>
<text text-anchor="start" x="175.094" y="-263.9" font-family="Arial" font-size="14.00" fill="#666666">[integer]</text>
<polygon fill="none" stroke="#000000" points="123,-222.5 123,-252.5 491,-252.5 491,-222.5 123,-222.5"/>
<text text-anchor="start" x="130" y="-233.9" font-family="Arial" font-size="14.00" fill="#000000">hypertable_id    </text>
<text text-anchor="start" x="248.23" y="-233.9" font-family="Arial" font-size="14.00" fill="#666666">[integer]</text>
<polygon fill="none" stroke="#000000" points="123,-192.5 123,-222.5 491,-222.5 491,-192.5 123,-192.5"/>
<text text-anchor="start" x="130" y="-203.9" font-family="Arial" font-size="14.00" fill="#000000">schema_name    </text>
<text text-anchor="start" x="256.0042" y="-203.9" font-family="Arial" font-size="14.00" fill="#666666">[name]</text>
<polygon fill="none" stroke="#000000" points="123,-162.5 123,-192.5 491,-192.5 491,-162.5 123,-162.5"/>
<text text-anchor="start" x="130" y="-173.9" font-family="Arial" font-size="14.00" fill="#000000">table_name    </text>
<text text-anchor="start" x="237.3408" y="-173.9" font-family="Arial" font-size="14.00" fill="#666666">[name]</text>
<polygon fill="none" stroke="#000000" points="123,-132.5 123,-162.5 491,-162.5 491,-132.5 123,-132.5"/>
<text text-anchor="start" x="130" y="-143.9" font-family="Arial" font-size="14.00" fill="#000000">compressed_chunk_id    </text>
<text text-anchor="start" x="304.2412" y="-143.9" font-family="Arial" font-size="14.00" fill="#666666">[integer]</text>
<polygon fill="none" stroke="#000000" points="123,-102.5 123,-132.5 491,-132.5 491,-102.5 123,-102.5"/>
<text text-anchor="start" x="130" y="-113.9" font-family="Arial" font-size="14.00" fill="#000000">dropped    </text>
<text text-anchor="start" x="215.561" y="-113.9" font-family="Arial" font-size="14.00" fill="#666666">[boolean]</text>
<polygon fill="none" stroke="#000000" points="123,-72.5 123,-102.5 491,-102.5 491,-72.5 123,-72.5"/>
<text text-anchor="start" x="130" y="-83.9" font-family="Arial" font-size="14.00" fill="#000000">status    </text>
<text text-anchor="start" x="201.5512" y="-83.9" font-family="Arial" font-size="14.00" fill="#666666">[integer]</text>
<polygon fill="none" stroke="#000000" points="123,-42.5 123,-72.5 491,-72.5 491,-42.5 123,-42.5"/>
<text text-anchor="start" x="130" y="-53.9" font-family="Arial" font-size="14.00" fill="#000000">osm_chunk    </text>
<text text-anchor="start" x="235.7784" y="-53.9" font-family="Arial" font-size="14.00" fill="#666666">[boolean]</text>
</g>
<!-- _timescaledb_catalog.compression_chunk_size&#45;&gt;_timescaledb_catalog.chunk -->
<g id="edge1" class="edge">
<title>_timescaledb_catalog.compression_chunk_size:chunk_id&#45;&gt;_timescaledb_catalog.chunk:id</title>
<path fill="none" stroke="#000000" d="M578.0006,-725.9245C666.3497,-696.5921 591.1019,-267.5 491,-267.5"/>
<polygon fill="#000000" stroke="#000000" points="577.8782,-725.9438 567.2997,-723.0548 572.9391,-726.7219 568,-727.5 568,-727.5 568,-727.5 572.9391,-726.7219 568.7003,-731.9452 577.8782,-725.9438 577.8782,-725.9438"/>
<text text-anchor="start" x="574.5875" y="-737.5" font-family="Arial" font-size="10.00" fill="#000000">FOREIGN KEY (chunk_id) REFERENCES _timescaledb_catalog.chunk(id) ON DELETE CASCADE</text>
</g>
<!-- _timescaledb_catalog.compression_chunk_size&#45;&gt;_timescaledb_catalog.chunk -->
<g id="edge2" class="edge">
<title>_timescaledb_catalog.compression_chunk_size:compressed_chunk_id&#45;&gt;_timescaledb_catalog.chunk:id</title>
<path fill="none" stroke="#000000" d="M578.0959,-695.7675C659.333,-666.1781 584.4731,-267.5 491,-267.5"/>
<polygon fill="#000000" stroke="#000000" points="577.8559,-695.8086 567.2389,-693.0648 572.928,-696.6543 568,-697.5 568,-697.5 568,-697.5 572.928,-696.6543 568.7611,-701.9352 577.8559,-695.8086 577.8559,-695.8086"/>
<text text-anchor="start" x="574.5815" y="-707.5" font-family="Arial" font-size="10.00" fill="#000000">FOREIGN KEY (compressed_chunk_id) REFERENCES _timescaledb_catalog.chunk(id) ON DELETE CASCADE</text>
</g>
</g>
</svg>
