<?xml version="1.0" encoding="UTF-8" standalone="no"?>
<!DOCTYPE svg PUBLIC "-//W3C//DTD SVG 1.1//EN"
 "http://www.w3.org/Graphics/SVG/1.1/DTD/svg11.dtd">
<!-- Generated by graphviz version 2.40.1 (20161225.0304)
 -->
<!-- Title: timescaledb_information.chunks Pages: 1 -->
<svg width="448pt" height="525pt"
 viewBox="0.00 0.00 448.00 525.00" xmlns="http://www.w3.org/2000/svg" xmlns:xlink="http://www.w3.org/1999/xlink">
<g id="graph0" class="graph" transform="scale(1 1) rotate(0) translate(4 521)">
<title>timescaledb_information.chunks</title>
<polygon fill="#ffffff" stroke="transparent" points="-4,4 -4,-521 444,-521 444,4 -4,4"/>
<!-- timescaledb_information.chunks -->
<g id="node1" class="node">
<title>timescaledb_information.chunks</title>
<polygon fill="#efefef" stroke="transparent" points="46,-435.5 46,-470.5 394,-470.5 394,-435.5 46,-435.5"/>
<polygon fill="none" stroke="#000000" points="46,-435.5 46,-470.5 394,-470.5 394,-435.5 46,-435.5"/>
<text text-anchor="start" x="52.5933" y="-448.3" font-family="Arial Bold" font-size="18.00" fill="#000000">timescaledb_information.chunks</text>
<text text-anchor="start" x="309.6423" y="-448.3" font-family="Arial" font-size="14.00" fill="#000000">    </text>
<text text-anchor="start" x="343.8471" y="-448.3" font-family="Arial" font-size="14.00" fill="#666666">[VIEW]</text>
<polygon fill="none" stroke="#000000" points="46,-405.5 46,-435.5 394,-435.5 394,-405.5 46,-405.5"/>
<text text-anchor="start" x="53" y="-416.9" font-family="Arial" font-size="14.00" fill="#000000">hypertable_schema </text>
<text text-anchor="start" x="179.035" y="-416.9" font-family="Arial" font-size="14.00" fill="#666666">[name]</text>
<polygon fill="none" stroke="#000000" points="46,-375.5 46,-405.5 394,-405.5 394,-375.5 46,-375.5"/>
<text text-anchor="start" x="53" y="-386.9" font-family="Arial" font-size="14.00" fill="#000000">hypertable_name </text>
<text text-anchor="start" x="165.035" y="-386.9" font-family="Arial" font-size="14.00" fill="#666666">[name]</text>
<polygon fill="none" stroke="#000000" points="46,-345.5 46,-375.5 394,-375.5 394,-345.5 46,-345.5"/>
<text text-anchor="start" x="53" y="-356.9" font-family="Arial" font-size="14.00" fill="#000000">chunk_schema </text>
<text text-anchor="start" x="151.0294" y="-356.9" font-family="Arial" font-size="14.00" fill="#666666">[name]</text>
<polygon fill="none" stroke="#000000" points="46,-315.5 46,-345.5 394,-345.5 394,-315.5 46,-315.5"/>
<text text-anchor="start" x="53" y="-326.9" font-family="Arial" font-size="14.00" fill="#000000">chunk_name </text>
<text text-anchor="start" x="137.0294" y="-326.9" font-family="Arial" font-size="14.00" fill="#666666">[name]</text>
<polygon fill="none" stroke="#000000" points="46,-285.5 46,-315.5 394,-315.5 394,-285.5 46,-285.5"/>
<text text-anchor="start" x="53" y="-296.9" font-family="Arial" font-size="14.00" fill="#000000">primary_dimension </text>
<text text-anchor="start" x="175.1136" y="-296.9" font-family="Arial" font-size="14.00" fill="#666666">[name]</text>
<polygon fill="none" stroke="#000000" points="46,-255.5 46,-285.5 394,-285.5 394,-255.5 46,-255.5"/>
<text text-anchor="start" x="53" y="-266.9" font-family="Arial" font-size="14.00" fill="#000000">primary_dimension_type </text>
<text text-anchor="start" x="209.352" y="-266.9" font-family="Arial" font-size="14.00" fill="#666666">[regtype]</text>
<polygon fill="none" stroke="#000000" points="46,-225.5 46,-255.5 394,-255.5 394,-225.5 46,-225.5"/>
<text text-anchor="start" x="53" y="-236.9" font-family="Arial" font-size="14.00" fill="#000000">range_start </text>
<text text-anchor="start" x="127.6886" y="-236.9" font-family="Arial" font-size="14.00" fill="#666666">[timestamp with time zone]</text>
<polygon fill="none" stroke="#000000" points="46,-195.5 46,-225.5 394,-225.5 394,-195.5 46,-195.5"/>
<text text-anchor="start" x="53" y="-206.9" font-family="Arial" font-size="14.00" fill="#000000">range_end </text>
<text text-anchor="start" x="123.812" y="-206.9" font-family="Arial" font-size="14.00" fill="#666666">[timestamp with time zone]</text>
<polygon fill="none" stroke="#000000" points="46,-165.5 46,-195.5 394,-195.5 394,-165.5 46,-165.5"/>
<text text-anchor="start" x="53" y="-176.9" font-family="Arial" font-size="14.00" fill="#000000">range_start_integer </text>
<text text-anchor="start" x="178.2594" y="-176.9" font-family="Arial" font-size="14.00" fill="#666666">[bigint]</text>
<polygon fill="none" stroke="#000000" points="46,-135.5 46,-165.5 394,-165.5 394,-135.5 46,-135.5"/>
<text text-anchor="start" x="53" y="-146.9" font-family="Arial" font-size="14.00" fill="#000000">range_end_integer </text>
<text text-anchor="start" x="174.3828" y="-146.9" font-family="Arial" font-size="14.00" fill="#666666">[bigint]</text>
<polygon fill="none" stroke="#000000" points="46,-105.5 46,-135.5 394,-135.5 394,-105.5 46,-105.5"/>
<text text-anchor="start" x="53" y="-116.9" font-family="Arial" font-size="14.00" fill="#000000">is_compressed </text>
<text text-anchor="start" x="151.014" y="-116.9" font-family="Arial" font-size="14.00" fill="#666666">[boolean]</text>
<polygon fill="none" stroke="#000000" points="46,-75.5 46,-105.5 394,-105.5 394,-75.5 46,-75.5"/>
<text text-anchor="start" x="53" y="-86.9" font-family="Arial" font-size="14.00" fill="#000000">chunk_tablespace </text>
<text text-anchor="start" x="169.7138" y="-86.9" font-family="Arial" font-size="14.00" fill="#666666">[name]</text>
<polygon fill="none" stroke="#000000" points="46,-45.5 46,-75.5 394,-75.5 394,-45.5 46,-45.5"/>
<text text-anchor="start" x="53" y="-56.9" font-family="Arial" font-size="14.00" fill="#000000">data_nodes </text>
<text text-anchor="start" x="130.042" y="-56.9" font-family="Arial" font-size="14.00" fill="#666666">[name[]]</text>
<polygon fill="none" stroke="#000000" stroke-width="3" points="44.5,-44.5 44.5,-472.5 395.5,-472.5 395.5,-44.5 44.5,-44.5"/>
</g>
</g>
</svg>
