<?xml version="1.0" encoding="UTF-8" standalone="no"?>
<!DOCTYPE svg PUBLIC "-//W3C//DTD SVG 1.1//EN"
 "http://www.w3.org/Graphics/SVG/1.1/DTD/svg11.dtd">
<!-- Generated by graphviz version 2.40.1 (20161225.0304)
 -->
<!-- Title: timescaledb_information.continuous_aggregates Pages: 1 -->
<svg width="578pt" height="465pt"
 viewBox="0.00 0.00 578.00 465.00" xmlns="http://www.w3.org/2000/svg" xmlns:xlink="http://www.w3.org/1999/xlink">
<g id="graph0" class="graph" transform="scale(1 1) rotate(0) translate(4 461)">
<title>timescaledb_information.continuous_aggregates</title>
<polygon fill="#ffffff" stroke="transparent" points="-4,4 -4,-461 574,-461 574,4 -4,4"/>
<!-- timescaledb_information.continuous_aggregates -->
<g id="node1" class="node">
<title>timescaledb_information.continuous_aggregates</title>
<polygon fill="#efefef" stroke="transparent" points="46,-375.5 46,-410.5 524,-410.5 524,-375.5 46,-375.5"/>
<polygon fill="none" stroke="#000000" points="46,-375.5 46,-410.5 524,-410.5 524,-375.5 46,-375.5"/>
<text text-anchor="start" x="52.5638" y="-388.3" font-family="Arial Bold" font-size="18.00" fill="#000000">timescaledb_information.continuous_aggregates</text>
<text text-anchor="start" x="439.6718" y="-388.3" font-family="Arial" font-size="14.00" fill="#000000">    </text>
<text text-anchor="start" x="473.8766" y="-388.3" font-family="Arial" font-size="14.00" fill="#666666">[VIEW]</text>
<polygon fill="none" stroke="#000000" points="46,-345.5 46,-375.5 524,-375.5 524,-345.5 46,-345.5"/>
<text text-anchor="start" x="53" y="-356.9" font-family="Arial" font-size="14.00" fill="#000000">hypertable_schema </text>
<text text-anchor="start" x="179.035" y="-356.9" font-family="Arial" font-size="14.00" fill="#666666">[name]</text>
<polygon fill="none" stroke="#000000" points="46,-315.5 46,-345.5 524,-345.5 524,-315.5 46,-315.5"/>
<text text-anchor="start" x="53" y="-326.9" font-family="Arial" font-size="14.00" fill="#000000">hypertable_name </text>
<text text-anchor="start" x="165.035" y="-326.9" font-family="Arial" font-size="14.00" fill="#666666">[name]</text>
<polygon fill="none" stroke="#000000" points="46,-285.5 46,-315.5 524,-315.5 524,-285.5 46,-285.5"/>
<text text-anchor="start" x="53" y="-296.9" font-family="Arial" font-size="14.00" fill="#000000">view_schema </text>
<text text-anchor="start" x="141.6774" y="-296.9" font-family="Arial" font-size="14.00" fill="#666666">[name]</text>
<polygon fill="none" stroke="#000000" points="46,-255.5 46,-285.5 524,-285.5 524,-255.5 46,-255.5"/>
<text text-anchor="start" x="53" y="-266.9" font-family="Arial" font-size="14.00" fill="#000000">view_name </text>
<text text-anchor="start" x="127.6774" y="-266.9" font-family="Arial" font-size="14.00" fill="#666666">[name]</text>
<polygon fill="none" stroke="#000000" points="46,-225.5 46,-255.5 524,-255.5 524,-225.5 46,-225.5"/>
<text text-anchor="start" x="53" y="-236.9" font-family="Arial" font-size="14.00" fill="#000000">view_owner </text>
<text text-anchor="start" x="130.784" y="-236.9" font-family="Arial" font-size="14.00" fill="#666666">[name]</text>
<polygon fill="none" stroke="#000000" points="46,-195.5 46,-225.5 524,-225.5 524,-195.5 46,-195.5"/>
<text text-anchor="start" x="53" y="-206.9" font-family="Arial" font-size="14.00" fill="#000000">materialized_only </text>
<text text-anchor="start" x="165.7896" y="-206.9" font-family="Arial" font-size="14.00" fill="#666666">[boolean]</text>
<polygon fill="none" stroke="#000000" points="46,-165.5 46,-195.5 524,-195.5 524,-165.5 46,-165.5"/>
<text text-anchor="start" x="53" y="-176.9" font-family="Arial" font-size="14.00" fill="#000000">compression_enabled </text>
<text text-anchor="start" x="193.8162" y="-176.9" font-family="Arial" font-size="14.00" fill="#666666">[boolean]</text>
<polygon fill="none" stroke="#000000" points="46,-135.5 46,-165.5 524,-165.5 524,-135.5 46,-135.5"/>
<text text-anchor="start" x="53" y="-146.9" font-family="Arial" font-size="14.00" fill="#000000">materialization_hypertable_schema </text>
<text text-anchor="start" x="277.042" y="-146.9" font-family="Arial" font-size="14.00" fill="#666666">[name]</text>
<polygon fill="none" stroke="#000000" points="46,-105.5 46,-135.5 524,-135.5 524,-105.5 46,-105.5"/>
<text text-anchor="start" x="53" y="-116.9" font-family="Arial" font-size="14.00" fill="#000000">materialization_hypertable_name </text>
<text text-anchor="start" x="263.042" y="-116.9" font-family="Arial" font-size="14.00" fill="#666666">[name]</text>
<polygon fill="none" stroke="#000000" points="46,-75.5 46,-105.5 524,-105.5 524,-75.5 46,-75.5"/>
<text text-anchor="start" x="53" y="-86.9" font-family="Arial" font-size="14.00" fill="#000000">view_definition </text>
<text text-anchor="start" x="148.683" y="-86.9" font-family="Arial" font-size="14.00" fill="#666666">[text]</text>
<polygon fill="none" stroke="#000000" points="46,-45.5 46,-75.5 524,-75.5 524,-45.5 46,-45.5"/>
<text text-anchor="start" x="53" y="-56.9" font-family="Arial" font-size="14.00" fill="#000000">finalized </text>
<text text-anchor="start" x="108.2314" y="-56.9" font-family="Arial" font-size="14.00" fill="#666666">[boolean]</text>
<polygon fill="none" stroke="#000000" stroke-width="3" points="44.5,-44.5 44.5,-412.5 525.5,-412.5 525.5,-44.5 44.5,-44.5"/>
</g>
</g>
</svg>
