<?xml version="1.0" encoding="UTF-8" standalone="no"?>
<!DOCTYPE svg PUBLIC "-//W3C//DTD SVG 1.1//EN"
 "http://www.w3.org/Graphics/SVG/1.1/DTD/svg11.dtd">
<!-- Generated by graphviz version 2.40.1 (20161225.0304)
 -->
<!-- Title: timescaledb_experimental.policies Pages: 1 -->
<svg width="465pt" height="375pt"
 viewBox="0.00 0.00 465.00 375.00" xmlns="http://www.w3.org/2000/svg" xmlns:xlink="http://www.w3.org/1999/xlink">
<g id="graph0" class="graph" transform="scale(1 1) rotate(0) translate(4 371)">
<title>timescaledb_experimental.policies</title>
<polygon fill="#ffffff" stroke="transparent" points="-4,4 -4,-371 461,-371 461,4 -4,4"/>
<!-- timescaledb_experimental.policies -->
<g id="node1" class="node">
<title>timescaledb_experimental.policies</title>
<polygon fill="#efefef" stroke="transparent" points="46.5,-285.5 46.5,-320.5 411.5,-320.5 411.5,-285.5 46.5,-285.5"/>
<polygon fill="none" stroke="#000000" points="46.5,-285.5 46.5,-320.5 411.5,-320.5 411.5,-285.5 46.5,-285.5"/>
<text text-anchor="start" x="53.1" y="-298.3" font-family="Arial Bold" font-size="18.00" fill="#000000">timescaledb_experimental.policies</text>
<text text-anchor="start" x="327.1356" y="-298.3" font-family="Arial" font-size="14.00" fill="#000000">    </text>
<text text-anchor="start" x="361.3404" y="-298.3" font-family="Arial" font-size="14.00" fill="#666666">[VIEW]</text>
<polygon fill="none" stroke="#000000" points="46.5,-255.5 46.5,-285.5 411.5,-285.5 411.5,-255.5 46.5,-255.5"/>
<text text-anchor="start" x="53.5" y="-266.9" font-family="Arial" font-size="14.00" fill="#000000">relation_name </text>
<text text-anchor="start" x="146.0764" y="-266.9" font-family="Arial" font-size="14.00" fill="#666666">[name]</text>
<polygon fill="none" stroke="#000000" points="46.5,-225.5 46.5,-255.5 411.5,-255.5 411.5,-225.5 46.5,-225.5"/>
<text text-anchor="start" x="53.5" y="-236.9" font-family="Arial" font-size="14.00" fill="#000000">relation_schema </text>
<text text-anchor="start" x="160.0764" y="-236.9" font-family="Arial" font-size="14.00" fill="#666666">[name]</text>
<polygon fill="none" stroke="#000000" points="46.5,-195.5 46.5,-225.5 411.5,-225.5 411.5,-195.5 46.5,-195.5"/>
<text text-anchor="start" x="53.5" y="-206.9" font-family="Arial" font-size="14.00" fill="#000000">schedule_interval </text>
<text text-anchor="start" x="166.305" y="-206.9" font-family="Arial" font-size="14.00" fill="#666666">[interval]</text>
<polygon fill="none" stroke="#000000" points="46.5,-165.5 46.5,-195.5 411.5,-195.5 411.5,-165.5 46.5,-165.5"/>
<text text-anchor="start" x="53.5" y="-176.9" font-family="Arial" font-size="14.00" fill="#000000">proc_schema </text>
<text text-anchor="start" x="141.4074" y="-176.9" font-family="Arial" font-size="14.00" fill="#666666">[name]</text>
<polygon fill="none" stroke="#000000" points="46.5,-135.5 46.5,-165.5 411.5,-165.5 411.5,-135.5 46.5,-135.5"/>
<text text-anchor="start" x="53.5" y="-146.9" font-family="Arial" font-size="14.00" fill="#000000">proc_name </text>
<text text-anchor="start" x="127.4074" y="-146.9" font-family="Arial" font-size="14.00" fill="#666666">[name]</text>
<polygon fill="none" stroke="#000000" points="46.5,-105.5 46.5,-135.5 411.5,-135.5 411.5,-105.5 46.5,-105.5"/>
<text text-anchor="start" x="53.5" y="-116.9" font-family="Arial" font-size="14.00" fill="#000000">config </text>
<text text-anchor="start" x="94.7356" y="-116.9" font-family="Arial" font-size="14.00" fill="#666666">[jsonb]</text>
<polygon fill="none" stroke="#000000" points="46.5,-75.5 46.5,-105.5 411.5,-105.5 411.5,-75.5 46.5,-75.5"/>
<text text-anchor="start" x="53.5" y="-86.9" font-family="Arial" font-size="14.00" fill="#000000">hypertable_schema </text>
<text text-anchor="start" x="179.535" y="-86.9" font-family="Arial" font-size="14.00" fill="#666666">[name]</text>
<polygon fill="none" stroke="#000000" points="46.5,-45.5 46.5,-75.5 411.5,-75.5 411.5,-45.5 46.5,-45.5"/>
<text text-anchor="start" x="53.5" y="-56.9" font-family="Arial" font-size="14.00" fill="#000000">hypertable_name </text>
<text text-anchor="start" x="165.535" y="-56.9" font-family="Arial" font-size="14.00" fill="#666666">[name]</text>
<polygon fill="none" stroke="#000000" stroke-width="3" points="44.5,-44.5 44.5,-322.5 412.5,-322.5 412.5,-44.5 44.5,-44.5"/>
</g>
</g>
</svg>
