<?xml version="1.0" encoding="UTF-8" standalone="no"?>
<!DOCTYPE svg PUBLIC "-//W3C//DTD SVG 1.1//EN"
 "http://www.w3.org/Graphics/SVG/1.1/DTD/svg11.dtd">
<!-- Generated by graphviz version 2.40.1 (20161225.0304)
 -->
<!-- Title: timescaledb_information.hypertables Pages: 1 -->
<svg width="484pt" height="435pt"
 viewBox="0.00 0.00 484.00 435.00" xmlns="http://www.w3.org/2000/svg" xmlns:xlink="http://www.w3.org/1999/xlink">
<g id="graph0" class="graph" transform="scale(1 1) rotate(0) translate(4 431)">
<title>timescaledb_information.hypertables</title>
<polygon fill="#ffffff" stroke="transparent" points="-4,4 -4,-431 480,-431 480,4 -4,4"/>
<!-- timescaledb_information.hypertables -->
<g id="node1" class="node">
<title>timescaledb_information.hypertables</title>
<polygon fill="#efefef" stroke="transparent" points="46,-345.5 46,-380.5 430,-380.5 430,-345.5 46,-345.5"/>
<polygon fill="none" stroke="#000000" points="46,-345.5 46,-380.5 430,-380.5 430,-345.5 46,-345.5"/>
<text text-anchor="start" x="52.5897" y="-358.3" font-family="Arial Bold" font-size="18.00" fill="#000000">timescaledb_information.hypertables</text>
<text text-anchor="start" x="345.6459" y="-358.3" font-family="Arial" font-size="14.00" fill="#000000">    </text>
<text text-anchor="start" x="379.8507" y="-358.3" font-family="Arial" font-size="14.00" fill="#666666">[VIEW]</text>
<polygon fill="none" stroke="#000000" points="46,-315.5 46,-345.5 430,-345.5 430,-315.5 46,-315.5"/>
<text text-anchor="start" x="53" y="-326.9" font-family="Arial" font-size="14.00" fill="#000000">hypertable_schema </text>
<text text-anchor="start" x="179.035" y="-326.9" font-family="Arial" font-size="14.00" fill="#666666">[name]</text>
<polygon fill="none" stroke="#000000" points="46,-285.5 46,-315.5 430,-315.5 430,-285.5 46,-285.5"/>
<text text-anchor="start" x="53" y="-296.9" font-family="Arial" font-size="14.00" fill="#000000">hypertable_name </text>
<text text-anchor="start" x="165.035" y="-296.9" font-family="Arial" font-size="14.00" fill="#666666">[name]</text>
<polygon fill="none" stroke="#000000" points="46,-255.5 46,-285.5 430,-285.5 430,-255.5 46,-255.5"/>
<text text-anchor="start" x="53" y="-266.9" font-family="Arial" font-size="14.00" fill="#000000">owner </text>
<text text-anchor="start" x="95.0056" y="-266.9" font-family="Arial" font-size="14.00" fill="#666666">[name]</text>
<polygon fill="none" stroke="#000000" points="46,-225.5 46,-255.5 430,-255.5 430,-225.5 46,-225.5"/>
<text text-anchor="start" x="53" y="-236.9" font-family="Arial" font-size="14.00" fill="#000000">num_dimensions </text>
<text text-anchor="start" x="162.6858" y="-236.9" font-family="Arial" font-size="14.00" fill="#666666">[smallint]</text>
<polygon fill="none" stroke="#000000" points="46,-195.5 46,-225.5 430,-225.5 430,-195.5 46,-195.5"/>
<text text-anchor="start" x="53" y="-206.9" font-family="Arial" font-size="14.00" fill="#000000">num_chunks </text>
<text text-anchor="start" x="136.2468" y="-206.9" font-family="Arial" font-size="14.00" fill="#666666">[bigint]</text>
<polygon fill="none" stroke="#000000" points="46,-165.5 46,-195.5 430,-195.5 430,-165.5 46,-165.5"/>
<text text-anchor="start" x="53" y="-176.9" font-family="Arial" font-size="14.00" fill="#000000">compression_enabled </text>
<text text-anchor="start" x="193.8162" y="-176.9" font-family="Arial" font-size="14.00" fill="#666666">[boolean]</text>
<polygon fill="none" stroke="#000000" points="46,-135.5 46,-165.5 430,-165.5 430,-135.5 46,-135.5"/>
<text text-anchor="start" x="53" y="-146.9" font-family="Arial" font-size="14.00" fill="#000000">is_distributed </text>
<text text-anchor="start" x="139.3478" y="-146.9" font-family="Arial" font-size="14.00" fill="#666666">[boolean]</text>
<polygon fill="none" stroke="#000000" points="46,-105.5 46,-135.5 430,-135.5 430,-105.5 46,-105.5"/>
<text text-anchor="start" x="53" y="-116.9" font-family="Arial" font-size="14.00" fill="#000000">replication_factor </text>
<text text-anchor="start" x="163.4642" y="-116.9" font-family="Arial" font-size="14.00" fill="#666666">[smallint]</text>
<polygon fill="none" stroke="#000000" points="46,-75.5 46,-105.5 430,-105.5 430,-75.5 46,-75.5"/>
<text text-anchor="start" x="53" y="-86.9" font-family="Arial" font-size="14.00" fill="#000000">data_nodes </text>
<text text-anchor="start" x="130.042" y="-86.9" font-family="Arial" font-size="14.00" fill="#666666">[name[]]</text>
<polygon fill="none" stroke="#000000" points="46,-45.5 46,-75.5 430,-75.5 430,-45.5 46,-45.5"/>
<text text-anchor="start" x="53" y="-56.9" font-family="Arial" font-size="14.00" fill="#000000">tablespaces </text>
<text text-anchor="start" x="131.5834" y="-56.9" font-family="Arial" font-size="14.00" fill="#666666">[name[]]</text>
<polygon fill="none" stroke="#000000" stroke-width="3" points="44.5,-44.5 44.5,-382.5 431.5,-382.5 431.5,-44.5 44.5,-44.5"/>
</g>
</g>
</svg>
