<?xml version="1.0" encoding="UTF-8" standalone="no"?>
<!DOCTYPE svg PUBLIC "-//W3C//DTD SVG 1.1//EN"
 "http://www.w3.org/Graphics/SVG/1.1/DTD/svg11.dtd">
<!-- Generated by graphviz version 2.40.1 (20161225.0304)
 -->
<!-- Title: timescaledb_information.data_nodes Pages: 1 -->
<svg width="485pt" height="225pt"
 viewBox="0.00 0.00 485.00 225.00" xmlns="http://www.w3.org/2000/svg" xmlns:xlink="http://www.w3.org/1999/xlink">
<g id="graph0" class="graph" transform="scale(1 1) rotate(0) translate(4 221)">
<title>timescaledb_information.data_nodes</title>
<polygon fill="#ffffff" stroke="transparent" points="-4,4 -4,-221 481,-221 481,4 -4,4"/>
<!-- timescaledb_information.data_nodes -->
<g id="node1" class="node">
<title>timescaledb_information.data_nodes</title>
<polygon fill="#efefef" stroke="transparent" points="46.5,-135.5 46.5,-170.5 431.5,-170.5 431.5,-135.5 46.5,-135.5"/>
<polygon fill="none" stroke="#000000" points="46.5,-135.5 46.5,-170.5 431.5,-170.5 431.5,-135.5 46.5,-135.5"/>
<text text-anchor="start" x="53.0767" y="-148.3" font-family="Arial Bold" font-size="18.00" fill="#000000">timescaledb_information.data_nodes</text>
<text text-anchor="start" x="347.1589" y="-148.3" font-family="Arial" font-size="14.00" fill="#000000">    </text>
<text text-anchor="start" x="381.3637" y="-148.3" font-family="Arial" font-size="14.00" fill="#666666">[VIEW]</text>
<polygon fill="none" stroke="#000000" points="46.5,-105.5 46.5,-135.5 431.5,-135.5 431.5,-105.5 46.5,-105.5"/>
<text text-anchor="start" x="53.5" y="-116.9" font-family="Arial" font-size="14.00" fill="#000000">node_name </text>
<text text-anchor="start" x="131.312" y="-116.9" font-family="Arial" font-size="14.00" fill="#666666">[name]</text>
<polygon fill="none" stroke="#000000" points="46.5,-75.5 46.5,-105.5 431.5,-105.5 431.5,-75.5 46.5,-75.5"/>
<text text-anchor="start" x="53.5" y="-86.9" font-family="Arial" font-size="14.00" fill="#000000">owner </text>
<text text-anchor="start" x="95.5056" y="-86.9" font-family="Arial" font-size="14.00" fill="#666666">[name]</text>
<polygon fill="none" stroke="#000000" points="46.5,-45.5 46.5,-75.5 431.5,-75.5 431.5,-45.5 46.5,-45.5"/>
<text text-anchor="start" x="53.5" y="-56.9" font-family="Arial" font-size="14.00" fill="#000000">options </text>
<text text-anchor="start" x="102.5182" y="-56.9" font-family="Arial" font-size="14.00" fill="#666666">[text[]]</text>
<polygon fill="none" stroke="#000000" stroke-width="3" points="44.5,-44.5 44.5,-172.5 432.5,-172.5 432.5,-44.5 44.5,-44.5"/>
</g>
</g>
</svg>
