<?xml version="1.0" encoding="UTF-8" standalone="no"?>
<!DOCTYPE svg PUBLIC "-//W3C//DTD SVG 1.1//EN"
 "http://www.w3.org/Graphics/SVG/1.1/DTD/svg11.dtd">
<!-- Generated by graphviz version 2.40.1 (20161225.0304)
 -->
<!-- Title: timescaledb_information.compression_settings Pages: 1 -->
<svg width="565pt" height="345pt"
 viewBox="0.00 0.00 565.00 345.00" xmlns="http://www.w3.org/2000/svg" xmlns:xlink="http://www.w3.org/1999/xlink">
<g id="graph0" class="graph" transform="scale(1 1) rotate(0) translate(4 341)">
<title>timescaledb_information.compression_settings</title>
<polygon fill="#ffffff" stroke="transparent" points="-4,4 -4,-341 561,-341 561,4 -4,4"/>
<!-- timescaledb_information.compression_settings -->
<g id="node1" class="node">
<title>timescaledb_information.compression_settings</title>
<polygon fill="#efefef" stroke="transparent" points="46.5,-255.5 46.5,-290.5 511.5,-290.5 511.5,-255.5 46.5,-255.5"/>
<polygon fill="none" stroke="#000000" points="46.5,-255.5 46.5,-290.5 511.5,-290.5 511.5,-255.5 46.5,-255.5"/>
<text text-anchor="start" x="53.0861" y="-268.3" font-family="Arial Bold" font-size="18.00" fill="#000000">timescaledb_information.compression_settings</text>
<text text-anchor="start" x="427.1495" y="-268.3" font-family="Arial" font-size="14.00" fill="#000000">    </text>
<text text-anchor="start" x="461.3543" y="-268.3" font-family="Arial" font-size="14.00" fill="#666666">[VIEW]</text>
<polygon fill="none" stroke="#000000" points="46.5,-225.5 46.5,-255.5 511.5,-255.5 511.5,-225.5 46.5,-225.5"/>
<text text-anchor="start" x="53.5" y="-236.9" font-family="Arial" font-size="14.00" fill="#000000">hypertable_schema </text>
<text text-anchor="start" x="179.535" y="-236.9" font-family="Arial" font-size="14.00" fill="#666666">[name]</text>
<polygon fill="none" stroke="#000000" points="46.5,-195.5 46.5,-225.5 511.5,-225.5 511.5,-195.5 46.5,-195.5"/>
<text text-anchor="start" x="53.5" y="-206.9" font-family="Arial" font-size="14.00" fill="#000000">hypertable_name </text>
<text text-anchor="start" x="165.535" y="-206.9" font-family="Arial" font-size="14.00" fill="#666666">[name]</text>
<polygon fill="none" stroke="#000000" points="46.5,-165.5 46.5,-195.5 511.5,-195.5 511.5,-165.5 46.5,-165.5"/>
<text text-anchor="start" x="53.5" y="-176.9" font-family="Arial" font-size="14.00" fill="#000000">attname </text>
<text text-anchor="start" x="107.9628" y="-176.9" font-family="Arial" font-size="14.00" fill="#666666">[name]</text>
<polygon fill="none" stroke="#000000" points="46.5,-135.5 46.5,-165.5 511.5,-165.5 511.5,-135.5 46.5,-135.5"/>
<text text-anchor="start" x="53.5" y="-146.9" font-family="Arial" font-size="14.00" fill="#000000">segmentby_column_index </text>
<text text-anchor="start" x="219.9894" y="-146.9" font-family="Arial" font-size="14.00" fill="#666666">[smallint]</text>
<polygon fill="none" stroke="#000000" points="46.5,-105.5 46.5,-135.5 511.5,-135.5 511.5,-105.5 46.5,-105.5"/>
<text text-anchor="start" x="53.5" y="-116.9" font-family="Arial" font-size="14.00" fill="#000000">orderby_column_index </text>
<text text-anchor="start" x="198.9768" y="-116.9" font-family="Arial" font-size="14.00" fill="#666666">[smallint]</text>
<polygon fill="none" stroke="#000000" points="46.5,-75.5 46.5,-105.5 511.5,-105.5 511.5,-75.5 46.5,-75.5"/>
<text text-anchor="start" x="53.5" y="-86.9" font-family="Arial" font-size="14.00" fill="#000000">orderby_asc </text>
<text text-anchor="start" x="134.4074" y="-86.9" font-family="Arial" font-size="14.00" fill="#666666">[boolean]</text>
<polygon fill="none" stroke="#000000" points="46.5,-45.5 46.5,-75.5 511.5,-75.5 511.5,-45.5 46.5,-45.5"/>
<text text-anchor="start" x="53.5" y="-56.9" font-family="Arial" font-size="14.00" fill="#000000">orderby_nullsfirst </text>
<text text-anchor="start" x="163.9516" y="-56.9" font-family="Arial" font-size="14.00" fill="#666666">[boolean]</text>
<polygon fill="none" stroke="#000000" stroke-width="3" points="44.5,-44.5 44.5,-292.5 512.5,-292.5 512.5,-44.5 44.5,-44.5"/>
</g>
</g>
</svg>
