<?xml version="1.0" encoding="UTF-8" standalone="no"?>
<!DOCTYPE svg PUBLIC "-//W3C//DTD SVG 1.1//EN"
 "http://www.w3.org/Graphics/SVG/1.1/DTD/svg11.dtd">
<!-- Generated by graphviz version 2.40.1 (20161225.0304)
 -->
<!-- Title: timescaledb_experimental.chunk_replication_status Pages: 1 -->
<svg width="603pt" height="375pt"
 viewBox="0.00 0.00 603.00 375.00" xmlns="http://www.w3.org/2000/svg" xmlns:xlink="http://www.w3.org/1999/xlink">
<g id="graph0" class="graph" transform="scale(1 1) rotate(0) translate(4 371)">
<title>timescaledb_experimental.chunk_replication_status</title>
<polygon fill="#ffffff" stroke="transparent" points="-4,4 -4,-371 599,-371 599,4 -4,4"/>
<!-- timescaledb_experimental.chunk_replication_status -->
<g id="node1" class="node">
<title>timescaledb_experimental.chunk_replication_status</title>
<polygon fill="#efefef" stroke="transparent" points="46.5,-285.5 46.5,-320.5 549.5,-320.5 549.5,-285.5 46.5,-285.5"/>
<polygon fill="none" stroke="#000000" points="46.5,-285.5 46.5,-320.5 549.5,-320.5 549.5,-285.5 46.5,-285.5"/>
<text text-anchor="start" x="53.0727" y="-298.3" font-family="Arial Bold" font-size="18.00" fill="#000000">timescaledb_experimental.chunk_replication_status</text>
<text text-anchor="start" x="465.1629" y="-298.3" font-family="Arial" font-size="14.00" fill="#000000">    </text>
<text text-anchor="start" x="499.3677" y="-298.3" font-family="Arial" font-size="14.00" fill="#666666">[VIEW]</text>
<polygon fill="none" stroke="#000000" points="46.5,-255.5 46.5,-285.5 549.5,-285.5 549.5,-255.5 46.5,-255.5"/>
<text text-anchor="start" x="53.5" y="-266.9" font-family="Arial" font-size="14.00" fill="#000000">hypertable_schema </text>
<text text-anchor="start" x="179.535" y="-266.9" font-family="Arial" font-size="14.00" fill="#666666">[name]</text>
<polygon fill="none" stroke="#000000" points="46.5,-225.5 46.5,-255.5 549.5,-255.5 549.5,-225.5 46.5,-225.5"/>
<text text-anchor="start" x="53.5" y="-236.9" font-family="Arial" font-size="14.00" fill="#000000">hypertable_name </text>
<text text-anchor="start" x="165.535" y="-236.9" font-family="Arial" font-size="14.00" fill="#666666">[name]</text>
<polygon fill="none" stroke="#000000" points="46.5,-195.5 46.5,-225.5 549.5,-225.5 549.5,-195.5 46.5,-195.5"/>
<text text-anchor="start" x="53.5" y="-206.9" font-family="Arial" font-size="14.00" fill="#000000">chunk_schema </text>
<text text-anchor="start" x="151.5294" y="-206.9" font-family="Arial" font-size="14.00" fill="#666666">[name]</text>
<polygon fill="none" stroke="#000000" points="46.5,-165.5 46.5,-195.5 549.5,-195.5 549.5,-165.5 46.5,-165.5"/>
<text text-anchor="start" x="53.5" y="-176.9" font-family="Arial" font-size="14.00" fill="#000000">chunk_name </text>
<text text-anchor="start" x="137.5294" y="-176.9" font-family="Arial" font-size="14.00" fill="#666666">[name]</text>
<polygon fill="none" stroke="#000000" points="46.5,-135.5 46.5,-165.5 549.5,-165.5 549.5,-135.5 46.5,-135.5"/>
<text text-anchor="start" x="53.5" y="-146.9" font-family="Arial" font-size="14.00" fill="#000000">desired_num_replicas </text>
<text text-anchor="start" x="194.3008" y="-146.9" font-family="Arial" font-size="14.00" fill="#666666">[smallint]</text>
<polygon fill="none" stroke="#000000" points="46.5,-105.5 46.5,-135.5 549.5,-135.5 549.5,-105.5 46.5,-105.5"/>
<text text-anchor="start" x="53.5" y="-116.9" font-family="Arial" font-size="14.00" fill="#000000">num_replicas </text>
<text text-anchor="start" x="140.6206" y="-116.9" font-family="Arial" font-size="14.00" fill="#666666">[bigint]</text>
<polygon fill="none" stroke="#000000" points="46.5,-75.5 46.5,-105.5 549.5,-105.5 549.5,-75.5 46.5,-75.5"/>
<text text-anchor="start" x="53.5" y="-86.9" font-family="Arial" font-size="14.00" fill="#000000">replica_nodes </text>
<text text-anchor="start" x="144.5252" y="-86.9" font-family="Arial" font-size="14.00" fill="#666666">[name[]]</text>
<polygon fill="none" stroke="#000000" points="46.5,-45.5 46.5,-75.5 549.5,-75.5 549.5,-45.5 46.5,-45.5"/>
<text text-anchor="start" x="53.5" y="-56.9" font-family="Arial" font-size="14.00" fill="#000000">non_replica_nodes </text>
<text text-anchor="start" x="175.6556" y="-56.9" font-family="Arial" font-size="14.00" fill="#666666">[name[]]</text>
<polygon fill="none" stroke="#000000" stroke-width="3" points="44.5,-44.5 44.5,-322.5 550.5,-322.5 550.5,-44.5 44.5,-44.5"/>
</g>
</g>
</svg>
